OutlineCutoutDetail-Regular.ufo
<glyph name="exclamation" format="2">
  <advance width="366.69047619047615"/>
  <unicode hex="0021"/>
  <outline>
    <contour>
      <point x="223.19940221877323" y="234.55873107910156" type="line"/>
      <point x="247.58036077590214" y="865" type="line"/>
      <point x="119.11011541457403" y="865" type="line"/>
      <point x="143.49107397170292" y="234.55873107910156" type="line"/>
    </contour>
    <contour>
      <point x="266.19047619047615" y="67.84523809523809" type="curve" smooth="yes"/>
      <point x="266.19047619047615" y="113.56876933547619"/>
      <point x="229.0687693354762" y="150.69047619047618"/>
      <point x="183.34523809523807" y="150.69047619047618" type="curve" smooth="yes"/>
      <point x="137.621706855" y="150.69047619047618"/>
      <point x="100.5" y="113.56876933547619"/>
      <point x="100.5" y="67.84523809523809" type="curve" smooth="yes"/>
      <point x="100.5" y="22.121706855"/>
      <point x="137.62170685499996" y="-15.0"/>
      <point x="183.34523809523807" y="-15.0" type="curve" smooth="yes"/>
      <point x="229.0687693354762" y="-15.000000000000014"/>
      <point x="266.19047619047615" y="22.121706854999978"/>
    </contour>
  </outline>
</glyph>
<glyph name="quote_dbl" format="2">
  <advance width="480.5595245361328"/>
  <unicode hex="0022"/>
  <outline>
    <contour>
      <point x="186.3452377319336" y="574.375" type="line"/>
      <point x="202.1904754638672" y="850" type="line"/>
      <point x="93.5" y="850" type="line"/>
      <point x="109.3452377319336" y="574.375" type="line"/>
    </contour>
    <contour>
      <point x="373.2142868041992" y="574.375" type="line"/>
      <point x="389.0595245361328" y="850" type="line"/>
      <point x="280.3690490722656" y="850" type="line"/>
      <point x="296.2142868041992" y="574.375" type="line"/>
    </contour>
  </outline>
</glyph>
<glyph name="numbersign" format="2">
  <advance width="743.3022918701172"/>
  <unicode hex="0023"/>
  <outline>
    <contour>
      <point x="504.8868713378906" y="218.3744888305664" type="line"/>
      <point x="647.8928527832031" y="218.3744888305664" type="line"/>
      <point x="647.8928527832031" y="314.54732513427734" type="line"/>
      <point x="521.8447341918945" y="314.54732513427734" type="line"/>
      <point x="560.7963104248047" y="535.4526748657227" type="line"/>
      <point x="703.8022918701172" y="535.4526748657227" type="line"/>
      <point x="703.8022918701172" y="631.6255111694336" type="line"/>
      <point x="577.7541732788086" y="631.6255111694336" type="line"/>
      <point x="616.2594909667969" y="850" type="line"/>
      <point x="513.4632186889648" y="850" type="line"/>
      <point x="474.95790100097656" y="631.6255111694336" type="line"/>
      <point x="341.2116928100586" y="631.6255111694336" type="line"/>
      <point x="379.7170104980469" y="850" type="line"/>
      <point x="276.92073822021484" y="850" type="line"/>
      <point x="238.41542053222656" y="631.6255111694336" type="line"/>
      <point x="95.40943908691406" y="631.6255111694336" type="line"/>
      <point x="95.40943908691406" y="535.4526748657227" type="line"/>
      <point x="221.45755767822266" y="535.4526748657227" type="line"/>
      <point x="182.5059814453125" y="314.54732513427734" type="line"/>
      <point x="39.5" y="314.54732513427734" type="line"/>
      <point x="39.5" y="218.3744888305664" type="line"/>
      <point x="165.5481185913086" y="218.3744888305664" type="line"/>
      <point x="127.04280090332031" y="0" type="line"/>
      <point x="229.83907318115234" y="0" type="line"/>
      <point x="268.3443908691406" y="218.3744888305664" type="line"/>
      <point x="402.0905990600586" y="218.3744888305664" type="line"/>
      <point x="363.5852813720703" y="0" type="line"/>
      <point x="466.38155364990234" y="0" type="line"/>
    </contour>
    <contour>
      <point x="285.30225372314453" y="314.54732513427734" type="line"/>
      <point x="324.2538299560547" y="535.4526748657227" type="line"/>
      <point x="458.00003814697266" y="535.4526748657227" type="line"/>
      <point x="419.0484619140625" y="314.54732513427734" type="line"/>
    </contour>
  </outline>
</glyph>
<glyph name="dollar" format="2">
  <advance width="591.3690476190476"/>
  <unicode hex="0024"/>
  <outline>
    <contour>
      <point x="236.9345245361328" y="-100" type="line"/>
      <point x="339.4345245361328" y="-100" type="line"/>
      <point x="339.4345245361328" y="21.33135986328125" type="line"/>
      <point x="461.95042757326996" y="45.063936007845456"/>
      <point x="552.8690476190476" y="133.49793658794295"/>
      <point x="552.8690476190476" y="248.76666666666677" type="curve"/>
      <point x="552.8690476190476" y="391.9391096106646"/>
      <point x="429.27949234095684" y="442.7773507265931"/>
      <point x="352.2639621798635" y="472.00098986135697" type="curve"/>
      <point x="265.1633683050795" y="505.05141902150314" type="line"/>
      <point x="204.71668108132394" y="527.9879900043172"/>
      <point x="140.43749999999997" y="552.3355594364873"/>
      <point x="140.4375" y="617.5408333333334" type="curve"/>
      <point x="140.43749999999997" y="687.0378022133322"/>
      <point x="213.63816305374178" y="736.64"/>
      <point x="304.15119047619044" y="736.64" type="curve"/>
      <point x="390.49671564708956" y="736.6399997369788"/>
      <point x="467.4303939009726" y="708.0095486674821"/>
      <point x="517.7023773193359" y="663.3423385620117" type="curve"/>
      <point x="517.7023773193359" y="775.9814834594727" type="line"/>
      <point x="472.3543826524028" y="809.7524047748108"/>
      <point x="409.8109250998074" y="828.9934753490576"/>
      <point x="339.43452453613276" y="833.7947158813478" type="curve"/>
      <point x="339.4345245361328" y="950" type="line"/>
      <point x="236.9345245361328" y="950" type="line"/>
      <point x="236.9345245361328" y="828.1839294433594" type="line"/>
      <point x="123.90887803961812" y="804.5705888656511"/>
      <point x="40.50000000000004" y="721.657139970475"/>
      <point x="40.50000000000006" y="614.9666666666667" type="curve"/>
      <point x="40.49999999999997" y="483.5876191127329"/>
      <point x="161.7407416683675" y="434.0987459755168"/>
      <point x="234.35545105619622" y="406.5066737962848" type="curve"/>
      <point x="323.1606431945071" y="372.76255649514826" type="line"/>
      <point x="378.11543749302604" y="351.88088302068644"/>
      <point x="452.9315476190476" y="323.21007104132804"/>
      <point x="452.9315476190476" y="246.2091666666667" type="curve"/>
      <point x="452.9315476190476" y="168.21743575681597"/>
      <point x="372.0896056953986" y="113.37999999999997"/>
      <point x="272.21785714285716" y="113.37999999999997" type="curve"/>
      <point x="176.23890691547453" y="113.37999894108825"/>
      <point x="91.54174721218806" y="149.08570463095216"/>
      <point x="40.5" y="203.55504608154297" type="curve"/>
      <point x="40.5" y="87.85980224609375" type="line"/>
      <point x="88.74626566497943" y="46.12344318373665"/>
      <point x="158.2087127760074" y="21.84730118963417"/>
      <point x="236.9345245361328" y="16.25786590576169" type="curve"/>
    </contour>
  </outline>
</glyph>
<glyph name="ampersand" format="2">
  <advance width="810.3675801595052"/>
  <unicode hex="0026"/>
  <outline>
    <contour>
      <point x="211.59630601284817" y="490.9940207127298" type="curve"/>
      <point x="214.9354665120443" y="487.2724609375" type="line"/>
      <point x="118.07653062333571" y="449.25446631820773"/>
      <point x="49.5" y="355.1951381503294"/>
      <point x="49.5" y="245.14583333333334" type="curve" smooth="yes"/>
      <point x="49.500000000000014" y="101.43987440568807"/>
      <point x="166.43659854729196" y="-14.999999999999982"/>
      <point x="310.5864583333333" y="-15.0" type="curve"/>
      <point x="407.34079760098894" y="-15.0"/>
      <point x="495.93152337464403" y="38.67561245911307"/>
      <point x="540.8221471150716" y="124.06581115722656" type="curve"/>
      <point x="652.1400334676107" y="0" type="line"/>
      <point x="788.8675801595052" y="0" type="line"/>
      <point x="590.3692357381185" y="221.23001861572266" type="line"/>
      <point x="732.6750142415365" y="500.52083587646484" type="line"/>
      <point x="623.3884999593099" y="500.52083587646484" type="line"/>
      <point x="520.6656682332357" y="298.9159240722656" type="line"/>
      <point x="294.6379998522976" y="550.8503878535536" type="line"/>
      <point x="267.5861592112208" y="581.0028511118142"/>
      <point x="244.47514880952377" y="609.0560741215467"/>
      <point x="244.47514880952383" y="651.9375000000001" type="curve"/>
      <point x="244.47514880952383" y="715.7701638687381"/>
      <point x="296.1564599009603" y="767.625"/>
      <point x="359.89479166666666" y="767.625" type="curve"/>
      <point x="424.86399122978105" y="767.625"/>
      <point x="477.43645833333335" y="714.652385331902"/>
      <point x="477.43645833333335" y="649.375" type="curve"/>
      <point x="574.8114583333333" y="649.375" type="line"/>
      <point x="574.8114583333333" y="768.3816761875"/>
      <point x="478.1931345208334" y="865.0"/>
      <point x="359.18645833333335" y="865.0" type="curve" smooth="yes"/>
      <point x="240.17978214583331" y="865.0"/>
      <point x="143.56145833333335" y="768.3816761875"/>
      <point x="143.56145833333335" y="649.375" type="curve"/>
      <point x="143.56145833333335" y="571.7296489964658"/>
      <point x="180.29728642374062" y="525.8773910493743"/>
    </contour>
    <contour>
      <point x="312.2947916666667" y="83.65625" type="curve"/>
      <point x="222.92960346879585" y="83.65625000000001"/>
      <point x="150.71875000000003" y="156.65448876901235"/>
      <point x="150.71875000000003" y="246.57708333333332" type="curve" smooth="yes"/>
      <point x="150.71875000000003" y="327.69416930614"/>
      <point x="209.47979371332156" y="395.03918691338333"/>
      <point x="286.5872533162435" y="407.4152297973633" type="curve"/>
      <point x="471.1437413533529" y="201.72366333007812" type="line"/>
      <point x="468.8724162679516" y="197.26933034337554" type="line"/>
      <point x="444.01159784575486" y="148.51437039238738"/>
      <point x="405.9265559912751" y="83.65625"/>
    </contour>
  </outline>
</glyph>
<glyph name="quote" format="2">
  <advance width="293.6904754638672"/>
  <unicode hex="0027"/>
  <outline>
    <contour>
      <point x="186.3452377319336" y="574.375" type="line"/>
      <point x="202.1904754638672" y="850" type="line"/>
      <point x="93.5" y="850" type="line"/>
      <point x="109.3452377319336" y="574.375" type="line"/>
    </contour>
  </outline>
</glyph>
<glyph name="parenleft" format="2">
  <advance width="370.4280367764559"/>
  <unicode hex="0028"/>
  <outline>
    <contour>
      <point x="171.99999999999977" y="425.00000000000017" type="curve" smooth="yes"/>
      <point x="171.9999999999999" y="621.1279477570779"/>
      <point x="234.19188873659823" y="802.6667187117586"/>
      <point x="339.9280367764559" y="950.625" type="curve"/>
      <point x="219.10591610995198" y="950.625" type="line"/>
      <point x="124.2774243249155" y="797.9294011562858"/>
      <point x="69.5" y="617.8112000287081"/>
      <point x="69.5" y="425.0" type="curve" smooth="yes"/>
      <point x="69.49999999999989" y="232.1871469732637"/>
      <point x="124.27836355834722" y="52.06751048638489"/>
      <point x="219.10774716463948" y="-100.625" type="curve"/>
      <point x="339.92712124911213" y="-100.625" type="line"/>
      <point x="234.19157328712572" y="47.33420208979899"/>
      <point x="171.9999999999999" y="228.87254964328582"/>
    </contour>
  </outline>
</glyph>
<glyph name="parenright" format="2">
  <advance width="369.4280367764559"/>
  <unicode hex="0029"/>
  <outline>
    <contour>
      <point x="300.9280367764559" y="425.0000000000002" type="curve" smooth="yes"/>
      <point x="300.928036776456" y="617.8128530267365"/>
      <point x="246.14967321810855" y="797.9324895136153"/>
      <point x="151.3202896118164" y="950.625" type="curve"/>
      <point x="30.50091552734375" y="950.625" type="line"/>
      <point x="136.23646348933028" y="802.665797910201"/>
      <point x="198.428036776456" y="621.1274503567142"/>
      <point x="198.428036776456" y="425.00000000000006" type="curve" smooth="yes"/>
      <point x="198.428036776456" y="228.87205224292225"/>
      <point x="136.23614803985765" y="47.33328128824158"/>
      <point x="30.5" y="-100.625" type="curve"/>
      <point x="151.3221206665039" y="-100.625" type="line"/>
      <point x="246.15061245154038" y="52.070598843714436"/>
      <point x="300.9280367764559" y="232.1887999712922"/>
    </contour>
  </outline>
</glyph>
<glyph name="asterisk" format="2">
  <advance width="436.7155075073242"/>
  <unicode hex="002A"/>
  <outline>
    <contour>
      <point x="279.57901763916016" y="677.086311340332" type="line"/>
      <point x="386.2155075073242" y="703.972053527832" type="line"/>
      <point x="384.8437838006782" y="735.9621443405048"/>
      <point x="374.7366925935679" y="765.2939057027585"/>
      <point x="358.2524948120117" y="789.9817276000977" type="curve"/>
      <point x="256.19356536865234" y="749.0593414306641" type="line"/>
      <point x="263.57811737060547" y="858.8135681152344" type="line"/>
      <point x="249.1875561400609" y="862.8515677663113"/>
      <point x="234.0202449193945" y="865.0"/>
      <point x="218.35509999593103" y="865.0" type="curve" smooth="yes"/>
      <point x="202.69004780568903" y="865.0"/>
      <point x="187.52282342419264" y="862.8515932024567"/>
      <point x="173.13217163085938" y="858.8122329711914" type="curve"/>
      <point x="180.51663970947266" y="749.0593414306641" type="line"/>
      <point x="78.45491027832031" y="789.9828491210938" type="line"/>
      <point x="61.9934639006307" y="765.3222744608073"/>
      <point x="51.89219140923784" y="736.0353889893616"/>
      <point x="50.5" y="703.9707183837891" type="curve"/>
      <point x="157.1311798095703" y="677.086311340332" type="line"/>
      <point x="86.67613220214844" y="592.6710815429688" type="line"/>
      <point x="105.58210815493413" y="568.8320951600605"/>
      <point x="130.81172173119677" y="550.2486815917023"/>
      <point x="159.8177490234375" y="539.4714736938477" type="curve"/>
      <point x="218.3551025390625" y="632.6045303344727" type="line"/>
      <point x="276.90001678466797" y="539.4594421386719" type="line"/>
      <point x="305.89970444511806" y="550.2507519048788"/>
      <point x="331.1241788673574" y="568.8300818408276"/>
      <point x="350.0278091430664" y="592.6785736083984" type="curve"/>
    </contour>
  </outline>
</glyph>
<glyph name="plus" format="2">
  <advance width="800.25"/>
  <unicode hex="002B"/>
  <outline>
    <contour>
      <point x="350.125" y="124.375" type="line"/>
      <point x="450.125" y="124.375" type="line"/>
      <point x="450.125" y="375" type="line"/>
      <point x="700.75" y="375" type="line"/>
      <point x="700.75" y="475" type="line"/>
      <point x="450.125" y="475" type="line"/>
      <point x="450.125" y="725.625" type="line"/>
      <point x="350.125" y="725.625" type="line"/>
      <point x="350.125" y="475" type="line"/>
      <point x="99.5" y="475" type="line"/>
      <point x="99.5" y="375" type="line"/>
      <point x="350.125" y="375" type="line"/>
    </contour>
  </outline>
</glyph>
<glyph name="comma" format="2">
  <advance width="349.3557485380531"/>
  <unicode hex="002C"/>
  <outline>
    <contour>
      <point x="83.5" y="67.84523809523809" type="curve" smooth="yes"/>
      <point x="83.5" y="22.121706855000006"/>
      <point x="120.62170685499997" y="-15.0"/>
      <point x="166.34523809523807" y="-15.0" type="curve"/>
      <point x="182.92678525244793" y="-15.0"/>
      <point x="198.37707575986423" y="-10.117991736325749"/>
      <point x="211.33587682814823" y="-1.6962051391601562" type="curve"/>
      <point x="200.06630746449554" y="-72.21875607701382"/>
      <point x="158.64633745782186" y="-132.71030541559128"/>
      <point x="100.73283422560918" y="-169.53206634521482" type="curve"/>
      <point x="157.29269445510135" y="-169.53206634521484" type="line"/>
      <point x="224.4749735611394" y="-125.3120510541168"/>
      <point x="268.8557485380531" y="-49.221894185159016"/>
      <point x="268.8557485380531" y="37.152155055322126" type="curve"/>
      <point x="268.8557485380531" y="46.630096065269065"/>
      <point x="268.14002968018696" y="80.26815137768259"/>
      <point x="243.17621095031575" y="112.80163334945935" type="curve"/>
      <point x="221.73766337372115" y="140.74089250814072"/>
      <point x="190.88526589182504" y="150.69047619047615"/>
      <point x="166.34523809523807" y="150.69047619047615" type="curve"/>
      <point x="120.62170685499997" y="150.69047619047618"/>
      <point x="83.5" y="113.56876933547622"/>
    </contour>
  </outline>
</glyph>
<glyph name="hyphen" format="2">
  <advance width="534.6845238095239"/>
  <unicode hex="002D"/>
  <outline>
    <contour>
      <point x="99.5" y="250.3125" type="line"/>
      <point x="435.1845238095238" y="250.3125" type="line"/>
      <point x="435.1845238095238" y="350.3125" type="line"/>
      <point x="99.5" y="350.3125" type="line"/>
    </contour>
  </outline>
</glyph>
<glyph name="period" format="2">
  <advance width="330.69047619047615"/>
  <unicode hex="002E"/>
  <outline>
    <contour>
      <point x="248.19047619047615" y="67.84523809523809" type="curve" smooth="yes"/>
      <point x="248.19047619047615" y="113.56876933547619"/>
      <point x="211.0687693354762" y="150.69047619047618"/>
      <point x="165.34523809523807" y="150.69047619047618" type="curve" smooth="yes"/>
      <point x="119.621706855" y="150.69047619047618"/>
      <point x="82.5" y="113.56876933547619"/>
      <point x="82.5" y="67.84523809523809" type="curve" smooth="yes"/>
      <point x="82.5" y="22.121706855"/>
      <point x="119.62170685499997" y="-15.0"/>
      <point x="165.34523809523807" y="-15.0" type="curve" smooth="yes"/>
      <point x="211.0687693354762" y="-15.000000000000014"/>
      <point x="248.19047619047615" y="22.121706854999978"/>
    </contour>
  </outline>
</glyph>
<glyph name="slash" format="2">
  <advance width="402.24681854248047"/>
  <unicode hex="002F"/>
  <outline>
    <contour>
      <point x="288.21920013427734" y="950.625" type="line"/>
      <point x="33.5" y="0" type="line"/>
      <point x="137.02761840820312" y="0" type="line"/>
      <point x="391.74681854248047" y="950.625" type="line"/>
    </contour>
  </outline>
</glyph>
<glyph name="zero" format="2">
  <advance width="766.7380952380953"/>
  <unicode hex="0030"/>
  <outline>
    <contour>
      <point x="692.2380952380953" y="425.0" type="curve" smooth="yes"/>
      <point x="692.2380952380953" y="668.175014059321"/>
      <point x="582.1120990900181" y="865.0"/>
      <point x="383.36904761904765" y="865.0" type="curve" smooth="yes"/>
      <point x="184.62599614807715" y="865.0"/>
      <point x="74.5" y="668.175014059321"/>
      <point x="74.5" y="425.0" type="curve" smooth="yes"/>
      <point x="74.5" y="181.82498594067897"/>
      <point x="184.62599614807715" y="-15.0"/>
      <point x="383.36904761904765" y="-15.0" type="curve" smooth="yes"/>
      <point x="582.1120990900181" y="-15.0"/>
      <point x="692.2380952380953" y="181.82498594067897"/>
    </contour>
    <contour>
      <point x="589.7380952380953" y="425.0" type="curve" smooth="yes"/>
      <point x="589.7380952380953" y="235.5389973768514"/>
      <point x="518.1063914445133" y="82.375"/>
      <point x="383.36904761904765" y="82.375" type="curve" smooth="yes"/>
      <point x="248.63170379358206" y="82.375"/>
      <point x="177.0" y="235.5389973768514"/>
      <point x="177.0" y="425.0" type="curve" smooth="yes"/>
      <point x="177.0" y="614.4610026231486"/>
      <point x="248.63170379358206" y="767.625"/>
      <point x="383.36904761904765" y="767.625" type="curve" smooth="yes"/>
      <point x="518.1063914445133" y="767.625"/>
      <point x="589.7380952380953" y="614.4610026231486"/>
    </contour>
  </outline>
</glyph>
<glyph name="one" format="2">
  <advance width="587.6374969482422"/>
  <unicode hex="0031"/>
  <outline>
    <contour>
      <point x="302.0749969482422" y="0" type="line"/>
      <point x="408.1374969482422" y="0" type="line"/>
      <point x="408.1374969482422" y="850" type="line"/>
      <point x="182.4499969482422" y="850" type="line"/>
      <point x="124.5" y="752.625" type="line"/>
      <point x="302.0749969482422" y="752.625" type="line"/>
    </contour>
  </outline>
</glyph>
<glyph name="two" format="2">
  <advance width="706.9145889282227"/>
  <unicode hex="0032"/>
  <outline>
    <contour>
      <point x="68.5" y="0" type="line"/>
      <point x="625.4145889282227" y="0" type="line"/>
      <point x="625.4145889282227" y="97.375" type="line"/>
      <point x="276.55448150634766" y="97.375" type="line"/>
      <point x="504.7930542601207" y="374.9953129057619" type="line"/>
      <point x="564.5622391930809" y="447.6961698337084"/>
      <point x="605.414587353903" y="513.6539471381094"/>
      <point x="605.414587353903" y="605.8313492063492" type="curve"/>
      <point x="605.4145873539031" y="748.8617366168733"/>
      <point x="488.0016895942613" y="865.0"/>
      <point x="343.24593656025235" y="865.0" type="curve"/>
      <point x="251.6221375445499" y="865.0"/>
      <point x="169.85433863750563" y="833.6824122591001"/>
      <point x="116.4106216430664" y="779.4126129150391" type="curve"/>
      <point x="116.4106216430664" y="649.1525497436523" type="line"/>
      <point x="155.9904283009173" y="719.2339153583587"/>
      <point x="239.91434060585112" y="767.6416666666667"/>
      <point x="337.0792698935857" y="767.6416666666668" type="curve"/>
      <point x="429.48584940038074" y="767.6416666666667"/>
      <point x="504.5047927243818" y="699.8563109496696"/>
      <point x="504.5047927243818" y="607.5396825396825" type="curve"/>
      <point x="504.5047927243817" y="543.139376161417"/>
      <point x="471.47910543789715" y="496.0195652926844"/>
      <point x="428.27513453960194" y="442.84059255015654" type="curve"/>
    </contour>
  </outline>
</glyph>
<glyph name="three" format="2">
  <advance width="671.5476226806641"/>
  <unicode hex="0033"/>
  <outline>
    <contour>
      <point x="302.35714540027436" y="82.28400793650795" type="curve"/>
      <point x="209.785855209996" y="82.28400793650796"/>
      <point x="128.1198309150967" y="121.72607230907059"/>
      <point x="79.5" y="181.73700714111328" type="curve"/>
      <point x="79.5" y="59.58141326904297" type="line"/>
      <point x="136.41028720042885" y="12.135597144404656"/>
      <point x="215.46863941854235" y="-15.00000000000001"/>
      <point x="302.8571454002743" y="-15.0" type="curve"/>
      <point x="470.7187999013439" y="-15.0"/>
      <point x="606.7142882574173" y="111.26166245558889"/>
      <point x="606.7142882574173" y="267.4404761904762" type="curve"/>
      <point x="606.7142882574173" y="407.41445181938553"/>
      <point x="503.0360644174591" y="515.2268421695597"/>
      <point x="363.99305725097656" y="542.9223403930664" type="curve"/>
      <point x="612.0476226806641" y="850" type="line"/>
      <point x="104.16667175292969" y="850" type="line"/>
      <point x="104.16667175292969" y="752.625" type="line"/>
      <point x="414.1245880126953" y="752.625" type="line"/>
      <point x="152.27666473388672" y="431.6320571899414" type="line"/>
      <point x="204.00218962867976" y="449.486711393958"/>
      <point x="254.73777243307427" y="453.04694444444453"/>
      <point x="287.19047873360773" y="453.0469444444445" type="curve"/>
      <point x="407.0266191182442" y="453.04694444444453"/>
      <point x="504.21428825741725" y="377.142572379897"/>
      <point x="504.21428825741725" y="267.6654761904762" type="curve"/>
      <point x="504.21428825741725" y="165.24484269492166"/>
      <point x="413.8776450962498" y="82.28400793650795"/>
    </contour>
  </outline>
</glyph>
<glyph name="four" format="2">
  <advance width="737.8333358764648"/>
  <unicode hex="0034"/>
  <outline>
    <contour>
      <point x="28.5" y="218.75" type="line"/>
      <point x="485.52083587646484" y="218.75" type="line"/>
      <point x="485.52083587646484" y="0" type="line"/>
      <point x="588.0208358764648" y="0" type="line"/>
      <point x="588.0208358764648" y="218.75" type="line"/>
      <point x="688.3333358764648" y="218.75" type="line"/>
      <point x="688.3333358764648" y="313.6906280517578" type="line"/>
      <point x="588.0208358764648" y="313.6906280517578" type="line"/>
      <point x="588.0208358764648" y="605.8928604125977" type="line"/>
      <point x="485.52083587646484" y="605.8928604125977" type="line"/>
      <point x="485.52083587646484" y="313.6906280517578" type="line"/>
      <point x="203.55079650878906" y="313.6906280517578" type="line"/>
      <point x="543.7145004272461" y="850" type="line"/>
      <point x="426.38148498535156" y="850" type="line"/>
    </contour>
  </outline>
</glyph>
<glyph name="five" format="2">
  <advance width="674.1875"/>
  <unicode hex="0035"/>
  <outline>
    <contour>
      <point x="297.01041666666663" y="-14.999999999999972" type="curve"/>
      <point x="467.43401861282246" y="-15.0"/>
      <point x="605.6875" y="113.0944706387196"/>
      <point x="605.6875" y="270.7270833333334" type="curve"/>
      <point x="605.6875" y="431.933878682402"/>
      <point x="471.9310461390347" y="556.4541666666668"/>
      <point x="307.17708333333337" y="556.4541666666668" type="curve"/>
      <point x="290.66648178549724" y="556.4541666666668"/>
      <point x="259.5279223214198" y="555.4976988742812"/>
      <point x="225.9936981201172" y="549.8521194458008" type="curve"/>
      <point x="240.0544204711914" y="752.625" type="line"/>
      <point x="565.6875" y="752.625" type="line"/>
      <point x="565.6875" y="850" type="line"/>
      <point x="146.56049346923828" y="850" type="line"/>
      <point x="116.33804321289062" y="414.15514373779297" type="line"/>
      <point x="167.26267324714058" y="443.47373545296136"/>
      <point x="231.50757813848645" y="459.2229166666667"/>
      <point x="301.3437500000001" y="459.22291666666666" type="curve"/>
      <point x="412.7713093127355" y="459.2229166666667"/>
      <point x="503.1875" y="379.65690980637646"/>
      <point x="503.1875" y="270.87708333333336" type="curve"/>
      <point x="503.1875000000001" y="164.93421177000107"/>
      <point x="408.43225501980567" y="82.53124999999997"/>
      <point x="291.67708333333337" y="82.53124999999997" type="curve"/>
      <point x="201.23919794342459" y="82.53124999999999"/>
      <point x="121.37479655532852" y="121.2249894320503"/>
      <point x="73.5" y="180.21280670166016" type="curve"/>
      <point x="73.5" y="62.44606018066406" type="line"/>
      <point x="131.0315402331884" y="14.568284024208808"/>
      <point x="209.93486044249977" y="-14.999999999999982"/>
    </contour>
  </outline>
</glyph>
<glyph name="six" format="2">
  <advance width="731.1875"/>
  <unicode hex="0036"/>
  <outline>
    <contour>
      <point x="140.0976999249759" y="489.28521380674175" type="line"/>
      <point x="94.84929582303613" y="419.45323573928295"/>
      <point x="64.49999999999993" y="363.748572256007"/>
      <point x="64.5" y="283.59375000000006" type="curve"/>
      <point x="64.49999999999994" y="117.41558694687498"/>
      <point x="199.4155869468748" y="-14.99999999999998"/>
      <point x="365.59374999999994" y="-15.0" type="curve" smooth="yes"/>
      <point x="531.7719130531251" y="-15.0"/>
      <point x="666.6875" y="117.41558694687492"/>
      <point x="666.6875" y="283.59375" type="curve"/>
      <point x="666.6875" y="447.71193335933606"/>
      <point x="533.4443552343361" y="578.4550781250001"/>
      <point x="369.326171875" y="578.4550781250001" type="curve" smooth="yes"/>
      <point x="349.8427176193131" y="578.4550781250001"/>
      <point x="330.79440036979963" y="576.6124510973955"/>
      <point x="312.35268402099604" y="573.0780868530273" type="curve"/>
      <point x="494.3388214111328" y="850" type="line"/>
      <point x="373.8268432617187" y="850" type="line"/>
    </contour>
    <contour>
      <point x="564.1875" y="283.59375000000006" type="curve" smooth="yes"/>
      <point x="564.1875" y="172.55611995625767"/>
      <point x="475.63022817547966" y="82.375"/>
      <point x="365.59375" y="82.375" type="curve" smooth="yes"/>
      <point x="255.55727182452029" y="82.375"/>
      <point x="166.99999999999994" y="172.55611995625767"/>
      <point x="166.99999999999994" y="283.59375000000006" type="curve" smooth="yes"/>
      <point x="166.99999999999994" y="394.6313800437424"/>
      <point x="255.55727182452029" y="484.8125000000001"/>
      <point x="365.59375" y="484.8125000000001" type="curve" smooth="yes"/>
      <point x="475.63022817547966" y="484.8125000000001"/>
      <point x="564.1875" y="394.6313800437424"/>
    </contour>
  </outline>
</glyph>
<glyph name="seven" format="2">
  <advance width="720.8035736083984"/>
  <unicode hex="0037"/>
  <outline>
    <contour>
      <point x="509.2994842529297" y="752.625" type="line"/>
      <point x="117.56414794921875" y="0" type="line"/>
      <point x="231.7186508178711" y="0" type="line"/>
      <point x="671.3035736083984" y="850" type="line"/>
      <point x="89.5" y="850" type="line"/>
      <point x="89.5" y="752.625" type="line"/>
    </contour>
  </outline>
</glyph>
<glyph name="eight" format="2">
  <advance width="726.2916666666667"/>
  <unicode hex="0038"/>
  <outline>
    <contour>
      <point x="64.5" y="235.12500000000003" type="curve"/>
      <point x="64.50000000000001" y="97.2072397676967"/>
      <point x="198.1902591086401" y="-14.99999999999998"/>
      <point x="363.1458333333333" y="-15.0" type="curve" smooth="yes"/>
      <point x="528.1014075580266" y="-15.000000000000028"/>
      <point x="661.7916666666667" y="97.20723976769665"/>
      <point x="661.7916666666667" y="235.12499999999997" type="curve"/>
      <point x="661.7916666666667" y="329.9453691165356"/>
      <point x="609.6175271264271" y="403.8905397980181"/>
      <point x="530.2703323364258" y="446.0401153564453" type="curve"/>
      <point x="598.0814148720774" y="485.514384634888"/>
      <point x="641.9583333333335" y="550.9988758141207"/>
      <point x="641.9583333333336" y="634.5416666666667" type="curve"/>
      <point x="641.9583333333335" y="761.6062368484689"/>
      <point x="517.2119722479138" y="865.0"/>
      <point x="363.14583333333337" y="865.0" type="curve" smooth="yes"/>
      <point x="209.07969441875304" y="865.0"/>
      <point x="84.33333333333334" y="761.6062368484689"/>
      <point x="84.33333333333333" y="634.5416666666667" type="curve"/>
      <point x="84.33333333333333" y="550.9966211001107"/>
      <point x="128.2126201913535" y="485.5108499612496"/>
      <point x="196.0267791748047" y="446.0439224243164" type="curve"/>
      <point x="116.67647863706799" y="403.8938548968373"/>
      <point x="64.5" y="329.9474946095555"/>
    </contour>
    <contour>
      <point x="539.4583333333335" y="629.2571428571429" type="curve" smooth="yes"/>
      <point x="539.4583333333335" y="546.6759666754122"/>
      <point x="460.5486082167305" y="490.88928571428573"/>
      <point x="363.14583333333337" y="490.88928571428573" type="curve" smooth="yes"/>
      <point x="265.7430584499363" y="490.88928571428573"/>
      <point x="186.83333333333331" y="546.6759666754122"/>
      <point x="186.83333333333331" y="629.2571428571429" type="curve" smooth="yes"/>
      <point x="186.83333333333331" y="711.8383190388736"/>
      <point x="265.7430584499363" y="767.625"/>
      <point x="363.14583333333337" y="767.625" type="curve" smooth="yes"/>
      <point x="460.5486082167305" y="767.625"/>
      <point x="539.4583333333335" y="711.8383190388736"/>
    </contour>
    <contour>
      <point x="559.2916666666667" y="240.40952380952382" type="curve" smooth="yes"/>
      <point x="559.2916666666667" y="146.94769722364782"/>
      <point x="471.488679900663" y="82.375"/>
      <point x="363.14583333333337" y="82.375" type="curve" smooth="yes"/>
      <point x="254.80298676600376" y="82.375"/>
      <point x="167.0" y="146.94769722364782"/>
      <point x="167.0" y="240.40952380952382" type="curve" smooth="yes"/>
      <point x="167.0" y="333.8713503953998"/>
      <point x="254.80298676600376" y="398.44404761904764"/>
      <point x="363.14583333333337" y="398.44404761904764" type="curve" smooth="yes"/>
      <point x="471.488679900663" y="398.44404761904764"/>
      <point x="559.2916666666667" y="333.8713503953998"/>
    </contour>
  </outline>
</glyph>
<glyph name="nine" format="2">
  <advance width="731.1875"/>
  <unicode hex="0039"/>
  <outline>
    <contour>
      <point x="591.0898000750241" y="360.71478619325825" type="line"/>
      <point x="636.3382041769638" y="430.54676426071705"/>
      <point x="666.6875000000002" y="486.2514277439931"/>
      <point x="666.6875" y="566.40625" type="curve"/>
      <point x="666.6875000000001" y="732.5844130531251"/>
      <point x="531.7719130531252" y="865.0"/>
      <point x="365.59375000000006" y="865.0" type="curve" smooth="yes"/>
      <point x="199.41558694687492" y="865.0"/>
      <point x="64.50000000000001" y="732.5844130531251"/>
      <point x="64.5" y="566.40625" type="curve"/>
      <point x="64.50000000000001" y="402.28806664066394"/>
      <point x="197.74314476566397" y="271.54492187499994"/>
      <point x="361.861328125" y="271.54492187499994" type="curve" smooth="yes"/>
      <point x="381.3447823806869" y="271.54492187499994"/>
      <point x="400.39309963020037" y="273.3875489026046"/>
      <point x="418.8348159790039" y="276.92191314697266" type="curve"/>
      <point x="236.8486785888672" y="0" type="line"/>
      <point x="357.36065673828125" y="0" type="line"/>
    </contour>
    <contour>
      <point x="564.1875000000001" y="566.40625" type="curve" smooth="yes"/>
      <point x="564.1875000000001" y="455.3686199562576"/>
      <point x="475.6302281754797" y="365.18749999999994"/>
      <point x="365.59375000000006" y="365.18749999999994" type="curve" smooth="yes"/>
      <point x="255.5572718245204" y="365.18749999999994"/>
      <point x="167.0" y="455.3686199562576"/>
      <point x="167.0" y="566.40625" type="curve" smooth="yes"/>
      <point x="167.0" y="677.4438800437424"/>
      <point x="255.5572718245204" y="767.625"/>
      <point x="365.59375000000006" y="767.625" type="curve" smooth="yes"/>
      <point x="475.6302281754797" y="767.625"/>
      <point x="564.1875000000001" y="677.4438800437424"/>
    </contour>
  </outline>
</glyph>
<glyph name="colon" format="2">
  <advance width="336.69047619047615"/>
  <unicode hex="003A"/>
  <outline>
    <contour>
      <point x="251.19047619047615" y="532.7797619047619" type="curve" smooth="yes"/>
      <point x="251.19047619047615" y="578.503293145"/>
      <point x="214.0687693354762" y="615.625"/>
      <point x="168.34523809523807" y="615.625" type="curve" smooth="yes"/>
      <point x="122.621706855" y="615.625"/>
      <point x="85.5" y="578.503293145"/>
      <point x="85.5" y="532.7797619047619" type="curve" smooth="yes"/>
      <point x="85.5" y="487.0562306645238"/>
      <point x="122.62170685499997" y="449.93452380952385"/>
      <point x="168.34523809523807" y="449.93452380952385" type="curve" smooth="yes"/>
      <point x="214.0687693354762" y="449.93452380952385"/>
      <point x="251.19047619047615" y="487.0562306645238"/>
    </contour>
    <contour>
      <point x="251.19047619047615" y="67.84523809523809" type="curve" smooth="yes"/>
      <point x="251.19047619047615" y="113.56876933547619"/>
      <point x="214.0687693354762" y="150.69047619047618"/>
      <point x="168.34523809523807" y="150.69047619047618" type="curve" smooth="yes"/>
      <point x="122.621706855" y="150.69047619047618"/>
      <point x="85.5" y="113.56876933547619"/>
      <point x="85.5" y="67.84523809523809" type="curve" smooth="yes"/>
      <point x="85.5" y="22.121706855"/>
      <point x="122.62170685499997" y="-15.0"/>
      <point x="168.34523809523807" y="-15.0" type="curve" smooth="yes"/>
      <point x="214.0687693354762" y="-15.000000000000014"/>
      <point x="251.19047619047615" y="22.121706854999978"/>
    </contour>
  </outline>
</glyph>
<glyph name="semicolon" format="2">
  <advance width="346.3557485380531"/>
  <unicode hex="003B"/>
  <outline>
    <contour>
      <point x="251.19047619047615" y="532.7797619047619" type="curve" smooth="yes"/>
      <point x="251.19047619047615" y="578.503293145"/>
      <point x="214.0687693354762" y="615.625"/>
      <point x="168.34523809523807" y="615.625" type="curve" smooth="yes"/>
      <point x="122.621706855" y="615.625"/>
      <point x="85.5" y="578.503293145"/>
      <point x="85.5" y="532.7797619047619" type="curve" smooth="yes"/>
      <point x="85.5" y="487.0562306645238"/>
      <point x="122.62170685499997" y="449.93452380952385"/>
      <point x="168.34523809523807" y="449.93452380952385" type="curve" smooth="yes"/>
      <point x="214.0687693354762" y="449.93452380952385"/>
      <point x="251.19047619047615" y="487.0562306645238"/>
    </contour>
    <contour>
      <point x="85.5" y="67.84523809523809" type="curve" smooth="yes"/>
      <point x="85.5" y="22.121706855000006"/>
      <point x="122.62170685499997" y="-15.0"/>
      <point x="168.34523809523807" y="-15.0" type="curve"/>
      <point x="184.92678525244793" y="-15.0"/>
      <point x="200.37707575986423" y="-10.117991736325749"/>
      <point x="213.33587682814823" y="-1.6962051391601562" type="curve"/>
      <point x="202.06630746449554" y="-72.21875607701382"/>
      <point x="160.64633745782186" y="-132.71030541559128"/>
      <point x="102.73283422560918" y="-169.53206634521482" type="curve"/>
      <point x="159.29269445510135" y="-169.53206634521484" type="line"/>
      <point x="226.4749735611394" y="-125.3120510541168"/>
      <point x="270.8557485380531" y="-49.221894185159016"/>
      <point x="270.8557485380531" y="37.152155055322126" type="curve"/>
      <point x="270.8557485380531" y="46.630096065269065"/>
      <point x="270.14002968018696" y="80.26815137768259"/>
      <point x="245.17621095031575" y="112.80163334945935" type="curve"/>
      <point x="223.73766337372115" y="140.74089250814072"/>
      <point x="192.88526589182504" y="150.69047619047615"/>
      <point x="168.34523809523807" y="150.69047619047615" type="curve"/>
      <point x="122.62170685499997" y="150.69047619047618"/>
      <point x="85.5" y="113.56876933547622"/>
    </contour>
  </outline>
</glyph>
<glyph name="less" format="2">
  <advance width="700.625"/>
  <unicode hex="003C"/>
  <outline>
    <contour>
      <point x="631.125" y="124.0625" type="line"/>
      <point x="631.125" y="235.00631713867188" type="line"/>
      <point x="250.34845733642578" y="425" type="line"/>
      <point x="631.125" y="614.9936828613281" type="line"/>
      <point x="631.125" y="725.9375" type="line"/>
      <point x="30.5" y="425" type="line"/>
    </contour>
  </outline>
</glyph>
<glyph name="equal" format="2">
  <advance width="800.25"/>
  <unicode hex="003D"/>
  <outline>
    <contour>
      <point x="99.5" y="524.25" type="line"/>
      <point x="700.75" y="524.25" type="line"/>
      <point x="700.75" y="624.25" type="line"/>
      <point x="99.5" y="624.25" type="line"/>
    </contour>
    <contour>
      <point x="99.5" y="225.75" type="line"/>
      <point x="700.75" y="225.75" type="line"/>
      <point x="700.75" y="325.75" type="line"/>
      <point x="99.5" y="325.75" type="line"/>
    </contour>
  </outline>
</glyph>
<glyph name="greater" format="2">
  <advance width="700.625"/>
  <unicode hex="003E"/>
  <outline>
    <contour>
      <point x="69.5" y="124.0625" type="line"/>
      <point x="670.125" y="425" type="line"/>
      <point x="69.5" y="725.9375" type="line"/>
      <point x="69.5" y="614.9936828613281" type="line"/>
      <point x="450.2765426635742" y="425" type="line"/>
      <point x="69.5" y="235.00631713867188" type="line"/>
    </contour>
  </outline>
</glyph>
<glyph name="question" format="2">
  <advance width="610.047619047619"/>
  <unicode hex="003F"/>
  <outline>
    <contour>
      <point x="257.7738095238095" y="445.2607142857143" type="curve"/>
      <point x="232.61467578527908" y="445.2607141960079"/>
      <point x="201.6880263094783" y="448.90598933910223"/>
      <point x="168.7006378173828" y="461.17423248291016" type="curve"/>
      <point x="174.47222137451172" y="234.55873107910156" type="line"/>
      <point x="253.55555725097656" y="234.55873107910156" type="line"/>
      <point x="259.33203887939453" y="347.96266174316406" type="line"/>
      <point x="409.0654696926507" y="347.95238095238096"/>
      <point x="531.547619047619" y="463.42519497378987"/>
      <point x="531.547619047619" y="606.4761904761905" type="curve"/>
      <point x="531.547619047619" y="749.1593639800001"/>
      <point x="415.8190042726191" y="865.0"/>
      <point x="273.2738095238095" y="865.0" type="curve"/>
      <point x="209.58940872154002" y="865.0"/>
      <point x="151.14405197303662" y="843.1032316623287"/>
      <point x="105.5" y="806.4687118530273" type="curve"/>
      <point x="105.5" y="692.9990921020508" type="line"/>
      <point x="146.62058232441646" y="738.8149959318546"/>
      <point x="206.2702681767128" y="767.6416666666668"/>
      <point x="272.6071428571429" y="767.6416666666668" type="curve"/>
      <point x="361.22917269580915" y="767.6416666666667"/>
      <point x="429.04761904761904" y="695.424274882216"/>
      <point x="429.04761904761904" y="606.4761904761905" type="curve"/>
      <point x="429.04761904761904" y="517.3264691114207"/>
      <point x="352.331486368528" y="445.2607142857143"/>
    </contour>
    <contour>
      <point x="296.859126984127" y="67.84523809523809" type="curve" smooth="yes"/>
      <point x="296.859126984127" y="113.56876933547619"/>
      <point x="259.737420129127" y="150.69047619047618"/>
      <point x="214.01388888888889" y="150.69047619047618" type="curve" smooth="yes"/>
      <point x="168.2903576486508" y="150.69047619047618"/>
      <point x="131.16865079365078" y="113.56876933547619"/>
      <point x="131.16865079365078" y="67.84523809523809" type="curve" smooth="yes"/>
      <point x="131.16865079365078" y="22.121706855"/>
      <point x="168.2903576486508" y="-15.0"/>
      <point x="214.01388888888889" y="-15.0" type="curve" smooth="yes"/>
      <point x="259.737420129127" y="-15.000000000000014"/>
      <point x="296.859126984127" y="22.121706854999978"/>
    </contour>
  </outline>
</glyph>
<glyph name="at" format="2">
  <advance width="1099.0"/>
  <unicode hex="0040"/>
  <outline>
    <contour>
      <point x="135.2323979591837" y="425.00000000000006" type="curve"/>
      <point x="135.2323979591837" y="653.6405118657092"/>
      <point x="320.8594881342908" y="839.2676020408163"/>
      <point x="549.5" y="839.2676020408163" type="curve" smooth="yes"/>
      <point x="778.1405118657093" y="839.2676020408163"/>
      <point x="963.7676020408162" y="653.6405118657093"/>
      <point x="963.7676020408162" y="425.0" type="curve"/>
      <point x="963.7676020408167" y="259.0987584447886"/>
      <point x="911.7196602602278" y="248.55399659863946"/>
      <point x="889.1218112244898" y="248.55399659863946" type="curve"/>
      <point x="827.654694755455" y="248.55399659863946"/>
      <point x="811.9107146707215" y="326.5707667681324"/>
      <point x="811.9107140740072" y="467.5" type="curve"/>
      <point x="811.9107131958008" y="674.9107131958008" type="line"/>
      <point x="710.9501724243164" y="674.9107131958008" type="line"/>
      <point x="710.9501724243164" y="623.7801513671875" type="line"/>
      <point x="665.5980469811111" y="664.8737462017021"/>
      <point x="605.4498007021034" y="689.9107142857143"/>
      <point x="539.5000000000001" y="689.9107142857143" type="curve"/>
      <point x="389.1524351767857" y="689.9107142857142"/>
      <point x="267.0892857142857" y="567.8475648232143"/>
      <point x="267.0892857142857" y="417.5" type="curve" smooth="yes"/>
      <point x="267.0892857142857" y="267.15243517678556"/>
      <point x="389.1524351767857" y="145.08928571428575"/>
      <point x="539.5" y="145.08928571428572" type="curve"/>
      <point x="622.1529618301306" y="145.08928571428572"/>
      <point x="696.0776208750412" y="182.7568179520585"/>
      <point x="745.0295028686523" y="241.8651580810547" type="curve"/>
      <point x="773.3675799160543" y="185.60173119823702"/>
      <point x="818.8823655221826" y="150.08928571428572"/>
      <point x="882.0860969387754" y="150.0892857142857" type="curve"/>
      <point x="1008.1796139944254" y="150.08928571428572"/>
      <point x="1064.5" y="273.1087844665433"/>
      <point x="1064.5" y="425.0" type="curve"/>
      <point x="1064.5" y="709.2362353000002"/>
      <point x="833.7362353000002" y="940.0"/>
      <point x="549.5" y="940.0" type="curve" smooth="yes"/>
      <point x="265.2637647" y="940.0"/>
      <point x="34.5" y="709.2362353000001"/>
      <point x="34.5" y="425.00000000000006" type="curve"/>
      <point x="34.500000000000014" y="140.76376469999985"/>
      <point x="265.2637646999997" y="-89.99999999999997"/>
      <point x="549.4999999999999" y="-90.0" type="curve"/>
      <point x="640.6745772914603" y="-90.00000000000004"/>
      <point x="729.3590328421823" y="-65.84814725229435"/>
      <point x="807.0" y="-21.08533477783203" type="curve"/>
      <point x="807.0" y="97.36418914794922" type="line"/>
      <point x="733.4093981034417" y="41.47420616927356"/>
      <point x="643.1287668068134" y="10.732397959183611"/>
      <point x="549.6785714285714" y="10.7323979591836" type="curve"/>
      <point x="320.93950330929067" y="10.73239795918373"/>
      <point x="135.2323979591837" y="196.35948813429076"/>
    </contour>
    <contour>
      <point x="709.6721938775511" y="417.5" type="curve" smooth="yes"/>
      <point x="709.6721938775511" y="320.7546691794962"/>
      <point x="634.2591545734496" y="242.20280612244898"/>
      <point x="539.5" y="242.20280612244898" type="curve" smooth="yes"/>
      <point x="444.74084542655044" y="242.20280612244898"/>
      <point x="369.327806122449" y="320.7546691794962"/>
      <point x="369.327806122449" y="417.5" type="curve" smooth="yes"/>
      <point x="369.327806122449" y="514.2453308205038"/>
      <point x="444.74084542655044" y="592.7971938775511"/>
      <point x="539.5" y="592.7971938775511" type="curve" smooth="yes"/>
      <point x="634.2591545734496" y="592.7971938775511"/>
      <point x="709.6721938775511" y="514.2453308205038"/>
    </contour>
  </outline>
</glyph>
<glyph name="A" format="2">
  <advance width="807.773811340332"/>
  <unicode hex="0041"/>
  <anchor x="403.88690476190476" y="995.0790249433106" name="top" identifier="top"/>
  <anchor x="403.88690476190476" y="-169.25886243386242" name="below" identifier="below"/>
  <anchor x="809.2738095238095" y="0" name="ogonek" identifier="ogonek"/>
  <outline>
    <contour>
      <point x="-1.5" y="0" type="line"/>
      <point x="103.6739501953125" y="0" type="line"/>
      <point x="193.99908447265625" y="194.6171417236328" type="line"/>
      <point x="608.2188491821289" y="194.6171417236328" type="line"/>
      <point x="698.5439834594727" y="0" type="line"/>
      <point x="809.273811340332" y="0" type="line"/>
      <point x="403.88690185546875" y="870.3333358764648" type="line"/>
    </contour>
    <contour>
      <point x="401.10897064208984" y="640.8620681762695" type="line"/>
      <point x="564.8331832885742" y="288.0971450805664" type="line"/>
      <point x="237.38475036621094" y="288.0971450805664" type="line"/>
    </contour>
  </outline>
</glyph>
<glyph name="D" format="2">
  <advance width="822.7202380952381"/>
  <unicode hex="0044"/>
  <anchor x="394.6658163265306" y="995.0790249433106" name="top" identifier="top"/>
  <anchor x="394.6658163265306" y="-169.25886243386242" name="below" identifier="below"/>
  <anchor x="394.6658163265306" y="0" name="bottom" identifier="bottom"/>
  <anchor x="150.75" y="425.0" name="stroke" identifier="stroke"/>
  <outline>
    <contour>
      <point x="99.5" y="0" type="line"/>
      <point x="313.2202377319336" y="0.0" type="line"/>
      <point x="682.6098377251574" y="0.0"/>
      <point x="788.2202380952381" y="256.7975420746361"/>
      <point x="788.2202380952381" y="425.0" type="curve" smooth="yes"/>
      <point x="788.2202380952381" y="593.2024579253639"/>
      <point x="682.6098380884619" y="850.0"/>
      <point x="313.2202380952381" y="850.0" type="curve"/>
      <point x="99.5" y="850" type="line"/>
    </contour>
    <contour>
      <point x="202.0" y="97.375" type="line"/>
      <point x="202.0" y="752.625" type="line"/>
      <point x="310.6577377319336" y="752.625" type="line"/>
      <point x="620.6970428136868" y="752.625"/>
      <point x="684.6952380952381" y="544.3831210516901"/>
      <point x="684.6952380952381" y="425.0" type="curve" smooth="yes"/>
      <point x="684.6952380952381" y="305.61687894830993"/>
      <point x="620.6970431769913" y="97.375"/>
      <point x="310.6577380952381" y="97.375" type="curve"/>
    </contour>
  </outline>
</glyph>
<glyph name="E" format="2">
  <advance width="650.8452377319336"/>
  <unicode hex="0045"/>
  <anchor x="341.12574404761904" y="995.0790249433106" name="top" identifier="top"/>
  <anchor x="337.92261904761904" y="-169.25886243386242" name="below" identifier="below"/>
  <anchor x="341.12574404761904" y="0" name="bottom" identifier="bottom"/>
  <anchor x="576.3452380952381" y="0" name="ogonek" identifier="ogonek"/>
  <outline>
    <contour>
      <point x="99.5" y="0" type="line"/>
      <point x="576.3452377319336" y="0" type="line"/>
      <point x="576.3452377319336" y="97.375" type="line"/>
      <point x="202.0" y="97.375" type="line"/>
      <point x="202.0" y="383.1410446166992" type="line"/>
      <point x="546.3452377319336" y="383.1410446166992" type="line"/>
      <point x="546.3452377319336" y="476.6922912597656" type="line"/>
      <point x="202.0" y="476.6922912597656" type="line"/>
      <point x="202.0" y="752.625" type="line"/>
      <point x="576.3452377319336" y="752.625" type="line"/>
      <point x="576.3452377319336" y="850" type="line"/>
      <point x="99.5" y="850" type="line"/>
    </contour>
  </outline>
</glyph>
<glyph name="F" format="2">
  <advance width="619.8928604125977"/>
  <unicode hex="0046"/>
  <anchor x="343.1495535714286" y="995.0790249433106" name="top" identifier="top"/>
  <anchor x="202.0" y="0" name="lefthook" identifier="lefthook"/>
  <outline>
    <contour>
      <point x="99.5" y="0" type="line"/>
      <point x="202.0" y="0" type="line"/>
      <point x="202.0" y="382.34520721435547" type="line"/>
      <point x="535.3928604125977" y="382.34520721435547" type="line"/>
      <point x="535.3928604125977" y="477.3214569091797" type="line"/>
      <point x="202.0" y="477.3214569091797" type="line"/>
      <point x="202.0" y="752.625" type="line"/>
      <point x="580.3928604125977" y="752.625" type="line"/>
      <point x="580.3928604125977" y="850" type="line"/>
      <point x="99.5" y="850" type="line"/>
    </contour>
  </outline>
</glyph>
<glyph name="H" format="2">
  <advance width="787.4523773193359"/>
  <unicode hex="0048"/>
  <anchor x="393.7261904761905" y="995.0790249433106" name="top" identifier="top"/>
  <anchor x="393.7261904761905" y="-169.25886243386242" name="below" identifier="below"/>
  <anchor x="393.7261904761905" y="661.84375" name="stroke" identifier="stroke"/>
  <anchor x="150.75" y="0" name="bottom" identifier="bottom"/>
  <outline>
    <contour>
      <point x="99.5" y="0" type="line"/>
      <point x="202.0" y="0" type="line"/>
      <point x="202.0" y="381.3125" type="line"/>
      <point x="585.4523773193359" y="381.3125" type="line"/>
      <point x="585.4523773193359" y="0" type="line"/>
      <point x="687.9523773193359" y="0" type="line"/>
      <point x="687.9523773193359" y="850" type="line"/>
      <point x="585.4523773193359" y="850" type="line"/>
      <point x="585.4523773193359" y="478.6875" type="line"/>
      <point x="202.0" y="478.6875" type="line"/>
      <point x="202.0" y="850" type="line"/>
      <point x="99.5" y="850" type="line"/>
    </contour>
  </outline>
</glyph>
<glyph name="I" format="2">
  <advance width="303.75"/>
  <unicode hex="0049"/>
  <anchor x="151.875" y="995.0790249433106" name="top" identifier="top"/>
  <anchor x="151.875" y="-169.25886243386242" name="below" identifier="below"/>
  <anchor x="204.25" y="0" name="ogonek" identifier="ogonek"/>
  <anchor x="151.875" y="425.0" name="stroke" identifier="stroke"/>
  <outline>
    <contour>
      <point x="99.5" y="0" type="line"/>
      <point x="204.25" y="0" type="line"/>
      <point x="204.25" y="850" type="line"/>
      <point x="99.5" y="850" type="line"/>
    </contour>
  </outline>
</glyph>
<glyph name="J" format="2">
  <advance width="555.1220245361328"/>
  <unicode hex="004A"/>
  <anchor x="420.37202380952385" y="995.0790249433106" name="top" identifier="top"/>
  <outline>
    <contour>
      <point x="197.44940476190476" y="82.35833333333332" type="curve"/>
      <point x="132.20124451666226" y="82.35833333333333"/>
      <point x="73.11937543241447" y="109.51669839665458"/>
      <point x="30.5" y="153.35108184814453" type="curve"/>
      <point x="30.5" y="41.78937530517578" type="line"/>
      <point x="76.79608172661568" y="6.176013246195112"/>
      <point x="134.81773998752237" y="-15.000000000000014"/>
      <point x="197.78273809523807" y="-15.000000000000021" type="curve"/>
      <point x="277.99366933189174" y="-15.000000000000009"/>
      <point x="471.6220235225411" y="18.378622281835703"/>
      <point x="471.62202387046455" y="303.8392857142858" type="curve"/>
      <point x="471.6220245361328" y="850" type="line"/>
      <point x="369.1220245361328" y="850" type="line"/>
      <point x="369.1220245361328" y="306.44615066417356" type="line"/>
      <point x="369.1220245361328" y="120.76738987683007"/>
      <point x="275.10987261219884" y="82.35833333333332"/>
    </contour>
  </outline>
</glyph>
<glyph name="K" format="2">
  <advance width="706.5374984741211"/>
  <unicode hex="004B"/>
  <anchor x="346.4047619047619" y="995.0790249433106" name="top" identifier="top"/>
  <anchor x="353.66666666666663" y="0" name="bottom" identifier="bottom"/>
  <anchor x="353.66666666666663" y="-169.25886243386242" name="below" identifier="below"/>
  <outline>
    <contour>
      <point x="99.5" y="0" type="line"/>
      <point x="202.0" y="0" type="line"/>
      <point x="202.0" y="345.7154769897461" type="line"/>
      <point x="221.9188690185547" y="366.6382827758789" type="line"/>
      <point x="572.4493942260742" y="0" type="line"/>
      <point x="712.0374984741211" y="0" type="line"/>
      <point x="290.5793762207031" y="438.75936126708984" type="line"/>
      <point x="682.0875015258789" y="850" type="line"/>
      <point x="551.5414962768555" y="850" type="line"/>
      <point x="202.0" y="481.47601318359375" type="line"/>
      <point x="202.0" y="850" type="line"/>
      <point x="99.5" y="850" type="line"/>
    </contour>
  </outline>
</glyph>
<glyph name="L" format="2">
  <advance width="579.4166641235352"/>
  <unicode hex="004C"/>
  <anchor x="150.75" y="995.0790249433106" name="top" identifier="top"/>
  <anchor x="319.70833333333337" y="0" name="bottom" identifier="bottom"/>
  <anchor x="319.70833333333337" y="-169.25886243386242" name="below" identifier="below"/>
  <anchor x="306.779295792391" y="850" name="right" identifier="right"/>
  <anchor x="150.75" y="425.0" name="stroke" identifier="stroke"/>
  <anchor x="421.47499999999997" y="476.25" name="dotmiddle" identifier="dotmiddle"/>
  <outline>
    <contour>
      <point x="99.5" y="0" type="line"/>
      <point x="539.9166641235352" y="0" type="line"/>
      <point x="539.9166641235352" y="97.375" type="line"/>
      <point x="202.0" y="97.375" type="line"/>
      <point x="202.0" y="850" type="line"/>
      <point x="99.5" y="850" type="line"/>
    </contour>
  </outline>
</glyph>
<glyph name="P" format="2">
  <advance width="665.4404761904763"/>
  <unicode hex="0050"/>
  <anchor x="348.22023809523813" y="995.0790249433106" name="top" identifier="top"/>
  <outline>
    <contour>
      <point x="99.5" y="0" type="line"/>
      <point x="202.0" y="0" type="line"/>
      <point x="202.0" y="322.5595245361328" type="line"/>
      <point x="313.2202377319336" y="322.5595245361328" type="line"/>
      <point x="590.0038420468323" y="322.5595245361328"/>
      <point x="626.9404761904763" y="504.58117367182496"/>
      <point x="626.9404761904763" y="586.2797619047619" type="curve" smooth="yes"/>
      <point x="626.9404761904763" y="667.9783501376988"/>
      <point x="590.0038424101369" y="850.0"/>
      <point x="313.22023809523813" y="850.0" type="curve"/>
      <point x="99.5" y="850" type="line"/>
    </contour>
    <contour>
      <point x="202.0" y="419.9345245361328" type="line"/>
      <point x="202.0" y="752.625" type="line"/>
      <point x="317.13941051215795" y="752.625" type="line"/>
      <point x="481.7348528086562" y="752.625"/>
      <point x="523.9279761904763" y="667.6856410720848"/>
      <point x="523.9279761904763" y="586.2797619047619" type="curve" smooth="yes"/>
      <point x="523.9279761904763" y="504.8738827374391"/>
      <point x="481.7348531719608" y="419.93452325502375"/>
      <point x="317.1394108754625" y="419.9345240088258" type="curve"/>
    </contour>
  </outline>
</glyph>
<glyph name="Q" format="2">
  <advance width="973.9599838256836"/>
  <unicode hex="0051"/>
  <outline>
    <contour>
      <point x="925.5250000000001" y="425.00000000000006" type="curve" smooth="yes"/>
      <point x="925.525" y="670.88504034775"/>
      <point x="725.89754034775" y="865.0"/>
      <point x="480.01250000000005" y="865.0" type="curve" smooth="yes"/>
      <point x="234.12745965224997" y="865.0"/>
      <point x="34.5" y="670.88504034775"/>
      <point x="34.5" y="425.0" type="curve" smooth="yes"/>
      <point x="34.5" y="179.11495965224998"/>
      <point x="234.12745965224997" y="-15.0"/>
      <point x="480.01250000000005" y="-15.0" type="curve" smooth="yes"/>
      <point x="584.3302119076943" y="-15.0"/>
      <point x="680.3219544910992" y="19.93903431935305"/>
      <point x="756.2759552001953" y="78.95572662353516" type="curve"/>
      <point x="835.2316818237305" y="0" type="line"/>
      <point x="973.4599838256836" y="0" type="line"/>
      <point x="826.3637542724609" y="147.09622955322266" type="line"/>
      <point x="888.3655610954017" y="222.4654353296785"/>
      <point x="925.5250000000001" y="318.91437465220537"/>
    </contour>
    <contour>
      <point x="816.2625" y="425.0" type="curve" smooth="yes"/>
      <point x="816.2625" y="235.88893972888366"/>
      <point x="667.3441796279405" y="82.375"/>
      <point x="480.01250000000005" y="82.375" type="curve" smooth="yes"/>
      <point x="292.6808203720594" y="82.375"/>
      <point x="143.7625" y="235.88893972888366"/>
      <point x="143.7625" y="425.0" type="curve" smooth="yes"/>
      <point x="143.7625" y="614.1110602711163"/>
      <point x="292.6808203720594" y="767.625"/>
      <point x="480.01250000000005" y="767.625" type="curve" smooth="yes"/>
      <point x="667.3441796279405" y="767.625"/>
      <point x="816.2625" y="614.1110602711163"/>
    </contour>
  </outline>
</glyph>
<glyph name="R" format="2">
  <advance width="685.9940490722656"/>
  <unicode hex="0052"/>
  <anchor x="345.37202380952385" y="995.0790249433106" name="top" identifier="top"/>
  <anchor x="345.37202380952385" y="0" name="bottom" identifier="bottom"/>
  <anchor x="345.37202380952385" y="-169.25886243386242" name="below" identifier="below"/>
  <outline>
    <contour>
      <point x="99.5" y="0" type="line"/>
      <point x="202.0" y="0" type="line"/>
      <point x="202.0" y="332.67857360839844" type="line"/>
      <point x="329.869384765625" y="332.67857360839844" type="line"/>
      <point x="552.0071411132812" y="0" type="line"/>
      <point x="671.4940490722656" y="0" type="line"/>
      <point x="440.36163330078125" y="344.61073303222656" type="line"/>
      <point x="545.1645156625405" y="377.6441461237498"/>
      <point x="621.2440476190477" y="475.6771593072056"/>
      <point x="621.2440476190477" y="591.3392857142858" type="curve" smooth="yes"/>
      <point x="621.2440476190477" y="665.4785060934021"/>
      <point x="590.1912879974673" y="850.0"/>
      <point x="312.5833333333334" y="850.0" type="curve"/>
      <point x="99.5" y="850" type="line"/>
    </contour>
    <contour>
      <point x="202.0" y="427.55357360839844" type="line"/>
      <point x="202.0" y="752.625" type="line"/>
      <point x="317.0392538321588" y="752.625" type="line"/>
      <point x="361.6593317301518" y="752.625"/>
      <point x="518.2315476190477" y="749.6385729723443"/>
      <point x="518.2315476190477" y="590.0892857142858" type="curve" smooth="yes"/>
      <point x="518.2315476190477" y="430.539994542326"/>
      <point x="361.65932176355267" y="427.5535714059693"/>
      <point x="317.03925128902733" y="427.55357202148326" type="curve"/>
    </contour>
  </outline>
</glyph>
<glyph name="T" format="2">
  <advance width="646.9166641235352"/>
  <unicode hex="0054"/>
  <anchor x="323.45833333333337" y="995.0790249433106" name="top" identifier="top"/>
  <anchor x="323.45833333333337" y="-169.25886243386242" name="below" identifier="below"/>
  <anchor x="323.45833333333337" y="0" name="bottom" identifier="bottom"/>
  <anchor x="323.45833333333337" y="399.375" name="stroke" identifier="stroke"/>
  <outline>
    <contour>
      <point x="374.70833587646484" y="0" type="line"/>
      <point x="374.70833587646484" y="752.625" type="line"/>
      <point x="607.4166641235352" y="752.625" type="line"/>
      <point x="607.4166641235352" y="850" type="line"/>
      <point x="39.5" y="850" type="line"/>
      <point x="39.5" y="752.625" type="line"/>
      <point x="272.20833587646484" y="752.625" type="line"/>
      <point x="272.20833587646484" y="0" type="line"/>
    </contour>
  </outline>
</glyph>
<glyph name="U" format="2">
  <advance width="774.4761903146534"/>
  <unicode hex="0055"/>
  <anchor x="387.23809523809524" y="995.0790249433106" name="top" identifier="top"/>
  <anchor x="387.23809523809524" y="-169.25886243386242" name="below" identifier="below"/>
  <anchor x="694.9761904761905" y="698.3333333333334" name="horn" identifier="horn"/>
  <outline>
    <contour>
      <point x="79.5" y="337.73809814453125" type="line"/>
      <point x="79.50000000000001" y="-2.0518757096706963"/>
      <point x="336.2116389822038" y="-14.999999999999993"/>
      <point x="387.2380952380952" y="-15.0" type="curve" smooth="yes"/>
      <point x="438.2645514939866" y="-15.0"/>
      <point x="694.9761914124268" y="-2.0518786161067624"/>
      <point x="694.9761903146534" y="337.7380952380952" type="curve"/>
      <point x="694.976188659668" y="850" type="line"/>
      <point x="592.476188659668" y="850" type="line"/>
      <point x="592.476188659668" y="340.17559814453125" type="line"/>
      <point x="592.476188659668" y="115.36351466767562"/>
      <point x="462.90502886391664" y="82.375"/>
      <point x="387.23809523809524" y="82.375" type="curve" smooth="yes"/>
      <point x="311.57116161227384" y="82.37500000000001"/>
      <point x="182.0" y="115.36351176123961"/>
      <point x="182.0" y="340.17559523809524" type="curve"/>
      <point x="182.0" y="850" type="line"/>
      <point x="79.5" y="850" type="line"/>
    </contour>
  </outline>
</glyph>
<glyph name="V" format="2">
  <advance width="789.6547622680664"/>
  <unicode hex="0056"/>
  <anchor x="394.82738095238096" y="995.0790249433106" name="top" identifier="top"/>
  <anchor x="394.82738095238096" y="-169.25886243386242" name="below" identifier="below"/>
  <outline>
    <contour>
      <point x="795.1547622680664" y="850" type="line"/>
      <point x="689.000373840332" y="850" type="line"/>
      <point x="397.6415100097656" y="212.0213394165039" type="line"/>
      <point x="106.28264617919922" y="850" type="line"/>
      <point x="-5.5" y="850" type="line"/>
      <point x="394.82737731933594" y="-20.333335876464844" type="line"/>
    </contour>
  </outline>
</glyph>
<glyph name="W" format="2">
  <advance width="1178.8095245361328"/>
  <unicode hex="0057"/>
  <anchor x="589.4047619047619" y="995.0790249433106" name="top" identifier="top"/>
  <anchor x="589.4047619047619" y="-169.25886243386242" name="below" identifier="below"/>
  <outline>
    <contour>
      <point x="1176.3095245361328" y="850" type="line"/>
      <point x="1073.1810607910156" y="850" type="line"/>
      <point x="857.2943496704102" y="243.98419189453125" type="line"/>
      <point x="592.1346664428711" y="850.0" type="line"/>
      <point x="326.97499084472656" y="243.98419189453125" type="line"/>
      <point x="111.0882797241211" y="850" type="line"/>
      <point x="2.5" y="850" type="line"/>
      <point x="313.7469024658203" y="-20.333335876464844" type="line"/>
      <point x="589.4047622680664" y="608.2144012451172" type="line"/>
      <point x="865.0626220703125" y="-20.333335876464844" type="line"/>
    </contour>
  </outline>
</glyph>
<glyph name="X" format="2">
  <advance width="754.4920654296875"/>
  <unicode hex="0058"/>
  <anchor x="377.24603368365575" y="995.0790249433106" name="top" identifier="top"/>
  <outline>
    <contour>
      <point x="728.9920654296875" y="0" type="line"/>
      <point x="442.70616149902344" y="433.8365936279297" type="line"/>
      <point x="717.3997802734375" y="850" type="line"/>
      <point x="601.7601013183594" y="850" type="line"/>
      <point x="382.3059844970703" y="514.2800750732422" type="line"/>
      <point x="162.86649322509766" y="850" type="line"/>
      <point x="41.11260223388672" y="850" type="line"/>
      <point x="313.79632568359375" y="436.8540573120117" type="line"/>
      <point x="25.5" y="0" type="line"/>
      <point x="141.161865234375" y="0" type="line"/>
      <point x="374.19669342041016" y="356.4290084838867" type="line"/>
      <point x="607.2159881591797" y="0" type="line"/>
    </contour>
  </outline>
</glyph>
<glyph name="Y" format="2">
  <advance width="731.5952377319336"/>
  <unicode hex="0059"/>
  <anchor x="365.79761904761904" y="995.0790249433106" name="top" identifier="top"/>
  <anchor x="365.79761904761904" y="-169.25886243386242" name="below" identifier="below"/>
  <outline>
    <contour>
      <point x="314.54762268066406" y="0" type="line"/>
      <point x="417.04762268066406" y="0" type="line"/>
      <point x="417.04762268066406" y="364.8036880493164" type="line"/>
      <point x="711.0952377319336" y="850" type="line"/>
      <point x="598.1546325683594" y="850" type="line"/>
      <point x="368.7831268310547" y="469.8624954223633" type="line"/>
      <point x="139.41161346435547" y="850" type="line"/>
      <point x="20.5" y="850" type="line"/>
      <point x="314.54762268066406" y="364.8036880493164" type="line"/>
    </contour>
  </outline>
</glyph>
<glyph name="Z" format="2">
  <advance width="692.0595245361328"/>
  <unicode hex="005A"/>
  <anchor x="347.5297619047619" y="995.0790249433106" name="top" identifier="top"/>
  <anchor x="347.5297619047619" y="-169.25886243386242" name="below" identifier="below"/>
  <anchor x="347.5297619047619" y="425.0" name="stroke" identifier="stroke"/>
  <outline>
    <contour>
      <point x="227.31582641601562" y="97.375" type="line"/>
      <point x="637.5595245361328" y="850" type="line"/>
      <point x="72.5" y="850" type="line"/>
      <point x="72.5" y="752.625" type="line"/>
      <point x="467.7436981201172" y="752.625" type="line"/>
      <point x="57.5" y="0" type="line"/>
      <point x="632.5595245361328" y="0" type="line"/>
      <point x="632.5595245361328" y="97.375" type="line"/>
    </contour>
  </outline>
</glyph>
<glyph name="bracketleft" format="2">
  <advance width="389.5"/>
  <unicode hex="005B"/>
  <outline>
    <contour>
      <point x="99.5" y="-100.625" type="line"/>
      <point x="352.0" y="-100.625" type="line"/>
      <point x="352.0" y="-3.25" type="line"/>
      <point x="202.0" y="-3.25" type="line"/>
      <point x="202.0" y="853.25" type="line"/>
      <point x="352.0" y="853.25" type="line"/>
      <point x="352.0" y="950.625" type="line"/>
      <point x="99.5" y="950.625" type="line"/>
    </contour>
  </outline>
</glyph>
<glyph name="backslash" format="2">
  <advance width="402.24681854248047"/>
  <unicode hex="005C"/>
  <outline>
    <contour>
      <point x="114.02761840820312" y="950.625" type="line"/>
      <point x="10.5" y="950.625" type="line"/>
      <point x="265.21920013427734" y="0" type="line"/>
      <point x="368.74681854248047" y="0" type="line"/>
    </contour>
  </outline>
</glyph>
<glyph name="bracketright" format="2">
  <advance width="389.5"/>
  <unicode hex="005D"/>
  <outline>
    <contour>
      <point x="290.0" y="-100.625" type="line"/>
      <point x="290.0" y="950.625" type="line"/>
      <point x="37.5" y="950.625" type="line"/>
      <point x="37.5" y="853.25" type="line"/>
      <point x="187.5" y="853.25" type="line"/>
      <point x="187.5" y="-3.25" type="line"/>
      <point x="37.5" y="-3.25" type="line"/>
      <point x="37.5" y="-100.625" type="line"/>
    </contour>
  </outline>
</glyph>
<glyph name="power" format="2">
  <advance width="451.0119094848633"/>
  <unicode hex="005E"/>
  <outline>
    <contour>
      <point x="38.5" y="544.1666641235352" type="line"/>
      <point x="137.86573791503906" y="544.1666641235352" type="line"/>
      <point x="225.5059585571289" y="697.9031753540039" type="line"/>
      <point x="313.1461715698242" y="544.1666641235352" type="line"/>
      <point x="412.5119094848633" y="544.1666641235352" type="line"/>
      <point x="225.5059585571289" y="870.3333358764648" type="line"/>
    </contour>
  </outline>
</glyph>
<glyph name="underscore" format="2">
  <advance width="716.3214285714286"/>
  <unicode hex="005F"/>
  <outline>
    <contour>
      <point x="99.5" y="-199.5" type="line"/>
      <point x="616.8214285714286" y="-199.5" type="line"/>
      <point x="616.8214285714286" y="-99.5" type="line"/>
      <point x="99.5" y="-99.5" type="line"/>
    </contour>
  </outline>
</glyph>
<glyph name="grave" format="2">
  <advance width="417.6729965209961"/>
  <unicode hex="0060"/>
  <anchor x="268.8624274700876" y="995.0790249433106" name="center" identifier="center"/>
  <anchor x="268.8624274700876" y="904.5790249433106" name="bottom" identifier="bottom"/>
  <outline>
    <contour>
      <point x="231.87950134277344" y="904.5790252685547" type="line"/>
      <point x="318.1729965209961" y="904.5790252685547" type="line"/>
      <point x="211.40992736816406" y="1090.2456893920898" type="line"/>
      <point x="99.5" y="1090.2456893920898" type="line"/>
    </contour>
  </outline>
</glyph>
<glyph name="b" format="2">
  <advance width="775.1216666666667"/>
  <unicode hex="0062"/>
  <anchor x="422.3982142857143" y="769.8838624338624" name="top" identifier="top"/>
  <anchor x="403.82678571428573" y="-169.25886243386242" name="below" identifier="below"/>
  <outline>
    <contour>
      <point x="99.5" y="0" type="line"/>
      <point x="199.75" y="0" type="line"/>
      <point x="199.75" y="73.57598876953125" type="line"/>
      <point x="254.3415271320198" y="18.861669731364977"/>
      <point x="329.80380850491355" y="-15.00000000000001"/>
      <point x="413.11249999999995" y="-15.000000000000021" type="curve"/>
      <point x="587.1382047437502" y="-15.0"/>
      <point x="725.6216666666667" y="126.28679525624997"/>
      <point x="725.6216666666667" y="300.3125" type="curve" smooth="yes"/>
      <point x="725.6216666666667" y="474.3382047437501"/>
      <point x="587.1382047437501" y="615.625"/>
      <point x="413.1125" y="615.625" type="curve"/>
      <point x="329.905480568958" y="615.625"/>
      <point x="254.5257310264947" y="581.8459311343969"/>
      <point x="199.9499969482422" y="527.2500991821289" type="curve"/>
      <point x="199.9499969482422" y="875.625" type="line"/>
      <point x="99.5" y="875.625" type="line"/>
    </contour>
    <contour>
      <point x="625.2750000000001" y="300.3125" type="curve" smooth="yes"/>
      <point x="625.2750000000001" y="178.90558100068884"/>
      <point x="529.5053464439563" y="80.42749999999998"/>
      <point x="410.1125" y="80.42749999999998" type="curve" smooth="yes"/>
      <point x="290.71965355604374" y="80.42749999999998"/>
      <point x="194.95" y="178.90558100068884"/>
      <point x="194.95" y="300.3125" type="curve" smooth="yes"/>
      <point x="194.95" y="421.7194189993112"/>
      <point x="290.71965355604374" y="520.1975"/>
      <point x="410.1125" y="520.1975" type="curve" smooth="yes"/>
      <point x="529.5053464439563" y="520.1975"/>
      <point x="625.2750000000001" y="421.7194189993112"/>
    </contour>
  </outline>
</glyph>
<glyph name="f" format="2">
  <advance width="504.9672622680664"/>
  <unicode hex="0066"/>
  <anchor x="313.53713378684813" y="995.2925666099773" name="top" identifier="top"/>
  <outline>
    <contour>
      <point x="137.94458770751953" y="0" type="line"/>
      <point x="238.39458465576172" y="0" type="line"/>
      <point x="238.39458465576172" y="505.6746368408203" type="line"/>
      <point x="440.4672622680664" y="505.6746368408203" type="line"/>
      <point x="440.4672622680664" y="600.625" type="line"/>
      <point x="238.39458465576172" y="600.625" type="line"/>
      <point x="238.40135918796028" y="649.5840318392782" type="line"/>
      <point x="238.41039140993735" y="714.8592169582842"/>
      <point x="243.2860377647342" y="790.7308333333333"/>
      <point x="334.6615504535148" y="790.7308333333333" type="curve"/>
      <point x="356.32433906312343" y="790.7308333333333"/>
      <point x="409.928634775426" y="786.4668948260427"/>
      <point x="455.4672622680664" y="746.5707473754883" type="curve"/>
      <point x="455.4672622680664" y="849.9256896972656" type="line"/>
      <point x="419.02119675091916" y="872.6962824883873"/>
      <point x="374.4914626062346" y="885.6249999999999"/>
      <point x="326.42821712018144" y="885.6249999999999" type="curve"/>
      <point x="224.18156577813602" y="885.625"/>
      <point x="137.94458347026784" y="826.3311109044279"/>
      <point x="137.94458710646617" y="632.641369047619" type="curve"/>
      <point x="137.94458770751953" y="600.625" type="line"/>
      <point x="39.5" y="600.625" type="line"/>
      <point x="39.5" y="505.6746368408203" type="line"/>
      <point x="137.94458770751953" y="505.6746368408203" type="line"/>
    </contour>
  </outline>
</glyph>
<glyph name="h" format="2">
  <advance width="697.0766372680664"/>
  <unicode hex="0068"/>
  <anchor x="360.0383184523809" y="995.0790249433106" name="top" identifier="top"/>
  <anchor x="360.0383184523809" y="-169.25886243386242" name="below" identifier="below"/>
  <anchor x="149.725" y="995.0790249433106" name="stem" identifier="stem"/>
  <anchor x="149.725" y="745.625" name="stroke" identifier="stroke"/>
  <anchor x="149.725" y="0" name="bottom" identifier="bottom"/>
  <outline>
    <contour>
      <point x="99.5" y="0" type="line"/>
      <point x="199.9499969482422" y="0" type="line"/>
      <point x="199.9499969482422" y="313.00013323879784" type="line"/>
      <point x="199.9499969482422" y="364.6065205634677"/>
      <point x="203.94482574093496" y="524.193"/>
      <point x="359.0338184523809" y="524.193" type="curve" smooth="yes"/>
      <point x="514.1228075823975" y="524.193"/>
      <point x="518.1176368920324" y="364.6065317778199"/>
      <point x="518.1176369970897" y="313.0001403893426" type="curve"/>
      <point x="518.1176376342773" y="0" type="line"/>
      <point x="620.5766372680664" y="0" type="line"/>
      <point x="620.5766372680664" y="313.00023651123047" type="line"/>
      <point x="620.5766372680664" y="589.7753118090384"/>
      <point x="440.9740404957809" y="615.625"/>
      <point x="372.07687133881325" y="615.625" type="curve"/>
      <point x="305.5412137062598" y="615.625"/>
      <point x="244.99653675339138" y="589.770551152277"/>
      <point x="199.9499969482422" y="547.5534286499023" type="curve"/>
      <point x="199.9499969482422" y="875.625" type="line"/>
      <point x="99.5" y="875.625" type="line"/>
    </contour>
  </outline>
</glyph>
<glyph name="i" format="2">
  <advance width="317.45"/>
  <unicode hex="0069"/>
  <anchor x="158.725" y="-169.25886243386242" name="below" identifier="below"/>
  <anchor x="210.6375" y="0" name="ogonek" identifier="ogonek"/>
  <outline>
    <contour>
      <point x="228.95" y="769.8838624338624" type="curve" smooth="yes"/>
      <point x="228.95" y="808.6420947133624"/>
      <point x="197.4832322795" y="840.1088624338624"/>
      <point x="158.725" y="840.1088624338624" type="curve" smooth="yes"/>
      <point x="119.9667677205" y="840.1088624338624"/>
      <point x="88.5" y="808.6420947133624"/>
      <point x="88.5" y="769.8838624338624" type="curve" smooth="yes"/>
      <point x="88.5" y="731.1256301543624"/>
      <point x="119.9667677205" y="699.6588624338624"/>
      <point x="158.72499999999997" y="699.6588624338624" type="curve" smooth="yes"/>
      <point x="197.4832322795" y="699.6588624338624"/>
      <point x="228.95" y="731.1256301543624"/>
    </contour>
    <contour>
      <point x="106.8125" y="0" type="line"/>
      <point x="210.6375" y="0" type="line"/>
      <point x="210.6375" y="600.625" type="line"/>
      <point x="106.8125" y="600.625" type="line"/>
    </contour>
  </outline>
</glyph>
<glyph name="j" format="2">
  <advance width="319.0871612548828"/>
  <unicode hex="006A"/>
  <outline>
    <contour>
      <point x="232.5871612548828" y="769.8838624338624" type="curve" smooth="yes"/>
      <point x="232.5871612548828" y="808.6420947133624"/>
      <point x="201.1203935343828" y="840.1088624338624"/>
      <point x="162.36216125488284" y="840.1088624338624" type="curve" smooth="yes"/>
      <point x="123.60392897538281" y="840.1088624338624"/>
      <point x="92.13716125488281" y="808.6420947133624"/>
      <point x="92.13716125488281" y="769.8838624338624" type="curve" smooth="yes"/>
      <point x="92.13716125488281" y="731.1256301543624"/>
      <point x="123.60392897538281" y="699.6588624338624"/>
      <point x="162.36216125488278" y="699.6588624338624" type="curve" smooth="yes"/>
      <point x="201.1203935343828" y="699.6588624338624"/>
      <point x="232.5871612548828" y="731.1256301543624"/>
    </contour>
    <contour>
      <point x="22.471089826311356" y="-187.70083333333332" type="curve"/>
      <point x="1.127190041417407" y="-187.70083333333335"/>
      <point x="-42.722808713181166" y="-183.04172928206162"/>
      <point x="-82.5" y="-150.7924346923828" type="curve"/>
      <point x="-82.5" y="-252.2559814453125" type="line"/>
      <point x="-51.81306673409932" y="-271.7514403854607"/>
      <point x="-14.899372657788433" y="-283.12500000000006"/>
      <point x="24.804423159644728" y="-283.125" type="curve"/>
      <point x="109.82459630137669" y="-283.125"/>
      <point x="212.58716188364474" y="-241.7493586624119"/>
      <point x="212.58716104124238" y="-48.94557193746816" type="curve"/>
      <point x="212.587158203125" y="600.625" type="line"/>
      <point x="112.13716125488281" y="600.625" type="line"/>
      <point x="112.13716125488281" y="-43.036548585385276" type="line"/>
      <point x="112.13716125488281" y="-113.57542046461123"/>
      <point x="107.51285257271718" y="-187.70083333333332"/>
    </contour>
  </outline>
</glyph>
<glyph name="k" format="2">
  <advance width="613.4812393188477"/>
  <unicode hex="006B"/>
  <anchor x="311.93073270975054" y="995.0790249433106" name="top" identifier="top"/>
  <anchor x="318.17869543650795" y="0" name="bottom" identifier="bottom"/>
  <anchor x="318.17869543650795" y="-169.25886243386242" name="below" identifier="below"/>
  <anchor x="149.725" y="995.0790249433106" name="stem" identifier="stem"/>
  <outline>
    <contour>
      <point x="99.5" y="0" type="line"/>
      <point x="199.9499969482422" y="0" type="line"/>
      <point x="199.9499969482422" y="228.88560485839844" type="line"/>
      <point x="221.89480590820312" y="249.6746063232422" type="line"/>
      <point x="484.21510314941406" y="0" type="line"/>
      <point x="626.9812393188477" y="0" type="line"/>
      <point x="292.9306869506836" y="316.96912384033203" type="line"/>
      <point x="592.3569717407227" y="600.625" type="line"/>
      <point x="456.6966781616211" y="600.625" type="line"/>
      <point x="199.9499969482422" y="356.5829772949219" type="line"/>
      <point x="199.9499969482422" y="875.625" type="line"/>
      <point x="99.5" y="875.625" type="line"/>
    </contour>
  </outline>
</glyph>
<glyph name="l" format="2">
  <advance width="302.825"/>
  <unicode hex="006C"/>
  <anchor x="151.4125" y="995.0790249433106" name="top" identifier="top"/>
  <anchor x="151.4125" y="0" name="bottom" identifier="bottom"/>
  <anchor x="151.4125" y="-169.25886243386242" name="below" identifier="below"/>
  <anchor x="308.104295792391" y="850" name="right" identifier="right"/>
  <anchor x="151.4125" y="437.8125" name="stroke" identifier="stroke"/>
  <anchor x="419.42499999999995" y="437.8125" name="dotmiddle" identifier="dotmiddle"/>
  <outline>
    <contour>
      <point x="99.5" y="0" type="line"/>
      <point x="203.325" y="0" type="line"/>
      <point x="203.325" y="875.625" type="line"/>
      <point x="99.5" y="875.625" type="line"/>
    </contour>
  </outline>
</glyph>
<glyph name="n" format="2">
  <advance width="701.0766372680664"/>
  <unicode hex="006E"/>
  <anchor x="356.0383184523809" y="769.8838624338624" name="top" identifier="top"/>
  <anchor x="356.0383184523809" y="-169.25886243386242" name="below" identifier="below"/>
  <anchor x="356.0383184523809" y="0" name="bottom" identifier="bottom"/>
  <anchor x="616.5766369047618" y="0" name="right" identifier="right"/>
  <anchor x="195.95" y="0" name="lefthook" identifier="lefthook"/>
  <outline>
    <contour>
      <point x="95.5" y="0" type="line"/>
      <point x="195.9499969482422" y="0" type="line"/>
      <point x="195.9499969482422" y="313.00013323879784" type="line"/>
      <point x="195.9499969482422" y="364.6065205634677"/>
      <point x="199.94482574093496" y="524.193"/>
      <point x="355.0338184523809" y="524.193" type="curve" smooth="yes"/>
      <point x="510.1228075823975" y="524.193"/>
      <point x="514.1176368920324" y="364.6065317778199"/>
      <point x="514.1176369970897" y="313.0001403893426" type="curve"/>
      <point x="514.1176376342773" y="0" type="line"/>
      <point x="616.5766372680664" y="0" type="line"/>
      <point x="616.5766372680664" y="313.00023651123047" type="line"/>
      <point x="616.5766372680664" y="587.3856282625646"/>
      <point x="441.9321233406038" y="615.625"/>
      <point x="369.45187133881325" y="615.625" type="curve"/>
      <point x="301.70335150805226" y="615.625"/>
      <point x="240.30551692306892" y="588.2182237785853"/>
      <point x="195.75" y="543.8789749145508" type="curve"/>
      <point x="195.75" y="600.625" type="line"/>
      <point x="95.5" y="600.625" type="line"/>
    </contour>
  </outline>
</glyph>
<glyph name="o" format="2">
  <advance width="730.125"/>
  <unicode hex="006F"/>
  <anchor x="365.0625" y="769.8838624338624" name="top" identifier="top"/>
  <anchor x="365.0625" y="-169.25886243386242" name="below" identifier="below"/>
  <anchor x="365.0625" y="300.3125" name="stroke" identifier="stroke"/>
  <anchor x="551.925" y="448.95833333333337" name="horn" identifier="horn"/>
  <outline>
    <contour>
      <point x="680.625" y="300.3125" type="curve" smooth="yes"/>
      <point x="680.625" y="474.47618349875"/>
      <point x="539.2261834987501" y="615.625"/>
      <point x="365.0625" y="615.625" type="curve" smooth="yes"/>
      <point x="190.89881650125" y="615.625"/>
      <point x="49.5" y="474.47618349875"/>
      <point x="49.5" y="300.3125" type="curve" smooth="yes"/>
      <point x="49.5" y="126.14881650125"/>
      <point x="190.89881650125" y="-15.0"/>
      <point x="365.0625" y="-15.0" type="curve" smooth="yes"/>
      <point x="539.2261834987501" y="-15.0"/>
      <point x="680.625" y="126.14881650125"/>
    </contour>
    <contour>
      <point x="579.925" y="300.3125" type="curve" smooth="yes"/>
      <point x="579.925" y="179.00465386296986"/>
      <point x="484.3310749813469" y="80.42749999999998"/>
      <point x="365.0625" y="80.42749999999998" type="curve" smooth="yes"/>
      <point x="245.7939250186531" y="80.42749999999998"/>
      <point x="150.2" y="179.00465386296986"/>
      <point x="150.2" y="300.3125" type="curve" smooth="yes"/>
      <point x="150.2" y="421.62034613703014"/>
      <point x="245.7939250186531" y="520.1975"/>
      <point x="365.0625" y="520.1975" type="curve" smooth="yes"/>
      <point x="484.3310749813469" y="520.1975"/>
      <point x="579.925" y="421.62034613703014"/>
    </contour>
  </outline>
</glyph>
<glyph name="p" format="2">
  <advance width="770.1216666666667"/>
  <unicode hex="0070"/>
  <anchor x="417.3982142857143" y="769.8838624338624" name="top" identifier="top"/>
  <outline>
    <contour>
      <point x="94.5" y="-275.625" type="line"/>
      <point x="194.9499969482422" y="-275.625" type="line"/>
      <point x="194.9499969482422" y="73.37507629394531" type="line"/>
      <point x="249.5257310264947" y="18.779068865602987"/>
      <point x="324.9054805689579" y="-14.999999999999968"/>
      <point x="408.11249999999995" y="-14.999999999999979" type="curve"/>
      <point x="582.1382047437502" y="-15.0"/>
      <point x="720.6216666666667" y="126.28679525624997"/>
      <point x="720.6216666666667" y="300.3125" type="curve" smooth="yes"/>
      <point x="720.6216666666667" y="474.3382047437501"/>
      <point x="582.1382047437501" y="615.625"/>
      <point x="408.1125" y="615.625" type="curve"/>
      <point x="324.80379994247045" y="615.625"/>
      <point x="249.34152085653707" y="581.7633239792675"/>
      <point x="194.75" y="527.0510177612305" type="curve"/>
      <point x="194.75" y="600.625" type="line"/>
      <point x="94.5" y="600.625" type="line"/>
    </contour>
    <contour>
      <point x="620.2750000000001" y="300.3125" type="curve" smooth="yes"/>
      <point x="620.2750000000001" y="178.90558100068884"/>
      <point x="524.5053464439563" y="80.42749999999998"/>
      <point x="405.1125" y="80.42749999999998" type="curve" smooth="yes"/>
      <point x="285.71965355604374" y="80.42749999999998"/>
      <point x="189.95" y="178.90558100068884"/>
      <point x="189.95" y="300.3125" type="curve" smooth="yes"/>
      <point x="189.95" y="421.7194189993112"/>
      <point x="285.71965355604374" y="520.1975"/>
      <point x="405.1125" y="520.1975" type="curve" smooth="yes"/>
      <point x="524.5053464439563" y="520.1975"/>
      <point x="620.2750000000001" y="421.7194189993112"/>
    </contour>
  </outline>
</glyph>
<glyph name="q" format="2">
  <advance width="770.1216666666667"/>
  <unicode hex="0071"/>
  <outline>
    <contour>
      <point x="575.1716697184245" y="-275.625" type="line"/>
      <point x="675.6216666666667" y="-275.625" type="line"/>
      <point x="675.6216666666667" y="600.625" type="line"/>
      <point x="575.3716666666667" y="600.625" type="line"/>
      <point x="575.3716666666667" y="525.8839797973633" type="line"/>
      <point x="521.1341399451431" y="581.2565548848295"/>
      <point x="445.5535732433306" y="615.6250000000001"/>
      <point x="362.00916666666654" y="615.6250000000001" type="curve"/>
      <point x="187.98346192291635" y="615.625"/>
      <point x="49.500000000000014" y="474.33820474375"/>
      <point x="49.5" y="300.3125" type="curve" smooth="yes"/>
      <point x="49.500000000000014" y="126.28679525624992"/>
      <point x="187.98346192291663" y="-14.999999999999979"/>
      <point x="362.00916666666666" y="-15.0" type="curve"/>
      <point x="445.4510190481977" y="-15.0"/>
      <point x="520.9485714364827" y="19.28411954370405"/>
      <point x="575.1716697184245" y="74.5336685180664" type="curve"/>
    </contour>
    <contour>
      <point x="580.1716666666666" y="300.3125" type="curve" smooth="yes"/>
      <point x="580.1716666666666" y="178.90558100068884"/>
      <point x="484.4020131106229" y="80.42749999999998"/>
      <point x="365.00916666666666" y="80.42749999999998" type="curve" smooth="yes"/>
      <point x="245.61632022271039" y="80.42749999999998"/>
      <point x="149.84666666666664" y="178.90558100068884"/>
      <point x="149.84666666666664" y="300.3125" type="curve" smooth="yes"/>
      <point x="149.84666666666664" y="421.7194189993112"/>
      <point x="245.61632022271039" y="520.1975"/>
      <point x="365.00916666666666" y="520.1975" type="curve" smooth="yes"/>
      <point x="484.4020131106229" y="520.1975"/>
      <point x="580.1716666666666" y="421.7194189993112"/>
    </contour>
  </outline>
</glyph>
<glyph name="r" format="2">
  <advance width="459.4280014038086"/>
  <unicode hex="0072"/>
  <anchor x="265.2139995272197" y="769.8838624338624" name="top" identifier="top"/>
  <anchor x="150.725" y="0" name="bottom" identifier="bottom"/>
  <anchor x="200.95" y="-169.25886243386242" name="below" identifier="below"/>
  <outline>
    <contour>
      <point x="100.5" y="0" type="line"/>
      <point x="200.9499969482422" y="0" type="line"/>
      <point x="200.9499969482422" y="330.2753611999109" type="line"/>
      <point x="200.9499969482422" y="482.5766964059881"/>
      <point x="278.2394457254371" y="512.6975"/>
      <point x="340.2496458333333" y="512.6975" type="curve"/>
      <point x="366.42732049975876" y="512.6975"/>
      <point x="398.0917872615996" y="507.51539695541726"/>
      <point x="429.9280014038086" y="491.10389709472656" type="curve"/>
      <point x="429.9280014038086" y="591.0533752441406" type="line"/>
      <point x="397.2705048005757" y="604.2286922264419"/>
      <point x="366.36452995226165" y="608.125"/>
      <point x="341.39739583333335" y="608.125" type="curve"/>
      <point x="287.0543758074008" y="608.125"/>
      <point x="237.59434960671607" y="587.0521371702616"/>
      <point x="200.75" y="552.6275100708008" type="curve"/>
      <point x="200.75" y="600.625" type="line"/>
      <point x="100.5" y="600.625" type="line"/>
    </contour>
  </outline>
</glyph>
<glyph name="v" format="2">
  <advance width="673.1218719482422"/>
  <unicode hex="0076"/>
  <anchor x="336.5609375" y="769.8838624338624" name="top" identifier="top"/>
  <anchor x="336.5609375" y="-169.25886243386242" name="below" identifier="below"/>
  <outline>
    <contour>
      <point x="636.6218719482422" y="600.625" type="line"/>
      <point x="531.4674606323242" y="600.625" type="line"/>
      <point x="339.33959197998047" y="201.42700958251953" type="line"/>
      <point x="147.21172332763672" y="600.625" type="line"/>
      <point x="36.5" y="600.625" type="line"/>
      <point x="336.5609359741211" y="-20.333335876464844" type="line"/>
    </contour>
  </outline>
</glyph>
<glyph name="w" format="2">
  <advance width="961.1845245361328"/>
  <unicode hex="0077"/>
  <anchor x="480.5922619047619" y="769.8838624338624" name="top" identifier="top"/>
  <anchor x="480.5922619047619" y="-169.25886243386242" name="below" identifier="below"/>
  <outline>
    <contour>
      <point x="924.6845245361328" y="600.625" type="line"/>
      <point x="822.4649276733398" y="600.625" type="line"/>
      <point x="668.9804763793945" y="212.86901092529297" type="line"/>
      <point x="483.2659606933594" y="595.4534301757812" type="line"/>
      <point x="297.5514450073242" y="212.86901092529297" type="line"/>
      <point x="144.0669937133789" y="600.625" type="line"/>
      <point x="36.5" y="600.625" type="line"/>
      <point x="283.28189849853516" y="-20.333335876464844" type="line"/>
      <point x="480.5922622680664" y="384.50940704345703" type="line"/>
      <point x="677.9026260375977" y="-20.333335876464844" type="line"/>
    </contour>
  </outline>
</glyph>
<glyph name="x" format="2">
  <advance width="638.8095245361328"/>
  <unicode hex="0078"/>
  <anchor x="319.40476263137094" y="769.8838624338624" name="top" identifier="top"/>
  <outline>
    <contour>
      <point x="606.3095245361328" y="0" type="line"/>
      <point x="383.64249420166016" y="313.04856872558594" type="line"/>
      <point x="588.3002471923828" y="600.625" type="line"/>
      <point x="473.2727355957031" y="600.625" type="line"/>
      <point x="320.3595275878906" y="382.9364776611328" type="line"/>
      <point x="167.4718017578125" y="600.625" type="line"/>
      <point x="46.35631561279297" y="600.625" type="line"/>
      <point x="253.0922622680664" y="310.07994842529297" type="line"/>
      <point x="32.5" y="0" type="line"/>
      <point x="147.5700225830078" y="0" type="line"/>
      <point x="316.3748474121094" y="240.22547912597656" type="line"/>
      <point x="485.1515350341797" y="0" type="line"/>
    </contour>
  </outline>
</glyph>
<glyph name="y" format="2">
  <advance width="690.4224700927734"/>
  <unicode hex="0079"/>
  <anchor x="346.7112351190476" y="769.8838624338624" name="top" identifier="top"/>
  <anchor x="500.3168526785714" y="-169.25886243386242" name="below" identifier="below"/>
  <outline>
    <contour>
      <point x="349.46336364746094" y="154.67792510986328" type="line"/>
      <point x="147.23717498779297" y="600.625" type="line"/>
      <point x="36.5" y="600.625" type="line"/>
      <point x="294.53804779052734" y="33.681739807128906" type="line"/>
      <point x="154.38284301757812" y="-275.625" type="line"/>
      <point x="258.96370697021484" y="-275.625" type="line"/>
      <point x="653.9224700927734" y="600.625" type="line"/>
      <point x="549.7338562011719" y="600.625" type="line"/>
    </contour>
  </outline>
</glyph>
<glyph name="z" format="2">
  <advance width="607.9925384521484"/>
  <unicode hex="007A"/>
  <anchor x="303.54761904761904" y="769.8838624338624" name="top" identifier="top"/>
  <anchor x="303.54761904761904" y="-169.25886243386242" name="below" identifier="below"/>
  <anchor x="303.54761904761904" y="300.3125" name="stroke" identifier="stroke"/>
  <outline>
    <contour>
      <point x="236.1930694580078" y="95.42749786376953" type="line"/>
      <point x="547.4925384521484" y="600.625" type="line"/>
      <point x="82.0" y="600.625" type="line"/>
      <point x="82.0" y="505.3641662597656" type="line"/>
      <point x="370.9021682739258" y="505.3641662597656" type="line"/>
      <point x="59.5" y="0" type="line"/>
      <point x="540.0952377319336" y="0" type="line"/>
      <point x="540.0952377319336" y="95.42749786376953" type="line"/>
    </contour>
  </outline>
</glyph>
<glyph name="braceleft" format="2">
  <advance width="364.75892857142856"/>
  <unicode hex="007B"/>
  <outline>
    <contour>
      <point x="302.25892639160156" y="-13.01190185546875" type="line" smooth="yes"/>
      <point x="285.3378235332649" y="-13.011903085379494"/>
      <point x="230.5610117942329" y="-7.425554206405209"/>
      <point x="230.56101193726323" y="83.10032665045469" type="curve"/>
      <point x="230.56101220260223" y="251.03706255456365" type="line"/>
      <point x="230.56101229823844" y="311.56653364125515"/>
      <point x="230.5610118904607" y="376.3301761773631"/>
      <point x="162.0602569580078" y="424.9971389770508" type="curve"/>
      <point x="230.5610117192913" y="473.6735594137737"/>
      <point x="230.5610118745875" y="538.4319564059437"/>
      <point x="230.5610119702261" y="598.9629363775426" type="curve"/>
      <point x="230.56101223556504" y="766.8996728190514" type="line"/>
      <point x="230.56101237859536" y="857.4255538431007"/>
      <point x="285.33782571309183" y="863.0119047619047"/>
      <point x="302.25892857142856" y="863.0119047619047" type="curve"/>
      <point x="302.25892639160156" y="950.625" type="line"/>
      <point x="297.25892639160156" y="950.625" type="line"/>
      <point x="132.6761603000461" y="950.625"/>
      <point x="128.06101188257114" y="801.515082785246"/>
      <point x="128.06101198376157" y="737.4702380952381" type="curve"/>
      <point x="128.0610122316032" y="580.6078328454254" type="line"/>
      <point x="128.0610123859915" y="482.89333102339094"/>
      <point x="71.1888127458528" y="468.6875"/>
      <point x="40.50000000000003" y="468.6875" type="curve"/>
      <point x="40.5" y="381.3125" type="line" smooth="yes"/>
      <point x="71.18881274585277" y="381.3125"/>
      <point x="128.06101178683684" y="367.10666933991354"/>
      <point x="128.06101194122513" y="269.3921680337054" type="curve"/>
      <point x="128.06101220235053" y="104.12226612477593" type="line"/>
      <point x="128.06101252228578" y="-98.36922739659391"/>
      <point x="258.47943992340197" y="-100.625"/>
      <point x="297.25892639160156" y="-100.625" type="curve" smooth="yes"/>
      <point x="302.25892639160156" y="-100.625" type="line"/>
    </contour>
  </outline>
</glyph>
<glyph name="bar" format="2">
  <advance width="299.0"/>
  <unicode hex="007C"/>
  <outline>
    <contour>
      <point x="99.5" y="-100.625" type="line"/>
      <point x="199.5" y="-100.625" type="line"/>
      <point x="199.5" y="950.625" type="line"/>
      <point x="99.5" y="950.625" type="line"/>
    </contour>
  </outline>
</glyph>
<glyph name="braceright" format="2">
  <advance width="364.75892857142856"/>
  <unicode hex="007D"/>
  <outline>
    <contour>
      <point x="62.5" y="-13.011904761904702" type="curve"/>
      <point x="62.50000217982699" y="-100.625" type="line"/>
      <point x="67.50000217982699" y="-100.625" type="line"/>
      <point x="232.08276827138246" y="-100.625"/>
      <point x="236.6979166888574" y="48.48491721475395"/>
      <point x="236.69791658766695" y="112.52976190476193" type="curve"/>
      <point x="236.69791633982533" y="269.3921671545746" type="line"/>
      <point x="236.69791618543707" y="367.10666897660906"/>
      <point x="293.5701158255758" y="381.3125"/>
      <point x="324.25892857142856" y="381.3125" type="curve"/>
      <point x="324.25892857142856" y="468.6875" type="line" smooth="yes"/>
      <point x="293.5701158255758" y="468.6875"/>
      <point x="236.6979167845917" y="482.89333066008646"/>
      <point x="236.69791663020345" y="580.6078319662946" type="curve"/>
      <point x="236.69791636907803" y="745.8777338752241" type="line"/>
      <point x="236.69791604914275" y="948.3692273965939"/>
      <point x="106.27948864802661" y="950.625"/>
      <point x="67.50000217982699" y="950.625" type="curve" smooth="yes"/>
      <point x="62.50000217982699" y="950.625" type="line"/>
      <point x="62.50000217982699" y="863.0119018554688" type="line" smooth="yes"/>
      <point x="79.42110503816366" y="863.0119030853795"/>
      <point x="134.19791677719564" y="857.4255542064052"/>
      <point x="134.19791663416532" y="766.8996733495453" type="curve"/>
      <point x="134.1979163688263" y="598.9629374454364" type="line"/>
      <point x="134.19791627319012" y="538.4334663587448"/>
      <point x="134.19791668096786" y="473.6698238226369"/>
      <point x="202.69867161342074" y="425.0028610229492" type="curve"/>
      <point x="134.19791685213727" y="376.3264405862263"/>
      <point x="134.19791669684108" y="311.56804359405635"/>
      <point x="134.1979166012025" y="251.03706362245745" type="curve"/>
      <point x="134.1979163358635" y="83.10032718094857" type="line"/>
      <point x="134.1979161928332" y="-7.425553843100815"/>
      <point x="79.42110285833672" y="-13.011904761904702"/>
    </contour>
  </outline>
</glyph>
<glyph name="tilde" format="2">
  <advance width="761.25"/>
  <unicode hex="007E"/>
  <outline>
    <contour>
      <point x="256.2857131958008" y="420.2797193877551" type="curve"/>
      <point x="290.71766077991225" y="420.27971938775494"/>
      <point x="311.12268729502466" y="409.658190713632"/>
      <point x="353.9250547446298" y="385.2303601272571" type="curve"/>
      <point x="358.26761001245467" y="382.75201113127474" type="line"/>
      <point x="413.43542225864957" y="351.2670711228121"/>
      <point x="454.17474591830506" y="329.72028061224484"/>
      <point x="513.9642846243723" y="329.72028061224484" type="curve"/>
      <point x="579.7566591260722" y="329.72028061224484"/>
      <point x="639.8840736809202" y="354.16776675870136"/>
      <point x="685.75" y="394.48048400878906" type="curve"/>
      <point x="685.75" y="519.8273696899414" type="line"/>
      <point x="648.0320660646934" y="465.3897134626318"/>
      <point x="585.1308266899161" y="429.720280612245"/>
      <point x="513.9642846243721" y="429.72028061224495" type="curve"/>
      <point x="479.53233704026064" y="429.72028061224484"/>
      <point x="459.12730871506204" y="440.3418093863659"/>
      <point x="416.3249412654569" y="464.76963997274083" type="curve"/>
      <point x="411.98238599763204" y="467.2479889687232" type="line"/>
      <point x="356.81457375143714" y="498.7329289771858"/>
      <point x="316.07525190186806" y="520.279719387755"/>
      <point x="256.2857131958008" y="520.279719387755" type="curve"/>
      <point x="190.49333869410086" y="520.279719387755"/>
      <point x="130.3659291521989" y="495.8322376473024"/>
      <point x="84.5" y="455.51952362060547" type="curve"/>
      <point x="84.5" y="330.1726303100586" type="line"/>
      <point x="122.21793246251175" y="384.61028755781587"/>
      <point x="185.1191711302567" y="420.2797193877551"/>
    </contour>
  </outline>
</glyph>
<glyph name="inv_exclamation" format="2">
  <advance width="324.69047619047615"/>
  <unicode hex="00A1"/>
  <outline>
    <contour>
      <point x="79.5" y="532.7797619047619" type="curve" smooth="yes"/>
      <point x="79.5" y="487.0562306645238"/>
      <point x="116.62170685499999" y="449.93452380952385"/>
      <point x="162.34523809523807" y="449.93452380952385" type="curve" smooth="yes"/>
      <point x="208.06876933547616" y="449.93452380952385"/>
      <point x="245.19047619047615" y="487.0562306645238"/>
      <point x="245.19047619047615" y="532.7797619047619" type="curve" smooth="yes"/>
      <point x="245.1904761904762" y="578.503293145"/>
      <point x="208.0687693354762" y="615.625"/>
      <point x="162.3452380952381" y="615.625" type="curve" smooth="yes"/>
      <point x="116.62170685500001" y="615.625"/>
      <point x="79.50000000000003" y="578.503293145"/>
    </contour>
    <contour>
      <point x="122.49107397170295" y="366.06626892089844" type="line"/>
      <point x="98.11011541457404" y="-264.375" type="line"/>
      <point x="226.58036077590216" y="-264.375" type="line"/>
      <point x="202.19940221877326" y="366.06626892089844" type="line"/>
    </contour>
  </outline>
</glyph>
<glyph name="cent" format="2">
  <advance width="589.4119033813477"/>
  <unicode hex="00A2"/>
  <outline>
    <contour>
      <point x="294.49181365966797" y="0" type="line"/>
      <point x="396.99181365966797" y="0" type="line"/>
      <point x="396.99181365966797" y="111.85749816894531" type="line"/>
      <point x="453.48021497402044" y="118.2714304585302"/>
      <point x="505.44885442615634" y="138.68500732812308"/>
      <point x="548.9119033813477" y="169.7084732055664" type="curve"/>
      <point x="548.9119033813477" y="284.17171478271484" type="line"/>
      <point x="499.9900644498181" y="236.49994981654334"/>
      <point x="432.80235156700917" y="207.06250000000006"/>
      <point x="358.72098214285717" y="207.06250000000003" type="curve"/>
      <point x="238.7472584867412" y="207.06249999999997"/>
      <point x="141.91666666666669" y="304.7288558345602"/>
      <point x="141.91666666666669" y="425.0" type="curve" smooth="yes"/>
      <point x="141.91666666666669" y="545.2711441654398"/>
      <point x="238.74725848674126" y="642.9375"/>
      <point x="358.72098214285717" y="642.9375" type="curve"/>
      <point x="432.80234449807404" y="642.9375"/>
      <point x="499.99004967369603" y="613.5000569255415"/>
      <point x="548.9119033813477" y="565.8214263916016" type="curve"/>
      <point x="548.9119033813477" y="680.2867279052734" type="line"/>
      <point x="505.44885441314193" y="711.31205362034"/>
      <point x="453.48021497189563" y="731.7239956120416"/>
      <point x="396.99181365966797" y="738.1353836059569" type="curve"/>
      <point x="396.99181365966797" y="850" type="line"/>
      <point x="294.49181365966797" y="850" type="line"/>
      <point x="294.49181365966797" y="733.9772720336914" type="line"/>
      <point x="149.05182213944886" y="704.8318320942205"/>
      <point x="39.499999999999986" y="578.2744863505768"/>
      <point x="39.5" y="425.0" type="curve" smooth="yes"/>
      <point x="39.499999999999986" y="271.7255136494233"/>
      <point x="149.0518221394488" y="145.1681679057795"/>
      <point x="294.49181365966797" y="116.02184295654297" type="curve"/>
    </contour>
  </outline>
</glyph>
<glyph name="pound" format="2">
  <advance width="676.2916641235352"/>
  <unicode hex="00A3"/>
  <outline>
    <contour>
      <point x="40.5" y="0" type="line"/>
      <point x="607.7916641235352" y="0" type="line"/>
      <point x="607.7916641235352" y="97.375" type="line"/>
      <point x="202.82384490966797" y="97.375" type="line"/>
      <point x="243.0000000158849" y="142.25976742558868"/>
      <point x="243.0" y="192.35193400485127"/>
      <point x="243.0" y="242.71567171522852" type="curve"/>
      <point x="243.0" y="376.3125" type="line"/>
      <point x="473.9722213745117" y="376.3125" type="line"/>
      <point x="473.9722213745117" y="473.6875" type="line"/>
      <point x="243.0" y="473.6875" type="line"/>
      <point x="243.0" y="532.102024166456" type="line"/>
      <point x="243.0" y="724.1675542750964"/>
      <point x="340.33739174450585" y="767.625"/>
      <point x="425.14583333333337" y="767.625" type="curve"/>
      <point x="491.14242353431735" y="767.625"/>
      <point x="550.7119011698246" y="739.2479024383409"/>
      <point x="592.7916641235352" y="693.7632217407227" type="curve"/>
      <point x="592.7916641235352" y="809.3717575073242" type="line"/>
      <point x="545.639118419982" y="844.3233877896753"/>
      <point x="487.2880632860622" y="865.0"/>
      <point x="424.14583333333326" y="865.0" type="curve"/>
      <point x="328.39658643471853" y="865.0"/>
      <point x="140.50000000000003" y="816.9817526684395"/>
      <point x="140.5" y="531.3541666666666" type="curve"/>
      <point x="140.5" y="473.6875" type="line"/>
      <point x="40.5" y="473.6875" type="line"/>
      <point x="40.5" y="376.3125" type="line"/>
      <point x="140.5" y="376.3125" type="line"/>
      <point x="140.5" y="231.58280066622643" type="line"/>
      <point x="140.5" y="117.85883936505556"/>
      <point x="81.54097133445788" y="97.37499999999999"/>
      <point x="40.5" y="97.37499999999999" type="curve"/>
    </contour>
  </outline>
</glyph>
<glyph name="currency" format="2">
  <advance width="734.0887756347656"/>
  <unicode hex="00A4"/>
  <outline>
    <contour>
      <point x="145.21067810058594" y="132.4556121826172" type="line"/>
      <point x="219.3246612548828" y="206.56959533691406" type="line"/>
      <point x="261.479208841786" y="177.98008012096125"/>
      <point x="312.3269034036256" y="161.27976190476187"/>
      <point x="367.04438781738276" y="161.27976190476187" type="curve" smooth="yes"/>
      <point x="421.7614355776585" y="161.27976190476187"/>
      <point x="472.60875524874155" y="177.97981358008963"/>
      <point x="514.7629699707031" y="206.57073974609375" type="curve"/>
      <point x="588.8780975341797" y="132.4556121826172" type="line"/>
      <point x="659.5887756347656" y="203.16629028320312" type="line"/>
      <point x="585.4747924804688" y="277.2802734375" type="line"/>
      <point x="614.0595095970083" y="319.42021331240164"/>
      <point x="630.7646259126209" y="370.27465582357667"/>
      <point x="630.7646259126209" y="425.0" type="curve" smooth="yes"/>
      <point x="630.7646259126209" y="479.7260719322257"/>
      <point x="614.0590652936842" y="530.5811392454467"/>
      <point x="585.4736480712891" y="572.7185821533203" type="curve"/>
      <point x="659.5887756347656" y="646.8337097167969" type="line"/>
      <point x="588.8780975341797" y="717.5443878173828" type="line"/>
      <point x="514.7641143798828" y="643.4304046630859" type="line"/>
      <point x="472.60956679297954" y="672.0199198790388"/>
      <point x="421.76187223114" y="688.7202380952381"/>
      <point x="367.0443878173828" y="688.7202380952381" type="curve" smooth="yes"/>
      <point x="312.3273400571071" y="688.7202380952381"/>
      <point x="261.480020386024" y="672.0201864199104"/>
      <point x="219.3258056640625" y="643.4292602539062" type="curve"/>
      <point x="145.21067810058594" y="717.5443878173828" type="line"/>
      <point x="74.5" y="646.8337097167969" type="line"/>
      <point x="148.61398315429688" y="572.7197265625" type="line"/>
      <point x="120.02926603775731" y="530.5797866875982"/>
      <point x="103.32414972214468" y="479.7253441764232"/>
      <point x="103.32414972214468" y="425.0" type="curve" smooth="yes"/>
      <point x="103.32414972214468" y="370.27392806777436"/>
      <point x="120.0297103410814" y="319.4188607545534"/>
      <point x="148.61512756347656" y="277.2814178466797" type="curve"/>
      <point x="74.5" y="203.16629028320312" type="line"/>
    </contour>
    <contour>
      <point x="530.7646259126209" y="425.0" type="curve" smooth="yes"/>
      <point x="530.7646259126209" y="334.64034151726185"/>
      <point x="457.4040463001209" y="261.2797619047618"/>
      <point x="367.0443878173828" y="261.27976190476187" type="curve" smooth="yes"/>
      <point x="276.68472933464466" y="261.27976190476187"/>
      <point x="203.32414972214468" y="334.6403415172619"/>
      <point x="203.32414972214468" y="425.0" type="curve" smooth="yes"/>
      <point x="203.32414972214468" y="515.3596584827382"/>
      <point x="276.6847293346447" y="588.7202380952381"/>
      <point x="367.0443878173828" y="588.7202380952381" type="curve" smooth="yes"/>
      <point x="457.40404630012097" y="588.7202380952381"/>
      <point x="530.7646259126209" y="515.3596584827382"/>
    </contour>
  </outline>
</glyph>
<glyph name="yen" format="2">
  <advance width="741.5952377319336"/>
  <unicode hex="00A5"/>
  <outline>
    <contour>
      <point x="124.15646362304688" y="238.61637115478516" type="line"/>
      <point x="319.54762268066406" y="238.61637115478516" type="line"/>
      <point x="319.54762268066406" y="0" type="line"/>
      <point x="422.04762268066406" y="0" type="line"/>
      <point x="422.04762268066406" y="238.61637115478516" type="line"/>
      <point x="617.4387741088867" y="238.61637115478516" type="line"/>
      <point x="617.4387741088867" y="327.42530059814453" type="line"/>
      <point x="422.04762268066406" y="327.42530059814453" type="line"/>
      <point x="422.04762268066406" y="364.8036880493164" type="line"/>
      <point x="431.8074722290039" y="380.9080352783203" type="line"/>
      <point x="617.4387741088867" y="380.9080352783203" type="line"/>
      <point x="617.4387741088867" y="469.7169647216797" type="line"/>
      <point x="485.6290969848633" y="469.7169647216797" type="line"/>
      <point x="716.0952377319336" y="850" type="line"/>
      <point x="603.1546325683594" y="850" type="line"/>
      <point x="373.7831268310547" y="469.8624954223633" type="line"/>
      <point x="144.41161346435547" y="850" type="line"/>
      <point x="25.5" y="850" type="line"/>
      <point x="255.9661407470703" y="469.7169647216797" type="line"/>
      <point x="124.15646362304688" y="469.7169647216797" type="line"/>
      <point x="124.15646362304688" y="380.9080352783203" type="line"/>
      <point x="309.7877731323242" y="380.9080352783203" type="line"/>
      <point x="319.54762268066406" y="364.8036880493164" type="line"/>
      <point x="319.54762268066406" y="327.42530059814453" type="line"/>
      <point x="124.15646362304688" y="327.42530059814453" type="line"/>
    </contour>
  </outline>
</glyph>
<glyph name="brokenbar" format="2">
  <advance width="299.0"/>
  <unicode hex="00A6"/>
  <outline>
    <contour>
      <point x="199.5" y="950.625" type="line"/>
      <point x="99.5" y="950.625" type="line"/>
      <point x="99.5" y="474.375" type="line"/>
      <point x="199.5" y="474.375" type="line"/>
    </contour>
    <contour>
      <point x="99.5" y="-100.625" type="line"/>
      <point x="199.5" y="-100.625" type="line"/>
      <point x="199.5" y="375.625" type="line"/>
      <point x="99.5" y="375.625" type="line"/>
    </contour>
  </outline>
</glyph>
<glyph name="section" format="2">
  <advance width="574.8214285714284"/>
  <unicode hex="00A7"/>
  <outline>
    <contour>
      <point x="510.1547619047619" y="6.735704113188177" type="curve"/>
      <point x="510.1547619047619" y="65.97523800293973"/>
      <point x="479.16718368615557" y="117.95647117376868"/>
      <point x="430.07386271158845" y="153.04119110107422" type="curve"/>
      <point x="493.9126398312485" y="191.4499547063947"/>
      <point x="535.3214285714284" y="254.35029903685884"/>
      <point x="535.3214285714284" y="329.39166666666677" type="curve"/>
      <point x="535.3214285714284" y="457.71961638134894"/>
      <point x="422.4044705031048" y="508.21800154758125"/>
      <point x="352.14388775160086" y="536.5541558442105" type="curve"/>
      <point x="269.15087099680363" y="570.0253118780871" type="line"/>
      <point x="204.24730820280274" y="596.2009753540979"/>
      <point x="166.60416666666657" y="618.7676256982646"/>
      <point x="166.60416666666657" y="664.4158333333334" type="curve"/>
      <point x="166.60416666666657" y="722.6547485507333"/>
      <point x="227.8765762645034" y="766.64"/>
      <point x="308.4607142857142" y="766.64" type="curve"/>
      <point x="375.5717071331303" y="766.6399996951593"/>
      <point x="436.26706288364545" y="746.3918176183341"/>
      <point x="480.15476481119777" y="713.7072525024414" type="curve"/>
      <point x="480.15476481119777" y="822.3459701538086" type="line"/>
      <point x="434.55885068130044" y="850.5488229852423"/>
      <point x="374.19895688229155" y="865.0"/>
      <point x="307.99404761904754" y="865.0" type="curve"/>
      <point x="174.73018783484866" y="865.0"/>
      <point x="66.66666666666659" y="778.7199674350712"/>
      <point x="66.66666666666657" y="661.8416666666667" type="curve"/>
      <point x="66.66666666666657" y="602.6021327769151"/>
      <point x="97.65424371562122" y="550.6209004419817"/>
      <point x="146.74756876627595" y="515.5361862182617" type="curve"/>
      <point x="82.90878874017994" y="477.1274160734602"/>
      <point x="41.5" y="414.22707174299615"/>
      <point x="41.5" y="339.1857041131882" type="curve"/>
      <point x="41.49999999999993" y="210.857754398506"/>
      <point x="154.41695951948378" y="160.35936868221438"/>
      <point x="224.67754227703995" y="132.0232144005918" type="curve"/>
      <point x="307.6705655670824" y="98.55205575165468" type="line"/>
      <point x="372.574128366674" y="72.37639228950641"/>
      <point x="410.21726190476187" y="49.80974508159026"/>
      <point x="410.21726190476187" y="4.161537446521521" type="curve"/>
      <point x="410.21726190476187" y="-54.07737777087844"/>
      <point x="348.944852306925" y="-98.06262922014508"/>
      <point x="268.3607142857142" y="-98.06262922014508" type="curve"/>
      <point x="191.62481429658345" y="-98.06262894522382"/>
      <point x="122.95760683442074" y="-73.64811006057727"/>
      <point x="76.66666376023059" y="-35.17390332903179" type="curve"/>
      <point x="76.66666666666657" y="-146.38880920410156" type="line"/>
      <point x="125.2633630810187" y="-179.84121991401906"/>
      <point x="193.3874448998108" y="-196.4226292201451"/>
      <point x="268.82738095238085" y="-196.4226292201451" type="curve"/>
      <point x="402.0912407365797" y="-196.4226292201451"/>
      <point x="510.1547619047619" y="-110.14259665521632"/>
    </contour>
    <contour>
      <point x="141.43749999999997" y="341.99320411318826" type="curve"/>
      <point x="141.43749999999997" y="400.36492622768174"/>
      <point x="183.00427143227458" y="447.1068691679499"/>
      <point x="243.56846110026032" y="469.2896194458008" type="curve"/>
      <point x="327.2400567945548" y="435.45097763385286" type="line"/>
      <point x="390.4725983479406" y="409.8783408659127"/>
      <point x="435.3839285714286" y="385.30965099442386"/>
      <point x="435.3839285714285" y="326.58416666666665" type="curve"/>
      <point x="435.3839285714285" y="268.2123694410318"/>
      <point x="393.8170501651076" y="221.4703813194074"/>
      <point x="333.25296274820954" y="199.28775024414062" type="curve"/>
      <point x="249.58137880502562" y="233.126389484509" type="line"/>
      <point x="186.34883782447727" y="258.69902766888373"/>
      <point x="141.4374999999999" y="283.26771978543104"/>
    </contour>
  </outline>
</glyph>
<glyph name="diaeresis" format="2">
  <advance width="534.5225198412699"/>
  <unicode hex="00A8"/>
  <anchor x="267.2612599206349" y="995.0790249433106" name="center" identifier="center"/>
  <anchor x="267.2612599206349" y="1169.3695806563364" name="top" identifier="top"/>
  <outline>
    <contour>
      <point x="238.52251984126985" y="995.0790249433106" type="curve" smooth="yes"/>
      <point x="238.52251984126985" y="1033.443333352633"/>
      <point x="207.37556832995733" y="1064.5902848639455"/>
      <point x="169.01125992063493" y="1064.5902848639455" type="curve" smooth="yes"/>
      <point x="130.64695151131252" y="1064.5902848639455"/>
      <point x="99.5" y="1033.443333352633"/>
      <point x="99.5" y="995.0790249433106" type="curve" smooth="yes"/>
      <point x="99.5" y="956.7147165339882"/>
      <point x="130.6469515113125" y="925.5677650226758"/>
      <point x="169.01125992063493" y="925.5677650226758" type="curve" smooth="yes"/>
      <point x="207.37556832995733" y="925.5677650226758"/>
      <point x="238.52251984126985" y="956.7147165339882"/>
    </contour>
    <contour>
      <point x="435.02251984126985" y="995.0790249433106" type="curve" smooth="yes"/>
      <point x="435.02251984126985" y="1033.443333352633"/>
      <point x="403.87556832995733" y="1064.5902848639455"/>
      <point x="365.5112599206349" y="1064.5902848639455" type="curve" smooth="yes"/>
      <point x="327.1469515113125" y="1064.5902848639455"/>
      <point x="296.0" y="1033.443333352633"/>
      <point x="296.0" y="995.0790249433106" type="curve" smooth="yes"/>
      <point x="296.0" y="956.7147165339882"/>
      <point x="327.1469515113125" y="925.5677650226758"/>
      <point x="365.5112599206349" y="925.5677650226758" type="curve" smooth="yes"/>
      <point x="403.87556832995733" y="925.5677650226758"/>
      <point x="435.02251984126985" y="956.7147165339882"/>
    </contour>
  </outline>
</glyph>
<glyph name="copyright" format="2">
  <advance width="949.0"/>
  <unicode hex="00A9"/>
  <outline>
    <contour>
      <point x="914.5" y="425.0" type="curve" smooth="yes"/>
      <point x="914.5" y="667.8426088"/>
      <point x="717.3426088" y="865.0"/>
      <point x="474.5" y="865.0" type="curve" smooth="yes"/>
      <point x="231.6573912" y="865.0"/>
      <point x="34.5" y="667.8426088000001"/>
      <point x="34.5" y="425.0" type="curve" smooth="yes"/>
      <point x="34.49999999999994" y="182.15739120000003"/>
      <point x="231.6573911999999" y="-14.999999999999943"/>
      <point x="474.5" y="-15.0" type="curve" smooth="yes"/>
      <point x="717.3426087999999" y="-15.000000000000057"/>
      <point x="914.5" y="182.1573911999999"/>
    </contour>
    <contour>
      <point x="820.5922193877551" y="425.0" type="curve" smooth="yes"/>
      <point x="820.592219387755" y="233.9865058147627"/>
      <point x="665.5134941852372" y="78.90778061224484"/>
      <point x="474.5" y="78.90778061224489" type="curve" smooth="yes"/>
      <point x="283.4865058147627" y="78.90778061224489"/>
      <point x="128.4077806122449" y="233.98650581476278"/>
      <point x="128.4077806122449" y="425.0" type="curve" smooth="yes"/>
      <point x="128.4077806122449" y="616.0134941852373"/>
      <point x="283.4865058147628" y="771.0922193877551"/>
      <point x="474.5" y="771.0922193877551" type="curve" smooth="yes"/>
      <point x="665.5134941852373" y="771.0922193877551"/>
      <point x="820.5922193877551" y="616.0134941852373"/>
    </contour>
    <contour>
      <point x="486.1024146002487" y="581.4084532038622" type="curve"/>
      <point x="541.3506534536152" y="581.40845444078"/>
      <point x="591.7556267021548" y="560.7912601859896"/>
      <point x="629.8702018466412" y="526.9108013081252" type="curve"/>
      <point x="629.8702018466412" y="636.1566013304539" type="line"/>
      <point x="588.4880824748461" y="662.8457286604681"/>
      <point x="538.4901792318057" y="678.1342865371955"/>
      <point x="484.66666666666663" y="678.1342865371955" type="curve"/>
      <point x="342.57464718331283" y="678.1342865371955"/>
      <point x="227.22648672698728" y="566.3179699105574"/>
      <point x="227.22648672698728" y="425.0" type="curve" smooth="yes"/>
      <point x="227.22648672698728" y="283.6820300894426"/>
      <point x="342.57464718331283" y="171.86571346280448"/>
      <point x="484.66666666666674" y="171.86571346280445" type="curve"/>
      <point x="538.4901792318057" y="171.86571346280445"/>
      <point x="588.4880824748461" y="187.15427133953187"/>
      <point x="629.8702018466412" y="213.84401728566652" type="curve"/>
      <point x="629.8702018466412" y="323.0786822178271" type="line"/>
      <point x="591.7556618173433" y="289.2087545790742"/>
      <point x="541.3506732773455" y="268.5915467961378"/>
      <point x="486.1024146002487" y="268.5915467961378" type="curve"/>
      <point x="399.91280898736255" y="268.5915467961378"/>
      <point x="330.2782002080786" y="338.6632500714465"/>
      <point x="330.2782002080786" y="425.0" type="curve" smooth="yes"/>
      <point x="330.2782002080786" y="511.3367499285535"/>
      <point x="399.91280898736267" y="581.4084532038622"/>
    </contour>
  </outline>
</glyph>
<glyph name="ordinal_a" format="2">
  <advance width="494.1763413429888"/>
  <unicode hex="00AA"/>
  <outline>
    <contour>
      <point x="322.93411353326616" y="484.64285714285717" type="line"/>
      <point x="403.6763411139563" y="484.64285714285717" type="line"/>
      <point x="403.6763411139563" y="667.4338075136809" type="line"/>
      <point x="403.6763411139563" y="749.1043330740729"/>
      <point x="394.65852005274337" y="859.1244239631336"/>
      <point x="237.56598645331627" y="859.1244239631336" type="curve"/>
      <point x="185.9185044720805" y="859.1244239631336"/>
      <point x="139.0905275303183" y="847.3194749908216"/>
      <point x="104.71626626291584" y="825.9342807470928" type="curve"/>
      <point x="104.71626626291584" y="735.9164326048117" type="line"/>
      <point x="132.0355714973137" y="762.8877280752918"/>
      <point x="178.87036752243668" y="779.6543010752688"/>
      <point x="232.14915657620423" y="779.6543010752688" type="curve"/>
      <point x="320.06651645533987" y="779.6543010752688"/>
      <point x="320.83047496348394" y="730.4784796095939"/>
      <point x="320.8304723406633" y="707.9105896839898" type="curve"/>
      <point x="320.8304717595676" y="702.9105896839898" type="line"/>
      <point x="287.1047953137913" y="710.1968120961578"/>
      <point x="256.28670915983196" y="711.659417448431"/>
      <point x="237.26417805020037" y="711.659417448431" type="curve"/>
      <point x="146.16310196794348" y="711.659417448431"/>
      <point x="73.5" y="673.4162436724098"/>
      <point x="73.5" y="593.5889253140773" type="curve"/>
      <point x="73.5" y="519.777143578323"/>
      <point x="139.96515720828813" y="475.51843317972356"/>
      <point x="217.84306311353401" y="475.51843317972356" type="curve"/>
      <point x="259.8125482398918" y="475.51843317972356"/>
      <point x="297.4377496535899" y="488.7804665693507"/>
      <point x="322.93411353326616" y="511.49435481058293" type="curve"/>
    </contour>
    <contour>
      <point x="160.09055528123497" y="594.5321284652252" type="curve"/>
      <point x="160.09055528123497" y="625.5686623573472"/>
      <point x="190.13810287810986" y="644.0561262662802"/>
      <point x="241.3327851839054" y="644.0561262662802" type="curve"/>
      <point x="256.4342566047967" y="644.0561262662802"/>
      <point x="287.4882099835598" y="642.8120420057127"/>
      <point x="320.8304717595676" y="634.4880840811312" type="curve"/>
      <point x="320.8304717595676" y="632.1000651697959" type="line"/>
      <point x="320.8304735328156" y="580.1402234475838"/>
      <point x="274.50942767686354" y="548.1838613671275"/>
      <point x="224.17969985432723" y="548.1838613671275" type="curve"/>
      <point x="188.7737560841802" y="548.1838613671275"/>
      <point x="160.09055528123497" y="564.7029725703501"/>
    </contour>
    <contour>
      <point x="82.62442396313367" y="343.21371527777785" type="line"/>
      <point x="403.6763413429888" y="343.21371527777785" type="line"/>
      <point x="403.6763413429888" y="426.07199900793654" type="line"/>
      <point x="82.62442396313367" y="426.07199900793654" type="line"/>
    </contour>
  </outline>
</glyph>
<glyph name="angleleft_dbl" format="2">
  <advance width="597.1258926391602"/>
  <unicode hex="00AB"/>
  <outline>
    <contour>
      <point x="153.62407684326172" y="300.3125" type="line"/>
      <point x="311.0413131713867" y="529.7470245361328" type="line"/>
      <point x="215.4984359741211" y="529.7470245361328" type="line"/>
      <point x="38.5" y="300.3125" type="line"/>
      <point x="215.4984359741211" y="70.87797546386719" type="line"/>
      <point x="311.0413131713867" y="70.87797546386719" type="line"/>
    </contour>
    <contour>
      <point x="380.20865631103516" y="300.3125" type="line"/>
      <point x="537.6258926391602" y="529.7470245361328" type="line"/>
      <point x="442.08301544189453" y="529.7470245361328" type="line"/>
      <point x="265.08457946777344" y="300.3125" type="line"/>
      <point x="442.08301544189453" y="70.87797546386719" type="line"/>
      <point x="537.6258926391602" y="70.87797546386719" type="line"/>
    </contour>
  </outline>
</glyph>
<glyph name="logicalnot" format="2">
  <advance width="656.0714263916016"/>
  <unicode hex="00AC"/>
  <outline>
    <contour>
      <point x="454.07142639160156" y="102.55952453613281" type="line"/>
      <point x="556.5714263916016" y="102.55952453613281" type="line"/>
      <point x="556.5714263916016" y="476.25" type="line"/>
      <point x="40.5" y="476.25" type="line"/>
      <point x="40.5" y="378.875" type="line"/>
      <point x="454.07142639160156" y="378.875" type="line"/>
    </contour>
  </outline>
</glyph>
<glyph name="registered" format="2">
  <advance width="949.0"/>
  <unicode hex="00AE"/>
  <outline>
    <contour>
      <point x="914.5" y="425.0" type="curve" smooth="yes"/>
      <point x="914.5" y="667.8426088"/>
      <point x="717.3426088" y="865.0"/>
      <point x="474.5" y="865.0" type="curve" smooth="yes"/>
      <point x="231.6573912" y="865.0"/>
      <point x="34.5" y="667.8426088000001"/>
      <point x="34.5" y="425.0" type="curve" smooth="yes"/>
      <point x="34.49999999999994" y="182.15739120000003"/>
      <point x="231.6573911999999" y="-14.999999999999943"/>
      <point x="474.5" y="-15.0" type="curve" smooth="yes"/>
      <point x="717.3426088" y="-15.000000000000057"/>
      <point x="914.4999999999999" y="182.1573911999999"/>
    </contour>
    <contour>
      <point x="821.729655612245" y="425.0" type="curve" smooth="yes"/>
      <point x="821.7296556122449" y="233.35873767817466"/>
      <point x="666.1412623218253" y="77.77034438775502"/>
      <point x="474.5" y="77.77034438775507" type="curve" smooth="yes"/>
      <point x="282.8587376781747" y="77.77034438775507"/>
      <point x="127.27034438775507" y="233.35873767817475"/>
      <point x="127.27034438775507" y="425.0" type="curve" smooth="yes"/>
      <point x="127.27034438775507" y="616.6412623218253"/>
      <point x="282.85873767817475" y="772.2296556122449"/>
      <point x="474.5" y="772.2296556122449" type="curve" smooth="yes"/>
      <point x="666.1412623218253" y="772.2296556122449"/>
      <point x="821.729655612245" y="616.6412623218253"/>
    </contour>
    <contour>
      <point x="318.54651329281705" y="175.27034438775507" type="line"/>
      <point x="420.1069309332398" y="175.27034438775507" type="line"/>
      <point x="420.1069309332398" y="350.0862543132514" type="line"/>
      <point x="460.07529135167977" y="350.0862543132514" type="line"/>
      <point x="571.9497352837609" y="175.27034438775507" type="line"/>
      <point x="685.6483763095719" y="175.27034438775507" type="line"/>
      <point x="561.8607075862388" y="367.0154517679535" type="line"/>
      <point x="615.2625488830463" y="393.5982133764369"/>
      <point x="651.9883677131568" y="448.7480392715803"/>
      <point x="651.9883677131568" y="512.407954565755" type="curve" smooth="yes"/>
      <point x="651.9883677131568" y="574.8388368596941"/>
      <point x="624.6540081940898" y="674.7296556122449"/>
      <point x="448.28653263199453" y="674.7296556122449" type="curve"/>
      <point x="318.54651329281705" y="674.7296556122449" type="line"/>
    </contour>
    <contour>
      <point x="420.1069309332398" y="443.6744260446622" type="line"/>
      <point x="420.1069309332398" y="578.2472601987512" type="line"/>
      <point x="468.23310512826504" y="578.2472601987512" type="line"/>
      <point x="535.4347032042939" y="578.2472601987512"/>
      <point x="549.9201489631567" y="537.0677188727776"/>
      <point x="549.9201489631567" y="510.9608435144378" type="curve" smooth="yes"/>
      <point x="549.9201489631567" y="484.85396815609795"/>
      <point x="535.4347047070629" y="443.67442811871877"/>
      <point x="468.233106890419" y="443.67442691016413" type="curve"/>
    </contour>
  </outline>
</glyph>
<glyph name="macron" format="2">
  <advance width="524.6845238095239"/>
  <unicode hex="00AF"/>
  <anchor x="262.3422619047619" y="995.0790249433106" name="center" identifier="center"/>
  <anchor x="262.3422619047619" y="1160.2362481103553" name="top" identifier="top"/>
  <outline>
    <contour>
      <point x="99.5" y="950.8209892290249" type="line"/>
      <point x="425.1845238095238" y="950.8209892290249" type="line"/>
      <point x="425.1845238095238" y="1039.3370606575963" type="line"/>
      <point x="99.5" y="1039.3370606575963" type="line"/>
    </contour>
  </outline>
</glyph>
<glyph name="degree" format="2">
  <advance width="457.24999999999994"/>
  <unicode hex="00B0"/>
  <outline>
    <contour>
      <point x="386.74999999999994" y="706.875" type="curve" smooth="yes"/>
      <point x="386.74999999999994" y="794.1465625375"/>
      <point x="315.89656253749996" y="865.0"/>
      <point x="228.625" y="865.0" type="curve" smooth="yes"/>
      <point x="141.35343746249998" y="865.0"/>
      <point x="70.5" y="794.1465625375"/>
      <point x="70.5" y="706.875" type="curve" smooth="yes"/>
      <point x="70.5" y="619.6034374625"/>
      <point x="141.35343746249998" y="548.75"/>
      <point x="228.62499999999994" y="548.75" type="curve" smooth="yes"/>
      <point x="315.8965625374999" y="548.75"/>
      <point x="386.7499999999999" y="619.6034374625"/>
    </contour>
    <contour>
      <point x="295.27932539682536" y="706.875" type="curve" smooth="yes"/>
      <point x="295.27932539682536" y="667.5358789523452"/>
      <point x="265.78010875137676" y="635.6471408730159"/>
      <point x="228.625" y="635.6471408730159" type="curve" smooth="yes"/>
      <point x="191.46989124862318" y="635.6471408730159"/>
      <point x="161.9706746031746" y="667.5358789523452"/>
      <point x="161.9706746031746" y="706.875" type="curve" smooth="yes"/>
      <point x="161.9706746031746" y="746.2141210476548"/>
      <point x="191.46989124862318" y="778.1028591269841"/>
      <point x="228.625" y="778.1028591269841" type="curve" smooth="yes"/>
      <point x="265.78010875137676" y="778.1028591269841"/>
      <point x="295.27932539682536" y="746.2141210476548"/>
    </contour>
  </outline>
</glyph>
<glyph name="plusminus" format="2">
  <advance width="661.1340789794922"/>
  <unicode hex="00B1"/>
  <outline>
    <contour>
      <point x="281.1920394897461" y="274.9924850463867" type="line"/>
      <point x="379.9420394897461" y="274.9924850463867" type="line"/>
      <point x="379.9420394897461" y="451.6845245361328" type="line"/>
      <point x="556.6340789794922" y="451.6845245361328" type="line"/>
      <point x="556.6340789794922" y="550.4345245361328" type="line"/>
      <point x="379.9420394897461" y="550.4345245361328" type="line"/>
      <point x="379.9420394897461" y="727.1265640258789" type="line"/>
      <point x="281.1920394897461" y="727.1265640258789" type="line"/>
      <point x="281.1920394897461" y="550.4345245361328" type="line"/>
      <point x="104.5" y="550.4345245361328" type="line"/>
      <point x="104.5" y="451.6845245361328" type="line"/>
      <point x="281.1920394897461" y="451.6845245361328" type="line"/>
    </contour>
    <contour>
      <point x="104.5" y="122.87343750000002" type="line"/>
      <point x="556.6340773809524" y="122.87343750000002" type="line"/>
      <point x="556.6340773809524" y="221.62343750000002" type="line"/>
      <point x="104.5" y="221.62343750000002" type="line"/>
    </contour>
  </outline>
</glyph>
<glyph name="sup_two" format="2">
  <advance width="521.2838592529297"/>
  <unicode hex="00B2"/>
  <outline>
    <contour>
      <point x="74.5" y="303.57142639160156" type="line"/>
      <point x="437.7838592529297" y="303.57142639160156" type="line"/>
      <point x="437.7838592529297" y="388.77455139160156" type="line"/>
      <point x="249.15689849853516" y="388.77455139160156" type="line"/>
      <point x="350.5747309767322" y="519.9312897932612" type="line"/>
      <point x="387.61007261743475" y="567.8265612311512"/>
      <point x="424.92671554807646" y="617.3692354894331"/>
      <point x="424.92671554807646" y="687.6334325396825" type="curve"/>
      <point x="424.9267155480764" y="782.5625217860434"/>
      <point x="347.00809821254325" y="859.6428571428571"/>
      <point x="250.98871951633032" y="859.6428571428571" type="curve"/>
      <point x="191.88214570505258" y="859.6428571428571"/>
      <point x="138.87304530150803" y="839.9554252796664"/>
      <point x="102.93762969970703" y="805.7982177734375" type="curve"/>
      <point x="102.93762969970703" y="701.2064590454102" type="line"/>
      <point x="130.87398917271094" y="745.0071314814928"/>
      <point x="184.19906375256912" y="774.6090773809524"/>
      <point x="245.43812427823514" y="774.6090773809524" type="curve"/>
      <point x="295.83917121741706" y="774.6090773809525"/>
      <point x="336.7593100610597" y="739.6194537965013"/>
      <point x="336.7593100610597" y="689.1282242063493" type="curve"/>
      <point x="336.7593100610598" y="649.7431456467699"/>
      <point x="314.15429312071154" y="619.2011291985033"/>
      <point x="294.2162187177691" y="592.9422693366736" type="curve"/>
    </contour>
  </outline>
</glyph>
<glyph name="sup_three" format="2">
  <advance width="492.69728088378906"/>
  <unicode hex="00B3"/>
  <outline>
    <contour>
      <point x="218.7995315863162" y="378.62168296977353" type="curve"/>
      <point x="161.25700538010307" y="378.62168296977353"/>
      <point x="110.38521699534715" y="402.5770467097489"/>
      <point x="79.50000108991351" y="439.21783665248324" type="curve"/>
      <point x="79.5" y="338.51026916503906" type="line"/>
      <point x="131.19299196463803" y="298.91742737914564"/>
      <point x="194.52014911565806" y="293.92857142857133"/>
      <point x="223.8798887291733" y="293.92857142857133" type="curve"/>
      <point x="334.83884732002923" y="293.92857142857133"/>
      <point x="424.76870675638423" y="376.8516767789178"/>
      <point x="424.76870675638423" y="479.4632227891156" type="curve"/>
      <point x="424.76870675638423" y="565.5875576405912"/>
      <point x="367.6901340813007" y="630.3438866481623"/>
      <point x="287.71868896484375" y="654.5803604125977" type="curve"/>
      <point x="428.19728088378906" y="850" type="line"/>
      <point x="92.18452453613281" y="850" type="line"/>
      <point x="92.18452453613281" y="764.796875" type="line"/>
      <point x="268.6306915283203" y="764.796875" type="line"/>
      <point x="130.04534149169922" y="574.7569427490234" type="line"/>
      <point x="157.52742769193486" y="582.9465654947359"/>
      <point x="186.3756290517109" y="584.8770840370291"/>
      <point x="207.46322206250665" y="584.8770840370291" type="curve"/>
      <point x="281.01179749568433" y="584.8770840370291"/>
      <point x="335.08120675638423" y="542.3936470320218"/>
      <point x="335.08120675638423" y="481.7493835034013" type="curve"/>
      <point x="335.08120675638423" y="422.94606383619845"/>
      <point x="283.03128671816137" y="378.62168296977353"/>
    </contour>
  </outline>
</glyph>
<glyph name="acute" format="2">
  <advance width="417.6729965209961"/>
  <unicode hex="00B4"/>
  <anchor x="148.81056801513162" y="995.0790249433106" name="center" identifier="center"/>
  <anchor x="148.81056801513162" y="904.5790249433106" name="bottom" identifier="bottom"/>
  <anchor x="148.81056801513162" y="1216.8533775354463" name="top" identifier="top"/>
  <outline>
    <contour>
      <point x="185.79349517822266" y="904.5790252685547" type="line"/>
      <point x="318.1729965209961" y="1090.2456893920898" type="line"/>
      <point x="206.26306915283203" y="1090.2456893920898" type="line"/>
      <point x="99.5" y="904.5790252685547" type="line"/>
    </contour>
  </outline>
</glyph>
<glyph name="micron" format="2">
  <advance width="720.7016372680664"/>
  <unicode hex="00B5"/>
  <outline>
    <contour>
      <point x="199.9499996177939" y="290.28319629803286" type="curve"/>
      <point x="199.9499969482422" y="600.625" type="line"/>
      <point x="99.5" y="600.625" type="line"/>
      <point x="99.5" y="-275.625" type="line"/>
      <point x="199.9499969482422" y="-275.625" type="line"/>
      <point x="199.9499969482422" y="44.742218017578125" type="line"/>
      <point x="242.04780781131274" y="7.563444778527199"/>
      <point x="297.33511774652914" y="-14.999999999999975"/>
      <point x="357.85081845238085" y="-14.999999999999993" type="curve" smooth="yes"/>
      <point x="420.7930768686261" y="-15.000000000000014"/>
      <point x="478.0792421758988" y="9.409220757423252"/>
      <point x="520.7516403198242" y="49.28362274169922" type="curve"/>
      <point x="520.7516403198242" y="0" type="line"/>
      <point x="621.2016372680664" y="0" type="line"/>
      <point x="621.2016372680664" y="600.625" type="line"/>
      <point x="520.7516403198242" y="600.625" type="line"/>
      <point x="520.7516403198242" y="290.28319087984437" type="line"/>
      <point x="520.7516403198242" y="114.72099321107393"/>
      <point x="431.5282504321161" y="80.42749999999998"/>
      <point x="360.3508184523809" y="80.42749999999998" type="curve" smooth="yes"/>
      <point x="289.1733864726457" y="80.4275"/>
      <point x="199.95000112797507" y="114.7209968441189"/>
    </contour>
  </outline>
</glyph>
<glyph name="pilcrow" format="2">
  <advance width="717.4702380952381"/>
  <unicode hex="00B6"/>
  <outline>
    <contour>
      <point x="303.22023809523813" y="-185.71428680419922" type="line"/>
      <point x="400.59523809523813" y="-185.71428680419922" type="line"/>
      <point x="400.59523809523813" y="752.625" type="line"/>
      <point x="520.5952380952381" y="752.625" type="line"/>
      <point x="520.5952380952381" y="-185.71428680419922" type="line"/>
      <point x="617.9702380952381" y="-185.71428680419922" type="line"/>
      <point x="617.9702380952381" y="850" type="line"/>
      <point x="353.22023809523813" y="850.0" type="line"/>
      <point x="76.43663378033938" y="850.0"/>
      <point x="39.5" y="667.9783501376988"/>
      <point x="39.5" y="586.2797619047619" type="curve" smooth="yes"/>
      <point x="39.500000000000014" y="440.7286014220238"/>
      <point x="157.6690776124999" y="322.5595238095238"/>
      <point x="303.2202380952381" y="322.5595238095238" type="curve"/>
    </contour>
  </outline>
</glyph>
<glyph name="interpunct" format="2">
  <advance width="332.69047619047615"/>
  <unicode hex="00B7"/>
  <outline>
    <contour>
      <point x="249.19047619047615" y="425.0" type="curve" smooth="yes"/>
      <point x="249.19047619047615" y="470.7235312402381"/>
      <point x="212.0687693354762" y="507.8452380952381"/>
      <point x="166.34523809523807" y="507.8452380952381" type="curve" smooth="yes"/>
      <point x="120.621706855" y="507.8452380952381"/>
      <point x="83.5" y="470.7235312402381"/>
      <point x="83.5" y="425.0" type="curve" smooth="yes"/>
      <point x="83.5" y="379.2764687597619"/>
      <point x="120.62170685499997" y="342.1547619047619"/>
      <point x="166.34523809523807" y="342.1547619047619" type="curve" smooth="yes"/>
      <point x="212.0687693354762" y="342.1547619047619"/>
      <point x="249.19047619047615" y="379.2764687597619"/>
    </contour>
  </outline>
</glyph>
<glyph name="cedilla" format="2">
  <advance width="282.6657302856446"/>
  <unicode hex="00B8"/>
  <anchor x="139.95323028564454" y="0" name="top" identifier="top"/>
  <outline>
    <contour>
      <point x="163.36595515336947" y="-161.30991666666662" type="curve"/>
      <point x="163.36595515336947" y="-192.8159786712564"/>
      <point x="136.55748545019105" y="-215.64521924603176"/>
      <point x="103.50323028564455" y="-215.64521924603176" type="curve"/>
      <point x="91.52335032896812" y="-215.64521924603176"/>
      <point x="49.51679046901094" y="-213.97186436741197"/>
      <point x="18.5" y="-189.84512329101562" type="curve"/>
      <point x="18.5" y="-270.6886978149414" type="line"/>
      <point x="51.408997550335016" y="-287.59330784197783"/>
      <point x="84.043499491673" y="-290.625"/>
      <point x="103.50323028564452" y="-290.625" type="curve"/>
      <point x="180.61039201035783" y="-290.625"/>
      <point x="243.1657302856446" y="-232.72974227893124"/>
      <point x="243.1657302856446" y="-161.48491666666663" type="curve"/>
      <point x="243.16573108181763" y="-107.74559138875584"/>
      <point x="210.27992412210392" y="-62.897702914346944"/>
      <point x="163.17626953125" y="-43.166542053222656" type="curve"/>
      <point x="182.79944610595703" y="0.8977508544921875" type="line"/>
      <point x="100.88581848144531" y="0.8977508544921875" type="line"/>
      <point x="47.39899444580078" y="-119.2081298828125" type="line"/>
      <point x="68.59732969016093" y="-108.514219422001"/>
      <point x="90.23611014229456" y="-106.87461408730152"/>
      <point x="101.00323028564455" y="-106.87461408730152" type="curve"/>
      <point x="135.56098306066224" y="-106.8746140873015"/>
      <point x="163.36595515336947" y="-129.19111433449925"/>
    </contour>
  </outline>
</glyph>
<glyph name="sup_one" format="2">
  <advance width="502.7750244140625"/>
  <unicode hex="00B9"/>
  <outline>
    <contour>
      <point x="230.1281280517578" y="303.57142639160156" type="line"/>
      <point x="323.2750244140625" y="303.57142639160156" type="line"/>
      <point x="323.2750244140625" y="850" type="line"/>
      <point x="156.79553985595703" y="850" type="line"/>
      <point x="110.5" y="764.796875" type="line"/>
      <point x="230.1281280517578" y="764.796875" type="line"/>
    </contour>
  </outline>
</glyph>
<glyph name="ordinal_o" format="2">
  <advance width="534.9101382488479"/>
  <unicode hex="00BA"/>
  <outline>
    <contour>
      <point x="459.41013824884794" y="667.3214285714286" type="curve" smooth="yes"/>
      <point x="459.41013824884794" y="773.2643143863364"/>
      <point x="373.3979549393317" y="859.1244239631336"/>
      <point x="267.45506912442397" y="859.1244239631336" type="curve" smooth="yes"/>
      <point x="161.51218330951613" y="859.1244239631336"/>
      <point x="75.5" y="773.2643143863364"/>
      <point x="75.5" y="667.3214285714286" type="curve" smooth="yes"/>
      <point x="75.5" y="561.3785427565208"/>
      <point x="161.51218330951613" y="475.51843317972356"/>
      <point x="267.45506912442397" y="475.51843317972356" type="curve" smooth="yes"/>
      <point x="373.3979549393317" y="475.51843317972356"/>
      <point x="459.41013824884794" y="561.3785427565208"/>
    </contour>
    <contour>
      <point x="372.133064516129" y="667.3214285714286" type="curve" smooth="yes"/>
      <point x="372.133064516129" y="607.1276504857639"/>
      <point x="325.8202284242175" y="558.2871831797236"/>
      <point x="267.45506912442397" y="558.2871831797236" type="curve" smooth="yes"/>
      <point x="209.08990982463044" y="558.2871831797236"/>
      <point x="162.7770737327189" y="607.1276504857639"/>
      <point x="162.7770737327189" y="667.3214285714286" type="curve" smooth="yes"/>
      <point x="162.7770737327189" y="727.5152066570934"/>
      <point x="209.08990982463044" y="776.3556739631337"/>
      <point x="267.45506912442397" y="776.3556739631337" type="curve" smooth="yes"/>
      <point x="325.8202284242175" y="776.3556739631337"/>
      <point x="372.133064516129" y="727.5152066570934"/>
    </contour>
    <contour>
      <point x="84.77649769585253" y="343.21371527777785" type="line"/>
      <point x="450.1336405529954" y="343.21371527777785" type="line"/>
      <point x="450.1336405529954" y="426.07199900793654" type="line"/>
      <point x="84.77649769585253" y="426.07199900793654" type="line"/>
    </contour>
  </outline>
</glyph>
<glyph name="angleright_dbl" format="2">
  <advance width="598.1258926391602"/>
  <unicode hex="00BB"/>
  <outline>
    <contour>
      <point x="559.6258926391602" y="300.3125" type="line"/>
      <point x="382.62745666503906" y="529.7470245361328" type="line"/>
      <point x="287.08457946777344" y="529.7470245361328" type="line"/>
      <point x="444.50181579589844" y="300.3125" type="line"/>
      <point x="287.08457946777344" y="70.87797546386719" type="line"/>
      <point x="382.62745666503906" y="70.87797546386719" type="line"/>
    </contour>
    <contour>
      <point x="333.0413131713867" y="300.3125" type="line"/>
      <point x="156.04287719726562" y="529.7470245361328" type="line"/>
      <point x="60.5" y="529.7470245361328" type="line"/>
      <point x="217.917236328125" y="300.3125" type="line"/>
      <point x="60.5" y="70.87797546386719" type="line"/>
      <point x="156.04287719726562" y="70.87797546386719" type="line"/>
    </contour>
  </outline>
</glyph>
<glyph name="one_over_four" format="2">
  <advance width="1054.1682624588075"/>
  <unicode hex="00BC"/>
  <outline>
    <contour>
      <point x="147.2580743099009" y="0" type="line"/>
      <point x="258.0477166438853" y="0" type="line"/>
      <point x="874.4762673641001" y="850" type="line"/>
      <point x="763.6866250301157" y="850" type="line"/>
    </contour>
    <contour>
      <point x="195.1281280517578" y="303.57142639160156" type="line"/>
      <point x="288.2750244140625" y="303.57142639160156" type="line"/>
      <point x="288.2750244140625" y="850" type="line"/>
      <point x="121.79553985595703" y="850" type="line"/>
      <point x="75.5" y="764.796875" type="line"/>
      <point x="195.1281280517578" y="764.796875" type="line"/>
    </contour>
    <contour>
      <point x="555.0254020462098" y="134.67633819580078" type="line"/>
      <point x="847.5198249588075" y="134.67633819580078" type="line"/>
      <point x="847.5198249588075" y="0" type="line"/>
      <point x="937.2073249588075" y="0" type="line"/>
      <point x="937.2073249588075" y="134.67633819580078" type="line"/>
      <point x="1004.6682624588075" y="134.67633819580078" type="line"/>
      <point x="1004.6682624588075" y="216.66190338134766" type="line"/>
      <point x="937.2073249588075" y="216.66190338134766" type="line"/>
      <point x="937.2073249588075" y="377.60523223876953" type="line"/>
      <point x="847.5198249588075" y="377.60523223876953" type="line"/>
      <point x="847.5198249588075" y="216.66190338134766" type="line"/>
      <point x="704.1573447952333" y="216.66190338134766" type="line"/>
      <point x="909.3750037918153" y="546.4285736083984" type="line"/>
      <point x="808.8359870681825" y="546.4285736083984" type="line"/>
    </contour>
  </outline>
</glyph>
<glyph name="one_over_two" format="2">
  <advance width="1112.9887618789735"/>
  <unicode hex="00BD"/>
  <outline>
    <contour>
      <point x="147.2580743099009" y="0" type="line"/>
      <point x="258.0477166438853" y="0" type="line"/>
      <point x="874.4762673641001" y="850" type="line"/>
      <point x="763.6866250301157" y="850" type="line"/>
    </contour>
    <contour>
      <point x="195.1281280517578" y="303.57142639160156" type="line"/>
      <point x="288.2750244140625" y="303.57142639160156" type="line"/>
      <point x="288.2750244140625" y="850" type="line"/>
      <point x="121.79553985595703" y="850" type="line"/>
      <point x="75.5" y="764.796875" type="line"/>
      <point x="195.1281280517578" y="764.796875" type="line"/>
    </contour>
    <contour>
      <point x="668.2049026260438" y="0" type="line"/>
      <point x="1031.4887618789735" y="0" type="line"/>
      <point x="1031.4887618789735" y="85.203125" type="line"/>
      <point x="842.861801124579" y="85.203125" type="line"/>
      <point x="944.2796327473397" y="216.35985643373704" type="line"/>
      <point x="981.3149754238726" y="264.2551270706643"/>
      <point x="1018.6316181741204" y="313.7978069180046"/>
      <point x="1018.6316181741204" y="384.06200396825403" type="curve"/>
      <point x="1018.6316181741201" y="478.9910932146149"/>
      <point x="940.713000838587" y="556.0714285714287"/>
      <point x="844.6936221423741" y="556.0714285714287" type="curve"/>
      <point x="785.5870483310964" y="556.0714285714287"/>
      <point x="732.5779490160633" y="536.383997742886"/>
      <point x="696.6425323257508" y="502.22679138183594" type="curve"/>
      <point x="696.6425323257508" y="397.6350326538086" type="line"/>
      <point x="724.5788927870337" y="441.4357044595603"/>
      <point x="777.903966378613" y="471.03764880952383"/>
      <point x="839.1430269042789" y="471.03764880952394" type="curve"/>
      <point x="889.5440738434609" y="471.03764880952394"/>
      <point x="930.4642126871036" y="436.04802522507265"/>
      <point x="930.4642126871036" y="385.5567956349207" type="curve"/>
      <point x="930.4642126871036" y="346.1717170753413"/>
      <point x="907.8591957895579" y="315.62970286327356"/>
      <point x="887.9211213866155" y="289.3708430014439" type="curve"/>
    </contour>
  </outline>
</glyph>
<glyph name="three_over_four" format="2">
  <advance width="1126.1293906936708"/>
  <unicode hex="00BE"/>
  <outline>
    <contour>
      <point x="219.2192025447642" y="0" type="line"/>
      <point x="330.00884487874856" y="0" type="line"/>
      <point x="946.4373955989633" y="850" type="line"/>
      <point x="835.647753264979" y="850" type="line"/>
    </contour>
    <contour>
      <point x="218.7995315863162" y="378.62168296977353" type="curve"/>
      <point x="161.25700538010307" y="378.62168296977353"/>
      <point x="110.38521699534715" y="402.5770467097489"/>
      <point x="79.5000010899135" y="439.21783665248324" type="curve"/>
      <point x="79.5" y="338.51026916503906" type="line"/>
      <point x="131.19299196463803" y="298.91742737914564"/>
      <point x="194.52014911565806" y="293.92857142857133"/>
      <point x="223.8798887291733" y="293.92857142857133" type="curve"/>
      <point x="334.83884732002923" y="293.92857142857133"/>
      <point x="424.76870675638423" y="376.8516767789178"/>
      <point x="424.76870675638423" y="479.4632227891156" type="curve"/>
      <point x="424.76870675638423" y="565.5875576405912"/>
      <point x="367.6901340813007" y="630.3438866481623"/>
      <point x="287.71868896484375" y="654.5803604125977" type="curve"/>
      <point x="428.19728088378906" y="850" type="line"/>
      <point x="92.18452453613281" y="850" type="line"/>
      <point x="92.18452453613281" y="764.796875" type="line"/>
      <point x="268.6306915283203" y="764.796875" type="line"/>
      <point x="130.04534149169922" y="574.7569427490234" type="line"/>
      <point x="157.52742769193486" y="582.9465654947359"/>
      <point x="186.3756290517109" y="584.8770840370291"/>
      <point x="207.46322206250665" y="584.8770840370291" type="curve"/>
      <point x="281.01179749568433" y="584.8770840370291"/>
      <point x="335.08120675638423" y="542.3936470320218"/>
      <point x="335.08120675638423" y="481.7493835034013" type="curve"/>
      <point x="335.08120675638423" y="422.94606383619845"/>
      <point x="283.03128671816137" y="378.62168296977353"/>
    </contour>
    <contour>
      <point x="626.9865302810731" y="134.67633819580078" type="line"/>
      <point x="919.4809531936708" y="134.67633819580078" type="line"/>
      <point x="919.4809531936708" y="0" type="line"/>
      <point x="1009.1684531936708" y="0" type="line"/>
      <point x="1009.1684531936708" y="134.67633819580078" type="line"/>
      <point x="1076.6293906936708" y="134.67633819580078" type="line"/>
      <point x="1076.6293906936708" y="216.66190338134766" type="line"/>
      <point x="1009.1684531936708" y="216.66190338134766" type="line"/>
      <point x="1009.1684531936708" y="377.60523223876953" type="line"/>
      <point x="919.4809531936708" y="377.60523223876953" type="line"/>
      <point x="919.4809531936708" y="216.66190338134766" type="line"/>
      <point x="776.1184730300965" y="216.66190338134766" type="line"/>
      <point x="981.3361320266786" y="546.4285736083984" type="line"/>
      <point x="880.7971153030458" y="546.4285736083984" type="line"/>
    </contour>
  </outline>
</glyph>
<glyph name="inv_question" format="2">
  <advance width="510.04761904761915"/>
  <unicode hex="00BF"/>
  <outline>
    <contour>
      <point x="274.18849206349216" y="532.7797619047619" type="curve" smooth="yes"/>
      <point x="274.18849206349216" y="487.0562306645238"/>
      <point x="311.3101989184921" y="449.93452380952385"/>
      <point x="357.03373015873024" y="449.93452380952385" type="curve" smooth="yes"/>
      <point x="402.75726139896835" y="449.93452380952385"/>
      <point x="439.8789682539683" y="487.0562306645238"/>
      <point x="439.8789682539683" y="532.7797619047619" type="curve" smooth="yes"/>
      <point x="439.87896825396837" y="578.503293145"/>
      <point x="402.75726139896835" y="615.625"/>
      <point x="357.03373015873024" y="615.625" type="curve" smooth="yes"/>
      <point x="311.3101989184922" y="615.625"/>
      <point x="274.18849206349216" y="578.503293145"/>
    </contour>
    <contour>
      <point x="313.2738095238096" y="155.36428571428576" type="curve"/>
      <point x="338.43294326234" y="155.36428580399217"/>
      <point x="369.35959273814086" y="151.71901066089774"/>
      <point x="402.34698123023634" y="139.45076751708984" type="curve"/>
      <point x="396.57539767310743" y="366.06626892089844" type="line"/>
      <point x="317.4920617966426" y="366.06626892089844" type="line"/>
      <point x="311.7155801682246" y="252.66233825683594" type="line"/>
      <point x="161.98214935496844" y="252.6726190476191"/>
      <point x="39.50000000000014" y="137.19980502621024"/>
      <point x="39.5" y="-5.851190476190368" type="curve"/>
      <point x="39.500000000000014" y="-148.53436398000002"/>
      <point x="155.22861477499993" y="-264.375"/>
      <point x="297.7738095238095" y="-264.375" type="curve"/>
      <point x="361.458210326079" y="-264.375"/>
      <point x="419.9035670745825" y="-242.47823166232854"/>
      <point x="465.54761904761915" y="-205.84371185302734" type="curve"/>
      <point x="465.54761904761915" y="-92.37409210205078" type="line"/>
      <point x="424.4270367232026" y="-138.18999593185453"/>
      <point x="364.7773508709063" y="-167.01666666666665"/>
      <point x="298.44047619047615" y="-167.01666666666668" type="curve"/>
      <point x="209.81844635180988" y="-167.01666666666662"/>
      <point x="142.00000000000006" y="-94.79927488221601"/>
      <point x="142.00000000000006" y="-5.851190476190482" type="curve"/>
      <point x="142.00000000000006" y="83.29853088857935"/>
      <point x="218.71613267909112" y="155.36428571428576"/>
    </contour>
  </outline>
</glyph>
<glyph name="A_with_grave" format="2">
  <advance width="807.773811340332"/>
  <unicode hex="00C0"/>
  <outline>
    <contour>
      <point x="366.90397863459054" y="904.5790252685547" type="line"/>
      <point x="453.1974738128132" y="904.5790252685547" type="line"/>
      <point x="346.43440465998117" y="1090.2456893920898" type="line"/>
      <point x="234.5244772918171" y="1090.2456893920898" type="line"/>
    </contour>
    <contour>
      <point x="-1.5" y="0" type="line"/>
      <point x="103.6739501953125" y="0" type="line"/>
      <point x="193.99908447265625" y="194.6171417236328" type="line"/>
      <point x="608.2188491821289" y="194.6171417236328" type="line"/>
      <point x="698.5439834594727" y="0" type="line"/>
      <point x="809.273811340332" y="0" type="line"/>
      <point x="403.88690185546875" y="870.3333358764648" type="line"/>
    </contour>
    <contour>
      <point x="401.10897064208984" y="640.8620681762695" type="line"/>
      <point x="564.8331832885742" y="288.0971450805664" type="line"/>
      <point x="237.38475036621094" y="288.0971450805664" type="line"/>
    </contour>
  </outline>
</glyph>
<glyph name="A_with_acute" format="2">
  <advance width="807.773811340332"/>
  <unicode hex="00C1"/>
  <outline>
    <contour>
      <point x="440.8698319249959" y="904.5790252685547" type="line"/>
      <point x="573.2493332677693" y="1090.2456893920898" type="line"/>
      <point x="461.33940589960525" y="1090.2456893920898" type="line"/>
      <point x="354.57633674677317" y="904.5790252685547" type="line"/>
    </contour>
    <contour>
      <point x="-1.5" y="0" type="line"/>
      <point x="103.6739501953125" y="0" type="line"/>
      <point x="193.99908447265625" y="194.6171417236328" type="line"/>
      <point x="608.2188491821289" y="194.6171417236328" type="line"/>
      <point x="698.5439834594727" y="0" type="line"/>
      <point x="809.273811340332" y="0" type="line"/>
      <point x="403.88690185546875" y="870.3333358764648" type="line"/>
    </contour>
    <contour>
      <point x="401.10897064208984" y="640.8620681762695" type="line"/>
      <point x="564.8331832885742" y="288.0971450805664" type="line"/>
      <point x="237.38475036621094" y="288.0971450805664" type="line"/>
    </contour>
  </outline>
</glyph>
<glyph name="A_with_tildeabove" format="2">
  <advance width="807.773811340332"/>
  <unicode hex="00C3"/>
  <outline>
    <contour>
      <point x="328.8105158730159" y="977.1613397581256" type="curve"/>
      <point x="346.3525689144018" y="977.1613397581253"/>
      <point x="355.6009122886719" y="971.1628710065874"/>
      <point x="373.73237207213623" y="959.2989741792039" type="curve"/>
      <point x="377.91629915144495" y="956.5613193077808" type="line"/>
      <point x="407.69489297908723" y="937.0763926082823"/>
      <point x="438.1925417677147" y="918.6816605253213"/>
      <point x="478.96329365079373" y="918.6816605253213" type="curve"/>
      <point x="515.4953492754025" y="918.6816605253213"/>
      <point x="548.1753952817975" y="935.305247039755"/>
      <point x="569.8452372475276" y="961.4366760253906" type="curve"/>
      <point x="569.8452372475276" y="1062.2746658325195" type="line"/>
      <point x="553.8907252265542" y="1027.9804083342374"/>
      <point x="519.1771573972219" y="1004.2435355253212"/>
      <point x="478.96329365079373" y="1004.2435355253212" type="curve"/>
      <point x="461.42124060940785" y="1004.2435355253212"/>
      <point x="452.1728898553346" y="1010.242001531487"/>
      <point x="434.0414311546343" y="1022.1059000136464" type="curve"/>
      <point x="429.857504325179" y="1024.8435552669177" type="line"/>
      <point x="400.0789122758375" y="1044.3284846841732"/>
      <point x="369.58126775609503" y="1062.7232147581256"/>
      <point x="328.81051587301596" y="1062.7232147581256" type="curve"/>
      <point x="292.27846024840716" y="1062.7232147581256"/>
      <point x="259.59842278550155" y="1046.0996385461874"/>
      <point x="237.92857312399246" y="1019.9682159423828" type="curve"/>
      <point x="237.92857312399246" y="919.1302108764648" type="line"/>
      <point x="253.88308499327968" y="953.4244684453149"/>
      <point x="288.59665212658774" y="977.1613397581255"/>
    </contour>
    <contour>
      <point x="-1.5" y="0" type="line"/>
      <point x="103.6739501953125" y="0" type="line"/>
      <point x="193.99908447265625" y="194.6171417236328" type="line"/>
      <point x="608.2188491821289" y="194.6171417236328" type="line"/>
      <point x="698.5439834594727" y="0" type="line"/>
      <point x="809.273811340332" y="0" type="line"/>
      <point x="403.88690185546875" y="870.3333358764648" type="line"/>
    </contour>
    <contour>
      <point x="401.10897064208984" y="640.8620681762695" type="line"/>
      <point x="564.8331832885742" y="288.0971450805664" type="line"/>
      <point x="237.38475036621094" y="288.0971450805664" type="line"/>
    </contour>
  </outline>
</glyph>
<glyph name="A_with_diaeresis" format="2">
  <advance width="807.773811340332"/>
  <unicode hex="00C4"/>
  <outline>
    <contour>
      <point x="375.1481646825397" y="995.0790249433106" type="curve" smooth="yes"/>
      <point x="375.1481646825397" y="1033.443333352633"/>
      <point x="344.00121317122716" y="1064.5902848639455"/>
      <point x="305.63690476190476" y="1064.5902848639455" type="curve" smooth="yes"/>
      <point x="267.27259635258235" y="1064.5902848639455"/>
      <point x="236.12564484126983" y="1033.443333352633"/>
      <point x="236.12564484126983" y="995.0790249433106" type="curve" smooth="yes"/>
      <point x="236.12564484126983" y="956.7147165339882"/>
      <point x="267.27259635258235" y="925.5677650226758"/>
      <point x="305.63690476190476" y="925.5677650226758" type="curve" smooth="yes"/>
      <point x="344.00121317122716" y="925.5677650226758"/>
      <point x="375.1481646825397" y="956.7147165339882"/>
    </contour>
    <contour>
      <point x="571.6481646825397" y="995.0790249433106" type="curve" smooth="yes"/>
      <point x="571.6481646825397" y="1033.443333352633"/>
      <point x="540.5012131712272" y="1064.5902848639455"/>
      <point x="502.1369047619048" y="1064.5902848639455" type="curve" smooth="yes"/>
      <point x="463.77259635258235" y="1064.5902848639455"/>
      <point x="432.62564484126983" y="1033.443333352633"/>
      <point x="432.62564484126983" y="995.0790249433106" type="curve" smooth="yes"/>
      <point x="432.62564484126983" y="956.7147165339882"/>
      <point x="463.77259635258235" y="925.5677650226758"/>
      <point x="502.1369047619048" y="925.5677650226758" type="curve" smooth="yes"/>
      <point x="540.5012131712272" y="925.5677650226758"/>
      <point x="571.6481646825397" y="956.7147165339882"/>
    </contour>
    <contour>
      <point x="-1.5" y="0" type="line"/>
      <point x="103.6739501953125" y="0" type="line"/>
      <point x="193.99908447265625" y="194.6171417236328" type="line"/>
      <point x="608.2188491821289" y="194.6171417236328" type="line"/>
      <point x="698.5439834594727" y="0" type="line"/>
      <point x="809.273811340332" y="0" type="line"/>
      <point x="403.88690185546875" y="870.3333358764648" type="line"/>
    </contour>
    <contour>
      <point x="401.10897064208984" y="640.8620681762695" type="line"/>
      <point x="564.8331832885742" y="288.0971450805664" type="line"/>
      <point x="237.38475036621094" y="288.0971450805664" type="line"/>
    </contour>
  </outline>
</glyph>
<glyph name="A_with_ring" format="2">
  <advance width="807.773811340332"/>
  <unicode hex="00C5"/>
  <outline>
    <contour>
      <point x="532.0952380952381" y="1025.0790249433107" type="curve" smooth="yes"/>
      <point x="532.0952380952381" y="1095.839129799144"/>
      <point x="474.64700961773815" y="1153.287358276644"/>
      <point x="403.88690476190476" y="1153.287358276644" type="curve" smooth="yes"/>
      <point x="333.1267999060714" y="1153.287358276644"/>
      <point x="275.67857142857144" y="1095.839129799144"/>
      <point x="275.67857142857144" y="1025.0790249433107" type="curve" smooth="yes"/>
      <point x="275.67857142857144" y="954.3189200874774"/>
      <point x="333.1267999060714" y="896.8706916099775"/>
      <point x="403.88690476190476" y="896.8706916099775" type="curve" smooth="yes"/>
      <point x="474.64700961773804" y="896.8706916099775"/>
      <point x="532.0952380952381" y="954.3189200874774"/>
    </contour>
    <contour>
      <point x="459.53182738095234" y="1025.0790249433107" type="curve" smooth="yes"/>
      <point x="459.53182738095234" y="994.3677563631206"/>
      <point x="434.5981733420949" y="969.4341023242631"/>
      <point x="403.88690476190476" y="969.4341023242631" type="curve" smooth="yes"/>
      <point x="373.17563618171465" y="969.4341023242631"/>
      <point x="348.2419821428571" y="994.3677563631206"/>
      <point x="348.2419821428572" y="1025.0790249433107" type="curve" smooth="yes"/>
      <point x="348.2419821428572" y="1055.7902935235008"/>
      <point x="373.17563618171465" y="1080.7239475623583"/>
      <point x="403.88690476190476" y="1080.7239475623583" type="curve" smooth="yes"/>
      <point x="434.5981733420949" y="1080.7239475623583"/>
      <point x="459.53182738095234" y="1055.7902935235008"/>
    </contour>
    <contour>
      <point x="-1.5" y="0" type="line"/>
      <point x="103.6739501953125" y="0" type="line"/>
      <point x="193.99908447265625" y="194.6171417236328" type="line"/>
      <point x="608.2188491821289" y="194.6171417236328" type="line"/>
      <point x="698.5439834594727" y="0" type="line"/>
      <point x="809.273811340332" y="0" type="line"/>
      <point x="403.88690185546875" y="870.3333358764648" type="line"/>
    </contour>
    <contour>
      <point x="401.10897064208984" y="640.8620681762695" type="line"/>
      <point x="564.8331832885742" y="288.0971450805664" type="line"/>
      <point x="237.38475036621094" y="288.0971450805664" type="line"/>
    </contour>
  </outline>
</glyph>
<glyph name="AE" format="2">
  <advance width="1081.9444427490234"/>
  <unicode hex="00C6"/>
  <anchor x="580.8968240647089" y="995.0790249433106" name="top" identifier="top"/>
  <outline>
    <contour>
      <point x="530.5992050170898" y="0" type="line"/>
      <point x="1007.4444427490234" y="0" type="line"/>
      <point x="1007.4444427490234" y="97.375" type="line"/>
      <point x="633.0992050170898" y="97.375" type="line"/>
      <point x="633.0992050170898" y="383.1410446166992" type="line"/>
      <point x="977.4444427490234" y="383.1410446166992" type="line"/>
      <point x="977.4444427490234" y="476.6922912597656" type="line"/>
      <point x="633.0992050170898" y="476.6922912597656" type="line"/>
      <point x="633.0992050170898" y="752.625" type="line"/>
      <point x="1007.4444427490234" y="752.625" type="line"/>
      <point x="1007.4444427490234" y="850" type="line"/>
      <point x="505.5470504760742" y="850" type="line"/>
      <point x="-9.5" y="0" type="line"/>
      <point x="103.8996810913086" y="0" type="line"/>
      <point x="221.34004974365234" y="194.49542236328125" type="line"/>
      <point x="530.5992050170898" y="194.49542236328125" type="line"/>
    </contour>
    <contour>
      <point x="277.93221282958984" y="288.21886444091797" type="line"/>
      <point x="530.5992050170898" y="706.6658935546875" type="line"/>
      <point x="530.5992050170898" y="288.21886444091797" type="line"/>
    </contour>
  </outline>
</glyph>
<glyph name="E_with_grave" format="2">
  <advance width="650.8452377319336"/>
  <unicode hex="00C8"/>
  <outline>
    <contour>
      <point x="304.1428179203049" y="904.5790252685547" type="line"/>
      <point x="390.43631309852753" y="904.5790252685547" type="line"/>
      <point x="283.6732439456955" y="1090.2456893920898" type="line"/>
      <point x="171.76331657753144" y="1090.2456893920898" type="line"/>
    </contour>
    <contour>
      <point x="99.5" y="0" type="line"/>
      <point x="576.3452377319336" y="0" type="line"/>
      <point x="576.3452377319336" y="97.375" type="line"/>
      <point x="202.0" y="97.375" type="line"/>
      <point x="202.0" y="383.1410446166992" type="line"/>
      <point x="546.3452377319336" y="383.1410446166992" type="line"/>
      <point x="546.3452377319336" y="476.6922912597656" type="line"/>
      <point x="202.0" y="476.6922912597656" type="line"/>
      <point x="202.0" y="752.625" type="line"/>
      <point x="576.3452377319336" y="752.625" type="line"/>
      <point x="576.3452377319336" y="850" type="line"/>
      <point x="99.5" y="850" type="line"/>
    </contour>
  </outline>
</glyph>
<glyph name="E_with_acute" format="2">
  <advance width="650.8452377319336"/>
  <unicode hex="00C9"/>
  <outline>
    <contour>
      <point x="378.1086712107101" y="904.5790252685547" type="line"/>
      <point x="510.48817255348354" y="1090.2456893920898" type="line"/>
      <point x="398.5782451853195" y="1090.2456893920898" type="line"/>
      <point x="291.81517603248744" y="904.5790252685547" type="line"/>
    </contour>
    <contour>
      <point x="99.5" y="0" type="line"/>
      <point x="576.3452377319336" y="0" type="line"/>
      <point x="576.3452377319336" y="97.375" type="line"/>
      <point x="202.0" y="97.375" type="line"/>
      <point x="202.0" y="383.1410446166992" type="line"/>
      <point x="546.3452377319336" y="383.1410446166992" type="line"/>
      <point x="546.3452377319336" y="476.6922912597656" type="line"/>
      <point x="202.0" y="476.6922912597656" type="line"/>
      <point x="202.0" y="752.625" type="line"/>
      <point x="576.3452377319336" y="752.625" type="line"/>
      <point x="576.3452377319336" y="850" type="line"/>
      <point x="99.5" y="850" type="line"/>
    </contour>
  </outline>
</glyph>
<glyph name="E_with_circumflex" format="2">
  <advance width="650.8452377319336"/>
  <unicode hex="00CA"/>
  <outline>
    <contour>
      <point x="161.65550595238096" y="918.3341293334961" type="line"/>
      <point x="275.9743383498419" y="918.3341293334961" type="line"/>
      <point x="341.12574368431456" y="981.7444152832031" type="line"/>
      <point x="406.2771490187872" y="918.3341293334961" type="line"/>
      <point x="520.5959814162482" y="918.3341293334961" type="line"/>
      <point x="341.12574368431456" y="1089.258171081543" type="line"/>
    </contour>
    <contour>
      <point x="99.5" y="0" type="line"/>
      <point x="576.3452377319336" y="0" type="line"/>
      <point x="576.3452377319336" y="97.375" type="line"/>
      <point x="202.0" y="97.375" type="line"/>
      <point x="202.0" y="383.1410446166992" type="line"/>
      <point x="546.3452377319336" y="383.1410446166992" type="line"/>
      <point x="546.3452377319336" y="476.6922912597656" type="line"/>
      <point x="202.0" y="476.6922912597656" type="line"/>
      <point x="202.0" y="752.625" type="line"/>
      <point x="576.3452377319336" y="752.625" type="line"/>
      <point x="576.3452377319336" y="850" type="line"/>
      <point x="99.5" y="850" type="line"/>
    </contour>
  </outline>
</glyph>
<glyph name="E_with_diaeresis" format="2">
  <advance width="650.8452377319336"/>
  <unicode hex="00CB"/>
  <outline>
    <contour>
      <point x="312.38700396825396" y="995.0790249433106" type="curve" smooth="yes"/>
      <point x="312.38700396825396" y="1033.443333352633"/>
      <point x="281.2400524569415" y="1064.5902848639455"/>
      <point x="242.87574404761907" y="1064.5902848639455" type="curve" smooth="yes"/>
      <point x="204.51143563829666" y="1064.5902848639455"/>
      <point x="173.36448412698414" y="1033.443333352633"/>
      <point x="173.36448412698414" y="995.0790249433106" type="curve" smooth="yes"/>
      <point x="173.36448412698414" y="956.7147165339882"/>
      <point x="204.51143563829663" y="925.5677650226758"/>
      <point x="242.87574404761904" y="925.5677650226758" type="curve" smooth="yes"/>
      <point x="281.2400524569415" y="925.5677650226758"/>
      <point x="312.38700396825396" y="956.7147165339882"/>
    </contour>
    <contour>
      <point x="508.887003968254" y="995.0790249433106" type="curve" smooth="yes"/>
      <point x="508.887003968254" y="1033.443333352633"/>
      <point x="477.7400524569415" y="1064.5902848639455"/>
      <point x="439.37574404761904" y="1064.5902848639455" type="curve" smooth="yes"/>
      <point x="401.01143563829663" y="1064.5902848639455"/>
      <point x="369.86448412698417" y="1033.443333352633"/>
      <point x="369.86448412698417" y="995.0790249433106" type="curve" smooth="yes"/>
      <point x="369.86448412698417" y="956.7147165339882"/>
      <point x="401.01143563829663" y="925.5677650226758"/>
      <point x="439.37574404761904" y="925.5677650226758" type="curve" smooth="yes"/>
      <point x="477.7400524569415" y="925.5677650226758"/>
      <point x="508.887003968254" y="956.7147165339882"/>
    </contour>
    <contour>
      <point x="99.5" y="0" type="line"/>
      <point x="576.3452377319336" y="0" type="line"/>
      <point x="576.3452377319336" y="97.375" type="line"/>
      <point x="202.0" y="97.375" type="line"/>
      <point x="202.0" y="383.1410446166992" type="line"/>
      <point x="546.3452377319336" y="383.1410446166992" type="line"/>
      <point x="546.3452377319336" y="476.6922912597656" type="line"/>
      <point x="202.0" y="476.6922912597656" type="line"/>
      <point x="202.0" y="752.625" type="line"/>
      <point x="576.3452377319336" y="752.625" type="line"/>
      <point x="576.3452377319336" y="850" type="line"/>
      <point x="99.5" y="850" type="line"/>
    </contour>
  </outline>
</glyph>
<glyph name="I_with_grave" format="2">
  <advance width="304.7374274700876"/>
  <unicode hex="00CC"/>
  <outline>
    <contour>
      <point x="115.87950134277344" y="904.5790252685547" type="line"/>
      <point x="202.1729965209961" y="904.5790252685547" type="line"/>
      <point x="95.40992736816406" y="1090.2456893920898" type="line"/>
      <point x="-16.5" y="1090.2456893920898" type="line"/>
    </contour>
    <contour>
      <point x="100.48742747008762" y="0" type="line"/>
      <point x="205.2374274700876" y="0" type="line"/>
      <point x="205.2374274700876" y="850" type="line"/>
      <point x="100.48742747008762" y="850" type="line"/>
    </contour>
  </outline>
</glyph>
<glyph name="I_with_acute" format="2">
  <advance width="303.7374285058645"/>
  <unicode hex="00CD"/>
  <outline>
    <contour>
      <point x="188.85792716309103" y="904.5790252685547" type="line"/>
      <point x="321.2374285058645" y="1090.2456893920898" type="line"/>
      <point x="209.3275011377004" y="1090.2456893920898" type="line"/>
      <point x="102.56443198486838" y="904.5790252685547" type="line"/>
    </contour>
    <contour>
      <point x="99.5" y="0" type="line"/>
      <point x="204.25" y="0" type="line"/>
      <point x="204.25" y="850" type="line"/>
      <point x="99.5" y="850" type="line"/>
    </contour>
  </outline>
</glyph>
<glyph name="I_with_circumflex" format="2">
  <advance width="303.9404754638672"/>
  <unicode hex="00CE"/>
  <outline>
    <contour>
      <point x="-27.5" y="918.3341293334961" type="line"/>
      <point x="86.81883239746094" y="918.3341293334961" type="line"/>
      <point x="151.9702377319336" y="981.7444152832031" type="line"/>
      <point x="217.12164306640625" y="918.3341293334961" type="line"/>
      <point x="331.4404754638672" y="918.3341293334961" type="line"/>
      <point x="151.9702377319336" y="1089.258171081543" type="line"/>
    </contour>
    <contour>
      <point x="99.5952380952381" y="0" type="line"/>
      <point x="204.34523809523807" y="0" type="line"/>
      <point x="204.34523809523807" y="850" type="line"/>
      <point x="99.5952380952381" y="850" type="line"/>
    </contour>
  </outline>
</glyph>
<glyph name="I_with_diaeresis" format="2">
  <advance width="304.52251984126985"/>
  <unicode hex="00CF"/>
  <outline>
    <contour>
      <point x="123.52251984126983" y="995.0790249433106" type="curve" smooth="yes"/>
      <point x="123.52251984126983" y="1033.443333352633"/>
      <point x="92.37556832995733" y="1064.5902848639455"/>
      <point x="54.01125992063493" y="1064.5902848639455" type="curve" smooth="yes"/>
      <point x="15.646951511312523" y="1064.5902848639455"/>
      <point x="-15.5" y="1033.443333352633"/>
      <point x="-15.5" y="995.0790249433106" type="curve" smooth="yes"/>
      <point x="-15.5" y="956.7147165339882"/>
      <point x="15.646951511312494" y="925.5677650226758"/>
      <point x="54.0112599206349" y="925.5677650226758" type="curve" smooth="yes"/>
      <point x="92.37556832995733" y="925.5677650226758"/>
      <point x="123.52251984126983" y="956.7147165339882"/>
    </contour>
    <contour>
      <point x="320.02251984126985" y="995.0790249433106" type="curve" smooth="yes"/>
      <point x="320.02251984126985" y="1033.443333352633"/>
      <point x="288.87556832995733" y="1064.5902848639455"/>
      <point x="250.51125992063493" y="1064.5902848639455" type="curve" smooth="yes"/>
      <point x="212.14695151131252" y="1064.5902848639455"/>
      <point x="181.0" y="1033.443333352633"/>
      <point x="181.0" y="995.0790249433106" type="curve" smooth="yes"/>
      <point x="181.0" y="956.7147165339882"/>
      <point x="212.14695151131252" y="925.5677650226758"/>
      <point x="250.51125992063487" y="925.5677650226758" type="curve" smooth="yes"/>
      <point x="288.87556832995733" y="925.5677650226758"/>
      <point x="320.02251984126985" y="956.7147165339882"/>
    </contour>
    <contour>
      <point x="99.88625992063493" y="0" type="line"/>
      <point x="204.63625992063493" y="0" type="line"/>
      <point x="204.63625992063493" y="850" type="line"/>
      <point x="99.88625992063493" y="850" type="line"/>
    </contour>
  </outline>
</glyph>
<glyph name="ETH" format="2">
  <advance width="834.5353995492883"/>
  <unicode hex="00D0"/>
  <outline>
    <contour>
      <point x="111.31516145405017" y="0" type="line"/>
      <point x="325.03539918598375" y="0.0" type="line"/>
      <point x="694.4249991792076" y="0.0"/>
      <point x="800.0353995492883" y="256.7975420746361"/>
      <point x="800.0353995492883" y="425.0" type="curve" smooth="yes"/>
      <point x="800.0353995492883" y="593.2024579253639"/>
      <point x="694.4249995425121" y="850.0"/>
      <point x="325.03539954928823" y="850.0" type="curve"/>
      <point x="111.31516145405017" y="850" type="line"/>
      <point x="111.31516145405017" y="471.77562713623047" type="line"/>
      <point x="0.1842105263157947" y="471.77562713623047" type="line"/>
      <point x="0.1842105263157947" y="378.22437286376953" type="line"/>
      <point x="111.31516145405017" y="378.22437286376953" type="line"/>
    </contour>
    <contour>
      <point x="213.81516145405016" y="97.375" type="line"/>
      <point x="213.81516145405016" y="378.22437286376953" type="line"/>
      <point x="426.4342105263158" y="378.22437286376953" type="line"/>
      <point x="426.4342105263158" y="471.77562713623047" type="line"/>
      <point x="213.81516145405016" y="471.77562713623047" type="line"/>
      <point x="213.81516145405016" y="752.625" type="line"/>
      <point x="322.47289918598375" y="752.625" type="line"/>
      <point x="632.512204267737" y="752.625"/>
      <point x="696.5103995492883" y="544.3831210516901"/>
      <point x="696.5103995492883" y="425.0" type="curve" smooth="yes"/>
      <point x="696.5103995492883" y="305.61687894830993"/>
      <point x="632.5122046310415" y="97.375"/>
      <point x="322.47289954928823" y="97.375" type="curve"/>
    </contour>
  </outline>
</glyph>
<glyph name="N_with_tildeabove" format="2">
  <advance width="907.6458358764648"/>
  <unicode hex="00D1"/>
  <outline>
    <contour>
      <point x="378.7465277777777" y="977.1613397581256" type="curve"/>
      <point x="396.2885808191636" y="977.1613397581253"/>
      <point x="405.5369241934337" y="971.1628710065874"/>
      <point x="423.66838397689804" y="959.2989741792039" type="curve"/>
      <point x="427.85231105620676" y="956.5613193077808" type="line"/>
      <point x="457.63090488384904" y="937.0763926082823"/>
      <point x="488.12855367247647" y="918.6816605253213"/>
      <point x="528.8993055555555" y="918.6816605253213" type="curve"/>
      <point x="565.4313611801643" y="918.6816605253213"/>
      <point x="598.1114071865593" y="935.305247039755"/>
      <point x="619.7812491522894" y="961.4366760253906" type="curve"/>
      <point x="619.7812491522894" y="1062.2746658325195" type="line"/>
      <point x="603.826737131316" y="1027.9804083342374"/>
      <point x="569.1131693019836" y="1004.2435355253212"/>
      <point x="528.8993055555554" y="1004.2435355253212" type="curve"/>
      <point x="511.35725251416955" y="1004.2435355253212"/>
      <point x="502.108901760097" y="1010.2420015314864"/>
      <point x="483.9774430593968" y="1022.105900013646" type="curve"/>
      <point x="479.7935162299415" y="1024.8435552669173" type="line"/>
      <point x="450.0149241806" y="1044.3284846841727"/>
      <point x="419.51727966085684" y="1062.7232147581256"/>
      <point x="378.74652777777777" y="1062.7232147581256" type="curve"/>
      <point x="342.21447215316897" y="1062.7232147581256"/>
      <point x="309.53443469026337" y="1046.0996385461874"/>
      <point x="287.8645850287543" y="1019.9682159423828" type="curve"/>
      <point x="287.8645850287543" y="919.1302108764648" type="line"/>
      <point x="303.8190968980415" y="953.4244684453149"/>
      <point x="338.53266403134955" y="977.1613397581255"/>
    </contour>
    <contour>
      <point x="196.875" y="620.9108734130859" type="line"/>
      <point x="808.1458358764648" y="-20.333335876464844" type="line"/>
      <point x="808.1458358764648" y="850" type="line"/>
      <point x="710.7708358764648" y="850" type="line"/>
      <point x="710.7708358764648" y="229.08912658691406" type="line"/>
      <point x="99.5" y="870.3333358764648" type="line"/>
      <point x="99.5" y="0" type="line"/>
      <point x="196.875" y="0" type="line"/>
    </contour>
  </outline>
</glyph>
<glyph name="O_with_grave" format="2">
  <advance width="960.025"/>
  <unicode hex="00D2"/>
  <outline>
    <contour>
      <point x="443.0295738726858" y="904.5790252685547" type="line"/>
      <point x="529.3230690509084" y="904.5790252685547" type="line"/>
      <point x="422.5599998980764" y="1090.2456893920898" type="line"/>
      <point x="310.65007252991234" y="1090.2456893920898" type="line"/>
    </contour>
    <contour>
      <point x="925.525" y="425.0" type="curve" smooth="yes"/>
      <point x="925.525" y="670.88504034775"/>
      <point x="725.89754034775" y="865.0"/>
      <point x="480.01250000000005" y="865.0" type="curve" smooth="yes"/>
      <point x="234.12745965224997" y="865.0"/>
      <point x="34.5" y="670.88504034775"/>
      <point x="34.5" y="425.0" type="curve" smooth="yes"/>
      <point x="34.5" y="179.11495965224998"/>
      <point x="234.12745965224997" y="-15.0"/>
      <point x="480.01250000000005" y="-15.0" type="curve" smooth="yes"/>
      <point x="725.89754034775" y="-15.0"/>
      <point x="925.525" y="179.11495965224998"/>
    </contour>
    <contour>
      <point x="816.2625" y="425.0" type="curve" smooth="yes"/>
      <point x="816.2625" y="235.89899861813836"/>
      <point x="668.935563317544" y="82.375"/>
      <point x="480.01250000000005" y="82.375" type="curve" smooth="yes"/>
      <point x="291.0894366824559" y="82.375"/>
      <point x="143.7625" y="235.89899861813836"/>
      <point x="143.7625" y="425.0" type="curve" smooth="yes"/>
      <point x="143.7625" y="614.1010013818616"/>
      <point x="291.0894366824559" y="767.625"/>
      <point x="480.01250000000005" y="767.625" type="curve" smooth="yes"/>
      <point x="668.935563317544" y="767.625"/>
      <point x="816.2625" y="614.1010013818616"/>
    </contour>
  </outline>
</glyph>
<glyph name="O_with_acute" format="2">
  <advance width="960.025"/>
  <unicode hex="00D3"/>
  <outline>
    <contour>
      <point x="516.9954271630911" y="904.5790252685547" type="line"/>
      <point x="649.3749285058645" y="1090.2456893920898" type="line"/>
      <point x="537.4650011377005" y="1090.2456893920898" type="line"/>
      <point x="430.7019319848684" y="904.5790252685547" type="line"/>
    </contour>
    <contour>
      <point x="925.525" y="425.0" type="curve" smooth="yes"/>
      <point x="925.525" y="670.88504034775"/>
      <point x="725.89754034775" y="865.0"/>
      <point x="480.01250000000005" y="865.0" type="curve" smooth="yes"/>
      <point x="234.12745965224997" y="865.0"/>
      <point x="34.5" y="670.88504034775"/>
      <point x="34.5" y="425.0" type="curve" smooth="yes"/>
      <point x="34.5" y="179.11495965224998"/>
      <point x="234.12745965224997" y="-15.0"/>
      <point x="480.01250000000005" y="-15.0" type="curve" smooth="yes"/>
      <point x="725.89754034775" y="-15.0"/>
      <point x="925.525" y="179.11495965224998"/>
    </contour>
    <contour>
      <point x="816.2625" y="425.0" type="curve" smooth="yes"/>
      <point x="816.2625" y="235.89899861813836"/>
      <point x="668.935563317544" y="82.375"/>
      <point x="480.01250000000005" y="82.375" type="curve" smooth="yes"/>
      <point x="291.0894366824559" y="82.375"/>
      <point x="143.7625" y="235.89899861813836"/>
      <point x="143.7625" y="425.0" type="curve" smooth="yes"/>
      <point x="143.7625" y="614.1010013818616"/>
      <point x="291.0894366824559" y="767.625"/>
      <point x="480.01250000000005" y="767.625" type="curve" smooth="yes"/>
      <point x="668.935563317544" y="767.625"/>
      <point x="816.2625" y="614.1010013818616"/>
    </contour>
  </outline>
</glyph>
<glyph name="O_with_diaeresis" format="2">
  <advance width="960.025"/>
  <unicode hex="00D6"/>
  <outline>
    <contour>
      <point x="451.2737599206349" y="995.0790249433106" type="curve" smooth="yes"/>
      <point x="451.2737599206349" y="1033.443333352633"/>
      <point x="420.1268084093224" y="1064.5902848639455"/>
      <point x="381.7625" y="1064.5902848639455" type="curve" smooth="yes"/>
      <point x="343.3981915906776" y="1064.5902848639455"/>
      <point x="312.25124007936506" y="1033.443333352633"/>
      <point x="312.25124007936506" y="995.0790249433106" type="curve" smooth="yes"/>
      <point x="312.25124007936506" y="956.7147165339882"/>
      <point x="343.3981915906776" y="925.5677650226758"/>
      <point x="381.7625" y="925.5677650226758" type="curve" smooth="yes"/>
      <point x="420.1268084093224" y="925.5677650226758"/>
      <point x="451.2737599206349" y="956.7147165339882"/>
    </contour>
    <contour>
      <point x="647.7737599206349" y="995.0790249433106" type="curve" smooth="yes"/>
      <point x="647.7737599206349" y="1033.443333352633"/>
      <point x="616.6268084093224" y="1064.5902848639455"/>
      <point x="578.2625" y="1064.5902848639455" type="curve" smooth="yes"/>
      <point x="539.8981915906776" y="1064.5902848639455"/>
      <point x="508.75124007936506" y="1033.443333352633"/>
      <point x="508.75124007936506" y="995.0790249433106" type="curve" smooth="yes"/>
      <point x="508.75124007936506" y="956.7147165339882"/>
      <point x="539.8981915906776" y="925.5677650226758"/>
      <point x="578.2624999999999" y="925.5677650226758" type="curve" smooth="yes"/>
      <point x="616.6268084093224" y="925.5677650226758"/>
      <point x="647.7737599206349" y="956.7147165339882"/>
    </contour>
    <contour>
      <point x="925.525" y="425.0" type="curve" smooth="yes"/>
      <point x="925.525" y="670.88504034775"/>
      <point x="725.89754034775" y="865.0"/>
      <point x="480.01250000000005" y="865.0" type="curve" smooth="yes"/>
      <point x="234.12745965224997" y="865.0"/>
      <point x="34.5" y="670.88504034775"/>
      <point x="34.5" y="425.0" type="curve" smooth="yes"/>
      <point x="34.5" y="179.11495965224998"/>
      <point x="234.12745965224997" y="-15.0"/>
      <point x="480.01250000000005" y="-15.0" type="curve" smooth="yes"/>
      <point x="725.89754034775" y="-15.0"/>
      <point x="925.525" y="179.11495965224998"/>
    </contour>
    <contour>
      <point x="816.2625" y="425.0" type="curve" smooth="yes"/>
      <point x="816.2625" y="235.89899861813836"/>
      <point x="668.935563317544" y="82.375"/>
      <point x="480.01250000000005" y="82.375" type="curve" smooth="yes"/>
      <point x="291.0894366824559" y="82.375"/>
      <point x="143.7625" y="235.89899861813836"/>
      <point x="143.7625" y="425.0" type="curve" smooth="yes"/>
      <point x="143.7625" y="614.1010013818616"/>
      <point x="291.0894366824559" y="767.625"/>
      <point x="480.01250000000005" y="767.625" type="curve" smooth="yes"/>
      <point x="668.935563317544" y="767.625"/>
      <point x="816.2625" y="614.1010013818616"/>
    </contour>
  </outline>
</glyph>
<glyph name="multiply" format="2">
  <advance width="608.8586273193359"/>
  <unicode hex="00D7"/>
  <outline>
    <contour>
      <point x="127.21067810058594" y="177.07068634033203" type="line"/>
      <point x="304.42931365966797" y="354.28932189941406" type="line"/>
      <point x="481.64794921875" y="177.07068634033203" type="line"/>
      <point x="552.3586273193359" y="247.78136444091797" type="line"/>
      <point x="375.1399917602539" y="425" type="line"/>
      <point x="552.3586273193359" y="602.218635559082" type="line"/>
      <point x="481.64794921875" y="672.929313659668" type="line"/>
      <point x="304.42931365966797" y="495.71067810058594" type="line"/>
      <point x="127.21067810058594" y="672.929313659668" type="line"/>
      <point x="56.5" y="602.218635559082" type="line"/>
      <point x="233.71863555908203" y="425" type="line"/>
      <point x="56.5" y="247.78136444091797" type="line"/>
    </contour>
  </outline>
</glyph>
<glyph name="O_with_stroke" format="2">
  <advance width="990.9402542372882"/>
  <unicode hex="00D8"/>
  <outline>
    <contour>
      <point x="942.796186440678" y="425.0" type="curve" smooth="yes"/>
      <point x="942.796186440678" y="561.8207636211827"/>
      <point x="880.9859953786721" y="682.612076260729"/>
      <point x="783.78962668726" y="762.8487930297852" type="curve"/>
      <point x="858.5514293605999" y="870.3333358764648" type="line"/>
      <point x="755.5268245632366" y="870.3333358764648" type="line"/>
      <point x="713.7214580471233" y="810.2300415039062" type="line"/>
      <point x="649.6244646624948" y="845.2001982893144"/>
      <point x="575.8132212017406" y="865.0"/>
      <point x="497.283686440678" y="864.9999999999999" type="curve" smooth="yes"/>
      <point x="251.39864609292795" y="865.0"/>
      <point x="51.771186440677965" y="670.88504034775"/>
      <point x="51.771186440677965" y="425.0" type="curve" smooth="yes"/>
      <point x="51.771186440677965" y="288.1792363788173"/>
      <point x="113.58137750268385" y="167.3879237392709"/>
      <point x="210.77774009058032" y="87.15121459960938" type="curve"/>
      <point x="136.01593741724048" y="-20.333335876464844" type="line"/>
      <point x="239.04054221460376" y="-20.333335876464844" type="line"/>
      <point x="280.84590873071704" y="39.76996612548828" type="line"/>
      <point x="344.94290821886113" y="4.7998017106855855"/>
      <point x="418.75415167961535" y="-15.000000000000025"/>
      <point x="497.283686440678" y="-15.000000000000028" type="curve" smooth="yes"/>
      <point x="743.168726788428" y="-15.0"/>
      <point x="942.796186440678" y="179.11495965224998"/>
    </contour>
    <contour>
      <point x="161.03368644067797" y="425.0" type="curve" smooth="yes"/>
      <point x="161.03368644067797" y="614.1010013818616"/>
      <point x="308.3606231231339" y="767.625"/>
      <point x="497.283686440678" y="767.625" type="curve" smooth="yes"/>
      <point x="555.2243118064722" y="767.625"/>
      <point x="609.2524827565826" y="753.1848178268765"/>
      <point x="656.3180385524944" y="727.701530456543" type="curve"/>
      <point x="269.6067348415569" y="171.72926330566406" type="line"/>
      <point x="202.48437664261138" y="234.40147616611932"/>
      <point x="161.03368644067803" y="324.69591224102464"/>
    </contour>
    <contour>
      <point x="833.533686440678" y="424.9999999999999" type="curve" smooth="yes"/>
      <point x="833.533686440678" y="235.89899861813836"/>
      <point x="686.206749758222" y="82.375"/>
      <point x="497.283686440678" y="82.375" type="curve" smooth="yes"/>
      <point x="439.34306107488374" y="82.375"/>
      <point x="385.3148901247734" y="96.81518217312346"/>
      <point x="338.24932822534595" y="122.29847717285156" type="curve"/>
      <point x="724.9606319362834" y="678.2707366943359" type="line"/>
      <point x="792.0829962387446" y="615.5985238338806"/>
      <point x="833.533686440678" y="525.3040877589752"/>
    </contour>
  </outline>
</glyph>
<glyph name="U_with_acute" format="2">
  <advance width="774.4761903146534"/>
  <unicode hex="00DA"/>
  <outline>
    <contour>
      <point x="424.2210224011863" y="904.5790252685547" type="line"/>
      <point x="556.6005237439597" y="1090.2456893920898" type="line"/>
      <point x="444.6905963757957" y="1090.2456893920898" type="line"/>
      <point x="337.92752722296365" y="904.5790252685547" type="line"/>
    </contour>
    <contour>
      <point x="79.5" y="337.73809814453125" type="line"/>
      <point x="79.50000000000001" y="-2.0518757096706963"/>
      <point x="336.2116389822038" y="-14.999999999999993"/>
      <point x="387.2380952380952" y="-15.0" type="curve" smooth="yes"/>
      <point x="438.2645514939866" y="-15.0"/>
      <point x="694.9761914124268" y="-2.0518786161067624"/>
      <point x="694.9761903146534" y="337.7380952380952" type="curve"/>
      <point x="694.976188659668" y="850" type="line"/>
      <point x="592.476188659668" y="850" type="line"/>
      <point x="592.476188659668" y="340.17559814453125" type="line"/>
      <point x="592.476188659668" y="115.36351466767562"/>
      <point x="462.90502886391664" y="82.375"/>
      <point x="387.23809523809524" y="82.375" type="curve" smooth="yes"/>
      <point x="311.57116161227384" y="82.37500000000001"/>
      <point x="182.0" y="115.36351176123961"/>
      <point x="182.0" y="340.17559523809524" type="curve"/>
      <point x="182.0" y="850" type="line"/>
      <point x="79.5" y="850" type="line"/>
    </contour>
  </outline>
</glyph>
<glyph name="THORN" format="2">
  <advance width="687.3035714285714"/>
  <unicode hex="00DE"/>
  <outline>
    <contour>
      <point x="99.5" y="0" type="line"/>
      <point x="202.0" y="0" type="line"/>
      <point x="202.0" y="141.04166412353516" type="line"/>
      <point x="313.8452377319336" y="141.04166412353516" type="line"/>
      <point x="599.6942478321797" y="141.04166412353516"/>
      <point x="647.8035714285714" y="329.13478538388847"/>
      <point x="647.8035714285714" y="425.0" type="curve" smooth="yes"/>
      <point x="647.8035714285714" y="520.8652146161115"/>
      <point x="599.6942481954842" y="708.9583296273541"/>
      <point x="313.84523809523813" y="708.9583341190009" type="curve"/>
      <point x="202.0" y="708.9583358764648" type="line"/>
      <point x="202.0" y="850" type="line"/>
      <point x="99.5" y="850" type="line"/>
    </contour>
    <contour>
      <point x="202.0" y="238.41666412353516" type="line"/>
      <point x="202.0" y="611.5833358764648" type="line"/>
      <point x="312.6519736157696" y="611.5833358764648" type="line"/>
      <point x="497.9882141570547" y="611.5833358764648"/>
      <point x="545.3035714285714" y="515.9604526903643"/>
      <point x="545.3035714285714" y="425.0" type="curve" smooth="yes"/>
      <point x="545.3035714285714" y="334.0395473096356"/>
      <point x="497.9882145203592" y="238.41666884932636"/>
      <point x="312.6519731561871" y="238.41666589022077" type="curve"/>
    </contour>
  </outline>
</glyph>
